<mxfile>
    <diagram id="-SWX3bUrc_gaOcauWZ6U" name="ページ1">
        <mxGraphModel dx="2073" dy="860" grid="1" gridSize="10" guides="1" tooltips="1" connect="1" arrows="1" fold="1" page="1" pageScale="1" pageWidth="827" pageHeight="1169" math="0" shadow="0">
            <root>
                <mxCell id="0"/>
                <mxCell id="1" parent="0"/>
                <mxCell id="9" value="" style="rounded=0;whiteSpace=wrap;html=1;strokeColor=#000000;fillColor=#EDEDED;fontColor=#000000;" parent="1" vertex="1">
                    <mxGeometry x="-30" y="280" width="800" height="370" as="geometry"/>
                </mxCell>
                <mxCell id="3" value="VPC&amp;nbsp; &amp;nbsp; &amp;nbsp; &amp;nbsp; &amp;nbsp; &amp;nbsp; &amp;nbsp; &amp;nbsp; &amp;nbsp; &amp;nbsp; &amp;nbsp; &amp;nbsp; &amp;nbsp; &amp;nbsp; &amp;nbsp; &amp;nbsp; &amp;nbsp; &amp;nbsp; &amp;nbsp; &amp;nbsp; &amp;nbsp; &amp;nbsp; &amp;nbsp; &amp;nbsp; &amp;nbsp; &amp;nbsp; &amp;nbsp; &amp;nbsp; &amp;nbsp; &amp;nbsp; &amp;nbsp; &amp;nbsp; &amp;nbsp; &amp;nbsp; &amp;nbsp; &amp;nbsp; &amp;nbsp; &amp;nbsp; &amp;nbsp; &amp;nbsp; &amp;nbsp; &amp;nbsp; &amp;nbsp; &amp;nbsp; &amp;nbsp; &amp;nbsp; &amp;nbsp; &amp;nbsp; &amp;nbsp; &amp;nbsp; &amp;nbsp; &amp;nbsp; &amp;nbsp; &amp;nbsp; &amp;nbsp; &amp;nbsp; &amp;nbsp; &amp;nbsp; &amp;nbsp; &amp;nbsp; &amp;nbsp;10.0.0.0/16&amp;nbsp; &amp;nbsp; &amp;nbsp; &amp;nbsp; &amp;nbsp; 1a" style="outlineConnect=0;gradientColor=none;html=1;whiteSpace=wrap;fontSize=12;fontStyle=0;shape=mxgraph.aws4.group;grIcon=mxgraph.aws4.group_vpc;verticalAlign=top;align=left;spacingLeft=30;fontColor=#879196;dashed=0;strokeColor=#000000;fillColor=#FFFFFF;" parent="1" vertex="1">
                    <mxGeometry x="145" y="320" width="585" height="290" as="geometry"/>
                </mxCell>
                <mxCell id="2" value="" style="outlineConnect=0;dashed=0;verticalLabelPosition=bottom;verticalAlign=top;align=center;html=1;shape=mxgraph.aws3.virtual_private_cloud;fillColor=#F58534;gradientColor=none;" parent="1" vertex="1">
                    <mxGeometry x="130" y="300" width="79.5" height="54" as="geometry"/>
                </mxCell>
                <mxCell id="18" style="edgeStyle=orthogonalEdgeStyle;rounded=1;orthogonalLoop=1;jettySize=auto;html=1;fontColor=#000000;strokeWidth=5;strokeColor=#000000;entryX=0;entryY=0.5;entryDx=0;entryDy=0;entryPerimeter=0;exitX=1;exitY=0.5;exitDx=0;exitDy=0;exitPerimeter=0;" parent="1" source="16" target="22" edge="1">
                    <mxGeometry relative="1" as="geometry">
                        <mxPoint x="260" y="480" as="sourcePoint"/>
                    </mxGeometry>
                </mxCell>
                <mxCell id="6" value="" style="outlineConnect=0;dashed=0;verticalLabelPosition=bottom;verticalAlign=top;align=center;html=1;shape=mxgraph.aws3.cloud_2;fillColor=#F58534;gradientColor=none;strokeColor=#000000;fontColor=#000000;" parent="1" vertex="1">
                    <mxGeometry x="-30" y="280" width="70" height="65" as="geometry"/>
                </mxCell>
                <mxCell id="113" style="edgeStyle=orthogonalEdgeStyle;rounded=0;orthogonalLoop=1;jettySize=auto;html=1;" edge="1" parent="1" source="16" target="98">
                    <mxGeometry relative="1" as="geometry"/>
                </mxCell>
                <mxCell id="114" style="edgeStyle=orthogonalEdgeStyle;rounded=0;orthogonalLoop=1;jettySize=auto;html=1;exitX=0;exitY=0.5;exitDx=0;exitDy=0;exitPerimeter=0;" edge="1" parent="1" source="16" target="98">
                    <mxGeometry relative="1" as="geometry"/>
                </mxCell>
                <mxCell id="16" value="" style="outlineConnect=0;dashed=0;verticalLabelPosition=bottom;verticalAlign=top;align=center;html=1;shape=mxgraph.aws3.internet_gateway;fillColor=#F58534;gradientColor=none;strokeColor=#000000;fontColor=#000000;" parent="1" vertex="1">
                    <mxGeometry x="40" y="439" width="69" height="72" as="geometry"/>
                </mxCell>
                <mxCell id="22" value="" style="outlineConnect=0;dashed=0;verticalLabelPosition=bottom;verticalAlign=top;align=center;html=1;shape=mxgraph.aws3.route_table;fillColor=#F58536;gradientColor=none;strokeColor=#000000;fontColor=#f0f0f0;" parent="1" vertex="1">
                    <mxGeometry x="160" y="447" width="60" height="56" as="geometry"/>
                </mxCell>
                <mxCell id="35" value="PrivateSubnet&amp;nbsp;" style="points=[[0,0],[0.25,0],[0.5,0],[0.75,0],[1,0],[1,0.25],[1,0.5],[1,0.75],[1,1],[0.75,1],[0.5,1],[0.25,1],[0,1],[0,0.75],[0,0.5],[0,0.25]];outlineConnect=0;gradientColor=none;html=1;whiteSpace=wrap;fontSize=12;fontStyle=0;shape=mxgraph.aws4.group;grIcon=mxgraph.aws4.group_security_group;grStroke=0;fillColor=#E6F2F8;verticalAlign=top;align=left;spacingLeft=30;fontColor=#147EBA;dashed=0;strokeColor=#000000;strokeWidth=1;" parent="1" vertex="1">
                    <mxGeometry x="600" y="360" width="111" height="220" as="geometry"/>
                </mxCell>
                <mxCell id="46" value="" style="group" parent="1" vertex="1" connectable="0">
                    <mxGeometry x="-220" y="430" width="100" height="86.5" as="geometry"/>
                </mxCell>
                <mxCell id="19" value="" style="pointerEvents=1;shadow=0;dashed=0;html=1;strokeColor=none;fillColor=#505050;labelPosition=center;verticalLabelPosition=bottom;verticalAlign=top;outlineConnect=0;align=center;shape=mxgraph.office.concepts.globe_internet;fontColor=#000000;" parent="46" vertex="1">
                    <mxGeometry x="5.25" width="89.5" height="86.5" as="geometry"/>
                </mxCell>
                <mxCell id="21" value="&lt;font&gt;インターネット&lt;/font&gt;" style="text;html=1;align=center;verticalAlign=middle;resizable=0;points=[];autosize=1;" parent="46" vertex="1">
                    <mxGeometry y="33.25" width="100" height="20" as="geometry"/>
                </mxCell>
                <mxCell id="103" value="" style="pointerEvents=1;shadow=0;dashed=0;html=1;strokeColor=none;labelPosition=center;verticalLabelPosition=bottom;verticalAlign=top;align=center;shape=mxgraph.mscae.intune.user_group;fontColor=#000000;fillColor=#FFFFFF;" parent="46" vertex="1">
                    <mxGeometry x="25" y="26.310000000000002" width="50" height="37" as="geometry"/>
                </mxCell>
                <mxCell id="47" value="" style="outlineConnect=0;dashed=0;verticalLabelPosition=bottom;verticalAlign=top;align=center;html=1;shape=mxgraph.aws3.rds;fillColor=#2E73B8;gradientColor=none;strokeColor=#000000;strokeWidth=1;fontColor=#000000;" parent="1" vertex="1">
                    <mxGeometry x="619.5" y="434.5" width="72" height="81" as="geometry"/>
                </mxCell>
                <mxCell id="90" value="" style="group" parent="1" vertex="1" connectable="0">
                    <mxGeometry x="69" y="677.5" width="91" height="70" as="geometry"/>
                </mxCell>
                <mxCell id="88" value="" style="verticalLabelPosition=bottom;html=1;verticalAlign=top;align=center;strokeColor=none;fillColor=#00BEF2;shape=mxgraph.azure.laptop;pointerEvents=1;" parent="90" vertex="1">
                    <mxGeometry width="91" height="70" as="geometry"/>
                </mxCell>
                <mxCell id="89" value="" style="aspect=fixed;html=1;points=[];align=center;image;fontSize=12;image=img/lib/mscae/Docker.svg;" parent="90" vertex="1">
                    <mxGeometry x="21" y="10" width="50" height="41" as="geometry"/>
                </mxCell>
                <mxCell id="95" style="edgeStyle=orthogonalEdgeStyle;rounded=1;orthogonalLoop=1;jettySize=auto;html=1;fontColor=#000000;strokeColor=#000000;strokeWidth=5;" parent="1" source="91" edge="1" target="5">
                    <mxGeometry relative="1" as="geometry">
                        <mxPoint x="350" y="580" as="targetPoint"/>
                    </mxGeometry>
                </mxCell>
                <mxCell id="91" value="" style="dashed=0;outlineConnect=0;html=1;align=center;labelPosition=center;verticalLabelPosition=bottom;verticalAlign=top;shape=mxgraph.weblogos.github" parent="1" vertex="1">
                    <mxGeometry x="357.5" y="675" width="75" height="75" as="geometry"/>
                </mxCell>
                <mxCell id="93" style="edgeStyle=orthogonalEdgeStyle;rounded=0;orthogonalLoop=1;jettySize=auto;html=1;strokeColor=#000000;strokeWidth=5;" parent="1" source="88" target="91" edge="1">
                    <mxGeometry relative="1" as="geometry">
                        <mxPoint x="300" y="715" as="targetPoint"/>
                    </mxGeometry>
                </mxCell>
                <mxCell id="104" style="edgeStyle=orthogonalEdgeStyle;rounded=1;orthogonalLoop=1;jettySize=auto;html=1;strokeColor=#000000;strokeWidth=5;fontColor=#000000;entryX=0;entryY=0.5;entryDx=0;entryDy=0;entryPerimeter=0;exitX=0.9;exitY=0.588;exitDx=0;exitDy=0;exitPerimeter=0;" parent="1" source="21" edge="1" target="98">
                    <mxGeometry relative="1" as="geometry">
                        <mxPoint x="-130" y="479" as="targetPoint"/>
                    </mxGeometry>
                </mxCell>
                <mxCell id="98" value="" style="points=[[0,0,0],[0.25,0,0],[0.5,0,0],[0.75,0,0],[1,0,0],[0,1,0],[0.25,1,0],[0.5,1,0],[0.75,1,0],[1,1,0],[0,0.25,0],[0,0.5,0],[0,0.75,0],[1,0.25,0],[1,0.5,0],[1,0.75,0]];outlineConnect=0;fontColor=#232F3E;gradientColor=#945DF2;gradientDirection=north;fillColor=#5A30B5;strokeColor=#ffffff;dashed=0;verticalLabelPosition=bottom;verticalAlign=top;align=center;html=1;fontSize=12;fontStyle=0;aspect=fixed;shape=mxgraph.aws4.resourceIcon;resIcon=mxgraph.aws4.route_53;" parent="1" vertex="1">
                    <mxGeometry x="-68" y="436" width="78" height="78" as="geometry"/>
                </mxCell>
                <mxCell id="112" value="" style="group" vertex="1" connectable="0" parent="1">
                    <mxGeometry x="260" y="360" width="270" height="220" as="geometry"/>
                </mxCell>
                <mxCell id="5" value="&lt;font color=&quot;#000000&quot;&gt;Public Subnet&amp;nbsp;&lt;/font&gt;" style="outlineConnect=0;gradientColor=none;html=1;whiteSpace=wrap;fontSize=12;fontStyle=0;shape=mxgraph.aws4.group;grIcon=mxgraph.aws4.group_subnet;verticalAlign=top;align=left;spacingLeft=30;fontColor=#E8E8E8;dashed=0;strokeColor=#000000;fillColor=#EDEDED;" parent="112" vertex="1">
                    <mxGeometry width="270" height="220" as="geometry"/>
                </mxCell>
                <mxCell id="27" value="EC2 instance contents" style="points=[[0,0],[0.25,0],[0.5,0],[0.75,0],[1,0],[1,0.25],[1,0.5],[1,0.75],[1,1],[0.75,1],[0.5,1],[0.25,1],[0,1],[0,0.75],[0,0.5],[0,0.25]];outlineConnect=0;gradientColor=none;html=1;whiteSpace=wrap;fontSize=12;fontStyle=0;shape=mxgraph.aws4.group;grIcon=mxgraph.aws4.group_ec2_instance_contents;strokeColor=#D86613;fillColor=none;verticalAlign=top;align=left;spacingLeft=30;fontColor=#D86613;dashed=0;" parent="112" vertex="1">
                    <mxGeometry x="20" y="30" width="230" height="170" as="geometry"/>
                </mxCell>
                <mxCell id="49" value="" style="aspect=fixed;html=1;points=[];align=center;image;fontSize=12;image=img/lib/mscae/Docker.svg;strokeColor=#000000;strokeWidth=1;fillColor=#EDEDED;" parent="112" vertex="1">
                    <mxGeometry x="102.86000000000001" y="148" width="64.27" height="52.7" as="geometry"/>
                </mxCell>
                <mxCell id="108" value="" style="shape=image;verticalLabelPosition=bottom;labelBackgroundColor=#ffffff;verticalAlign=top;aspect=fixed;imageAspect=0;image=data:image/png,iVBORw0KGgoAAAANSUhEUgAAAcQAAAHECAYAAACnX1ofAAAABmJLR0QA/wD/AP+gvaeTAAAgAElEQVR4nO3deWBU5b3/8c9zZjJZIAmrsouggDsYrYCiISuo3NveCr31h0BQb61WTFRAIOxhUzBxq3IrhERob8G2VikhYRKCsrii4g6i7CA7hCQkmTnP7w+xRcsSkpn5njPn8/qzhZm3mswnk2fmDEBERERERERERERERERERERERERERERERERERERERERERERERERERERERERERERERERERERERERERERERERERERERERERERERERERERERERERAGgpAOInCytMO1Sv2k8CQAuwxxTMqzkW+kmIqfiIBIJSCtMa2L6jdFa6bEAok79z7WAfsnjdk0sGlp0XLKPyIk4iEShpKGSFg24Syk9F0Cns/ypvQp6SvOY+AXLhizzhzKPyMk4iEQhklSQ/jOlkQegTz3/ykYNnVU2ouTNYHYR0fc4iERBlrh4YAe335ypNYaiYd9zy12GHsXzRaLg4iASBcmg+YNiqj11Y7QyxwAqupE3Vwvol076o7LX3ft6RUACiehHXNIBRGFHQyV1HjDYF+H/O4D/BFREAG7VBaib3IZ/eNefdz0xrOc9H5aXl+sA3C4RncJniEQBlJw/4EYYOg8afYN5Pwr4AIbK9A5buTaY90PkJBxEogBIKrizvYG6WY04J2yo5X6tHi7PWLkthPdJFJY4iESNMGj+oJjKqNqHlUY2gKYyFbpaafVstRk5g+eLRA3HM0SihvjhnNDtf00BdwHwyMWoCCjc4jZ8w3i+SNRwfIZIdIFSC1NvME0jF8At0i1n8Z4JM2v1iFXrpEOI7ISDSFRPqQtS25ku12RA3wfAkO45D60UXjXrXKPL7luxXTqGyA44iETn0Wfp4Ojo6uOjlMYEALHSPReoSmk852tSk1M+pPyEdAyRlXEQic4hKT9tkFLqGQCXSrc00i4FTPAOL34FCjxfJDoDDiLRGSQtTL9eGcgD0E+6JcDehVKZpcNXbpAOIbIaDiLRadJfSW/r86spgL4X4fsqbK0UXoXyP+4d5t0hHUNkFRxEIgCDlw72HK4+/ltoTAMQJ90TIlVKq6d8ODm7PKP8pHQMkTQOIjne9+eERh6gu0i3COH5IhE4iORgKQUDe2lt5gG4VbrFCpTGO4CR6c0oelu6hUgCB5EcJ7kguSW0axKgHkL4nhM2lFYKi32ma0x5xop90jFEocRBJMdImJ8Q0Syq1YPQmAogXrrH4iqVVnN5vkhOwkEkRzj1fsJcAF2lW2xmpwKyvSOKC6VDiIKNg0hhLaUw5Qptup4GMEC6xebKDW1mrcpY9ZF0CFGwcBApLPGcMChMpbBE1/pGl95f+p10DFGgcRAprPCcMCROKK3mRVSoWUWjimqkY4gChYNIYSOlID1FazwD4ErpFidQwNemVuPLMlYuk24hCgQOItleWn5aD9PAPK3V7dItjqRUGYCs0uErN0mnEDUGB5FsK/3l9BY+t54MqAcBuKV7HM5UCksMpR8vGVayXzqGqCE4iGQ7CfMTIppHtszQUDMAtJLuoR85qhVmRx4z8ni+SHbDQSRbOXVOmAfgKukWOqctWqsJPF8kO+Egki30XzCgu+HS8wDcId1C9aeBUkO7srwZKz6RbiE6Hw4iWdotS+5oHlXrG6sVsgB4pHuoQXyAWugyzIk8XyQr4yCSJSWuTnS7t3tGmlA5Cmgt3UONp4AjpsKcltFxucuGLKuV7iH6KQ4iWU5KQXqKqZGrgKulWygoNkPpx0qHlyyXDiE6HQeRLCO54PZuCv4crTFYuoVCwusydFbJsJJPpUOIAA4iWQDPCR3NB6iFHlNlF40sOiAdQ87GQSQxU6ZMMdZ23jBUA08BuEi6h0QdhsI0f6eaF8r7l/ukY8iZOIgkInXRgGQT+mkA10q3kIUofKU0HvOOKP6HdAo5DweRQio1P/VybRgzeE5I5+E1gczVI4o/kw4h5+AgUkgk5ic2cyPyCa2QCSBSuodsoQ5Q+X5PxITyu984KB1D4Y+DSEF12jnhkwAulu4hW+L5IoUEB5GCJrkgvT+AXGhcJ91C9qeBL6H0o2XDS4qkWyg8cRAp4BJfSb/MbWImzwkpSLwwjUdKRxZ9Lh1C4YWDSAGTVpjWxPQbo7XSYwFESfdQWKsD9Iuqxpzk/Y33mHQMhQcOIjUazwlJ0CEoTG8RHff8siHL/NIxZG8cRGqUlPwBiVrpXAA9pVvI0b5QhsryDltZLB1C9sVBpAZJW5jW0XSpGVpjKPh1RNaxXMPILBtRtFU6hOyHD2R0QXhOSDZQB+gXPW7XxKKhRcelY8g+OIhUPxoqpSD9Hg3MAdBGOoeoHg5CIYfni1RfHEQ6r/6FaTcZJvIA1Vu6hagBNmrorLIRJW9Kh5C1cRDprBIXD+zg9pszeU5IYWK5Mv2PeEd6v5EOIWvigxz9m0HzB8VUe+rGaGWOAVS0dA9RANUC+iWeL9KZcBDpXzRU0qIBdyml5wLoJJ1DFER7FfSU5jHxC3i+SD/gIBIAIDl/wI0wdB40+kq3EIWKAj7QGlmlGcVvSbeQPA6iwyUV3NneQN0snhOSwy33a/VwecbKbdIhJIcPgA41aP6gmMqo2oeVRjaAptI9RPJ0tdLq2Wozcsa6e1+vkK6h0HNJB1CIaaikzgMG+yL8f1cadwHwSCcRWYOKgMItbsM/vOvPu54Y1vOeD8vLy7V0FYUOnyE6SGph6g1+05WnoG+WbiGyPvW+CX/m6hGr1kmXUGhwEB0gdUFqO9Plmgzo+wAY0j1ENqKVwqtmnWt02X0rtkvHUHBxEMNYn6WDo6Orj49SGhMAxEr3ENlYldJ4ztekJqd8SPkJ6RgKDg5imErKTxuklHoWQGfpFqLwoXcrqPHe4cWvQIHni2GGgxhm+i9KSzCgcgH0k24hCmPvaVNnlo0sWS8dQoHDQQwTPCckCjmtFF6F8j/uHebdIR1DjcdBtLnBSwd7Dlcf/y00pgGIk+4hcqAqpdVTlU1i52wYsqxaOoYajoNoY6fOCZ8BcKl0CxFhlwIm8HzRvjiINpS0MP16ZSAXwK3SLUT0b96FUpmlw1dukA6hC8NBtJHEPw5q5aqtmQioh8CrDBFZmVYKi10GxhbfU7xXOobqh4NoAzwnJLKtSqXVXB9Ozi7PKD8pHUPnxkG0uO/PCY08QHeRbiGiBtupgGyeL1obB9GikhcOvBLKfBoK6dItRBQYWus1LujMVRmrPpJuoX/HQbSY5ILkltCuSTwnJApbplJY4jNdY8ozVuyTjqF/4SBaRML8hIhmUa0ehMZUAPHSPUQUdDxftBgOogWcej9hLoCu0i1EFHI7FDDRO6K4UDrE6TiIgtLy03r4lXoawEDpFiISt9r0I2v1vcUfS4c4FQdRQPrL6S18bj0ZUA8CcEv3EJFlmEphia71jS69v/Q76Rin4SCG0GnnhFMANJPuISLLOqG0mhdRoWYVjSqqkY5xCg5iiKQUpKdojTwAV0m3EJFtbNFaTSjLWLlMOsQJOIhB1n/BgO4ut/m01up26RYisimlygBklQ5fuUk6JZxxEIOE54REFGCmUlhiKP14ybCS/dIx4YiDGGAJ8xMimke2zNBQMwC0ku4horBzVCvMjjxm5PF8MbA4iAGUUpCeYmrkKuBq6RYiCnubtVbZPF8MHA5iACQX3N4N2j8PwJ3SLUTkOF6lXY96M1Z8Ih1idxzERrhlyR3No2p9Y7VCFgCPdA8ROZYPUAs9psouGll0QDrGrjiIDZC4OtHt3u4ZaULlKKC1dA8REQAo4IipMKdldFzusiHLaqV77IaDeIFSFw1INmHmAuoa6RYiojNS+EppPOYdUfwP6RQ74SDWU2p+6uXaMGZojcHSLURE9eQ1gczVI4o/kw6xAw7ieSTmJzZzI/IJrZAJIFK6h4joAtUBKt/viZhQfvcbB6VjrIyDeBZTpkwx1nbeMFQDTwG4SLqHiKiRDkNhmr9TzQvl/ct90jFWxEE8g6SFaUnKULkArpVuISIKJA18qbV6bHXGyhXSLVbDQTxN4ivpl7lNzOQ5IRE5gBem8UjpyKLPpUOsgoMIIHFpYlN3ZdTjWuknwHNCInKOOkC/qGrMSd7feI9Jx0hz9CCedk74JICLpXuIiIQcgsL0FtFxzy8bsswvHSPFsYOYXJDeH0AuNK6TbiEisogvoPFoaUbxSukQCY4bxLSFaR1Nl5qhNe6RbiEisqjlGkZm2YiirdIhoeSYQUwrTGti+o3RWumxAKKke4iILM5x54thP4innRPOAdBGuoeIyGYcc74Y1oPYvzDtJsNEHqB6S7cQEdnch4ZhZK0aVrRGOiRYwnIQTzsnHIow/WckIhKyXJn+R7wjvd9IhwRaWI0FzwmDT0GhfVw7dIrviLax7RAXGYsodySi3P/6113tOwmf6UN1XTUq66pwsPIADlcfwYGqgzhQyY9qo8ZpF9sWHeM7oENcB8R6YhEVEQUF4KSvBsdrKrCnYg92HNuJPcf3QENL54arWkC/5HG7JhYNLTouHRMo4TGIGipp0YC7lNJzAXSSzgk3Ue4o9LvkFvTpeBOua3Md4iPjGnxbFbUnsOXQFmw+uBlfHdqCj/dtwvGasPl+oiDwuDzo07E3bu7UFz3bXIsW0S3q9feOnTyGj/ZtwoadG7B2x3qc9J0Mcqkj7VXQU5rHxC8Ih/NF2w9iUkH6z5RGHoA+0i3hpm1sW/zq6sFI7tIf0e7ooNyHqU18fuALvLntLZR9W46jJ48G5X7IflrFtMTgq36J9MvS0NTTtFG3VVVXjdJvSvHnT1/FvhP7AlRIp9kIjczSjOK3pEMaw9aDmLwoPR/AcNj8n8Nq4iPjcG/CSKRflgqXcoXsfv3aj3U71uMvn/8Nn+3n5RWdKiYiBsN73oP/6H4nIlwRAb1tv/ajaEsxFmzMR0VNRUBvm6ABFJSOKM6QDmkoWw9J0qL0/QpoLd0RTpK69MfvfvZbxDXi16KB8Ml3n+Lljfn4bD8/19RJene4CVl9RqFlTMug3s+xmuN47u0XUL4tbF8wKUIDB8pGFNv24/I4iATg+3Oa3930IG6/fIB0yo+s27EeL7z7EvZX7pdOoSByKRfuSxiJu676L6gQPiwt37wCL7z7Iur8dSG7z3Bm90E0pANIXhNPE8xKybHcGALAzZ36YsHP5+O/rvh5SB8oKXQiXR5M7j8Rg6/6Zcj/G9/Z7XbMTJ6OmIiYkN4vWRMH0eGaeJrgqbTZuK6NdT8LOdodjQd/9gBmpkxHfFS8dA4FkMflwYyU6ejbUe7aGb3a9sTc9NkcReIgOpnH5cG0/pPRreXl0in1cmP7GzB/0O9xRase0ikUAIYyMOHWJ9CzjfwHznRr2Q1T+08K+It4yF44iA728E0PWfqZ4Zm0immJeQOexG2db5VOoUYa2Ws4bu7UVzrjn3q17YkHb/yNdAYJ4iA6VFKX/hh4ebp0RoN4XB5MuPUJ3N5toHQKNdAN7RLwq6uHSGf8m0Hd78RtnftJZ5AQDqIDxUbG4qGf/VY6o1EMZSCrzygM6n6HdApdoEh3JDL7jIJS1nyR1CO9HxZ/2xHJ4CA60P0J9zbq8mtWoaAw6qbfIbVrinQKXYCh196NNk0vls44q7jIOGT0GiadQQI4iA7TNrYt0i9Llc4IGKUUHuubiYR210unUD3ERcbh51f8h3TGeQ28fIClR5uCg4PoMEOuuiukl2MLBbfhxqTbJqBriy7SKXQev7zyF0G7Lm4guQ03hlw9WDqDQoyD6CBR7igkd0mSzgiKJp4mmJk8nT/VW5ihDFu9kCulSxIi3ZHSGRRCHEQH6XfJzYiJsP5P5w3VMqYlZqZM5wsiLOqGdgn1/ugmK4iJiLHU20Io+DiIDtK3Y/h/Qlan+E6YmTL9Rx9YTNbQR/BqNA3Vp8NN0gkUQhxEh1BQuNZmb8JvqB6tuiP7tnFhd1Zqd1a4Is2F6tW2J6+h6yAcRIdoH9cuLN5qUV+9O9yEh3s/JJ1Bp8R6mqJjfAfpjAvWLKoZ2sW2lc6gEOEgOkSn+I7SCSF3Z7fbMfS6u6UzCEBHG3/9dbDhkFPDcBAdol1sO+kEEcN73oMBNnplY7hqH2ffr78Oce2lEyhEOIgOERsZK50gQkHh0T6P8NWCwpp6mkonNJid2+nCcBAdwsmvujSUgXH9xqBHq+7SKY5lhzfjn004v1WJfoyD6BBuwy2dICrKHYUZKdNt+cKOcOB22ffrz23wMxKdgoNIjhEfGYdZKTloEd1cOoWILIiDSI7SpmkbzEmdhSaeJtIpRGQxHERynEubd8bU/pMQ4eKvwojoXziI5Eg921yH0Tc/xquQENE/cRDJsZIuTcS9CRnSGURkERxEcrT/vnoIfnnlL6QziMgCOIjkeA/c8D+4rXM/6QwiEsZBJMdTSmFcv7G4vm0v6RQiEsRBJML3Fy6Y0n8iurboIp1CREI4iESnxETEYGbydFzc9CLpFCISwEEkOk3LmJaYmZzj2IuhEzkZB5HoJy5p1gkzk6cj0h0pnUJEIcRBJDqDK1r3wIRbx8FQ/BYhcgp+txOdRd+OvTGq9++kM4goRDiIROdwZ7fb8etrfiWdQUQhwEEkOo+R14/AgMvSpDOIKMg4iETnoaCQ2WcUbmx/g3QKEQURB5GoHtyGG1MSJ+KK1j2kU4goSDiIRPUU6Y5ETvI0dIhrL51CREHAQSS6APGRcZiVkoPm0c2lU4gowDiIRBeobWxbzEieimh3tHQKEQUQB5GoAbq17IZpSZPhNtzSKUQUIBxEogbq1bYnRt/8KBSUdAoRBQAHkagRkrskYUSvYdIZRBQAHESiRvp/1/4av7jiP6UziKiROIhEAfDgjQ+g3yW3SGcQUSNwEIkCQCmFcf3G4JqLr5ZOIaIG4iASBYjH5UFO0lR0aX6pdAoRNQAHkSiAmniaYGZKDi5qcpF0ChFdIA4iUYC1immJmSnTEetpKp1CRBeAg0gUBJ2bXYKpSZPhcXmkU4ionjiIREFy7cXXIPu2cTAUv82I7IDfqURB1LdjHzx804PSGURUDxxEoiAb1P1ODLn6LukMIjoPDiJRCNyfcC/SuqZKZxDROXAQiUJAQeHRvo/ghnYJ0ilEdBYcRKIQcRtuTErMxuUtL5NOIaIz4CAShVBMRDRmp8xA+7j20ilE9BMcRKIQi4+Kx6yUHDSLaiadQkSn4SASCWgX2xYzkqchyh0lnUJEp3AQiYR0b9UNE28bD5dySacQETiIRKJu6vAzZPYZJZ1BROAgEokbeHk6hvUcKp1B5HgcRCILGHbdUPy8x39IZxA5GgeRyCIe/NkDuOWSm6UziByLg0hkEYYyMK7fWFx10VXSKUSOxEEkspBIlwfTkyajY3xH6RQix+EgEllMXGQcnkybhdZNWkunEDkKB5HIglrHtMKslOlo6mkqnULkGBxEIovq3KwzpvafhAhXhHQKkSNwEIks7Lo212LMzY9BKSWdQhT2OIhEFtf/0kT8T8J90hlEYY+DSJa3dvs6VNZWSmeIGnzVL/HLK/9LOoMorHEQyfK+OfotJpZNQZ2/TjpF1AM33o/UrsnSGURhi4NItrDpu08wZ+1caK2lU8QoKDzWNwsJ7a6XTiEKSxxEso3ybWvw3DsvSGeIchtuTE7MRtcWXaVTiMIOB5Fs5fWvlmPZZ3+RzhAVExGDmcnT0KbpxdIpRGGFg0i287/vv4xVW73SGaJaxrTEnLRZiI+Kl04hChscRLIdDY156/Pw/p4PpFNEtY9thxnJ0xDljpJOIQoLHESyJZ/pw7TyHHx9eKt0iqgerboj+7ZxcCmXdAqR7XEQybaq6qox3jsR+058J50iqneHm/BI799JZxDZHgeRbO1w9WGMLRmHoyePSqeIur3bQAy97m7pDCJb4yCS7e2u2IPs0sk46TspnSJqeM97MPDydOkMItviIFJY+PLgV8hZMwt+7ZdOEaOgkNXnEdzcqa90CpEtcRApbLy96x088/bz0hmiDGVg/K1P4KqLrpROIbIdDiKFlRWbi7D44z9KZ4iKdHkwLWkKOsZ3kE4hshUOIoWdgo9eQdGWYukMUfGRcZiVkoMW0c2lU4hsg4NIYUdDI3fDM1i3Y710iqg2TdtgTuosNPE0kU4hsgUOIoUlU5uY+eZsfH7gC+kUUZc274yp/SchwhUhnUJkeRxECls1/lpMLJ2Mncd2SaeI6tnmOoy++TEoKOkUIkvjIFJYO1ZzHOO82ThcfUQ6RVTSpYm4NyFDOoPI0jiIFPb2ndiH7NJJqPZVS6eI+u+rh+CXV/5COoPIsjiI5AibD23BpLKp8Jk+6RRRD9zwP7itcz/pDCJL4iCSY3y49yM8uW4eNLR0ihilFMb1G4vr2/aSTiGyHA4iOUrZN6uxcOMi6QxRbsONKf0nomuLLtIpRJbCQSTH+dMnf8Zfv3hNOkNUTEQMZiZPx8VNL5JOIbIMDiI50ovvzceb29+SzhDVMqYlZibnIDYyVjqFyBI4iORIWmvMfuspfPLdp9Ipoi5p1gkzk6cj0h0pnUIkjoNIjlXrr0V22WR8c+Rb6RRRV7TugQm3joOh+HBAzsbvAHK0ytpKjPdmY3/lfukUUX079sao3r+TziASxUEkxztYdQjjvRNRUXtCOkXUnd1ux6+v+ZV0BpEYDiIRgG1Ht2Ny2VTU+mulU0SNvH4EBlyWJp1BJIKDSHTKpu8+Qc6aWTC1KZ0iRkEhs88o3Nj+BukUopDjIBKdZv3ODXjund9LZ4hyG25MSZyIK1r3kE4hCikOItFPvPHVciz99FXpDFGR7kjkJE9Dh7j20ilEIcNBJDqDP3ywACVbV0lniIqPjMOslBw0j24unUIUEhxEojPQ0Hh6/TN4f88H0imi2sa2xYzkqYh2R0unEAUdB5HoLHymD9PKc7Dl0NfSKaK6teyGaUmT4Tbc0ilEQcVBJDqHqrpqPOGdgN0Ve6RTRPVq2xOjb34UCko6hShoOIhE53Hs5DGMX5WNoyePSqeISu6ShBG9hklnEAUNB5GoHnZX7MGE0kk46TspnSLq/137a/ziiv+UziAKCg4iUT19dXAzpq+ZCb/2S6eIevDGB9DvklukM4gCjoNIdAHe2fUuntnwnHSGKKUUxvUbg2suvlo6hSigOIhEF2jFlpUo/HixdIYoj8uDnKSp6NL8UukUooDhIBI1QOFHi/H3L9+QzhDVxNMEM1Ny0LpJa+kUooDgIBI10Avvvoi1O9ZLZ4hqFdMSs1JyEOtpKp1C1GgcRKIGMrWJWW/Oxmf7P5dOEdW52SWYmjQZHpdHOoWoUTiIRI1Q46/FxLIp2Hlsl3SKqGsvvgZjb3kcSvGN+2RfHESiRjpecxzjvNk4XH1EOkXUbZ1vxaibHpLOIGowDiJRAOw7sQ9jV41DZW2ldIqoQd3vxJCr75LOIGoQDiJRgHx7ZBsmr56GOn+ddIqo+xPuRVrXVOkMogvGQSQKoI/2fYyn1s2D1lo6RYyCwqN9H8EN7RKkU4guCAeRKMDKvi3Hgo350hmi3IYbkxKzcXnLy6RTiOqNg0gUBP/36VL85fO/SWeIiomIxuyUGWgf1146haheOIhEQfLS+/+LNdveks4QFR8Vj1kpOWge1Uw6hei8+BHYREGitcactU+heXQzXHvxNdI5YtrFtkXbbndIZxCdF58hEgVRrb8W2aWTsfXwN9IpoviGfbIDDiJRkFXVVWF86UR8d2K/dAoRnQMHkSgEDlUdwvjSbFTUnpBOIaKz4CAShcj2ozswuWwqav210ilEdAYcRKIQ2vTdJ8hZMxOmNqVTiOgnOIhEIbZ+59t47p0XpDOI6Cc4iEQC3vjqH/i/T5dKZxDRaTiIREIWfJCP4q9XSWcQ0SkcRCIhGhq5G57B+3s+kE4hInAQiUT5TB+mledgy6GvpVOIHI+DSCSsqq4aT3gnYPfx3dIpRI7GQSSygGMnj2GcNxtHqo9IpxA5FgeRyCL2VOxFdtlkVPuqpVOIHImDSGQhXx3cjJw1M+HXfukUIsfhIBJZzDu73sNTa+dBQ0unEDkKB5HIgrzflKHwo8XSGUSOwkEksqhXPl6C1758XTqDyDE4iEQW9vt3X8La7eukM4gcgYNIZGGmNjHrrTn4dP9n0ilEYY+DSGRxNf5aTCqbip3HdkqnEIU1DiKRDRyvOY4xJeNwoOqgdApR2OIgEtnEgaqDGO/NxonaE9IpRGGJg0hkI98e2YbJq6ehzl8nnUIUdjiIRDbz8b5NeHLdXGjNN+4TBRIHkciGVn+7Bn/YuEA6gyiscBCJbGrpp6/iL5//VTqDKGxwEIls7KX3/oBVW0ulM4jCAgeRyMY0NOatz8XGvR9KpxDZHgeRyOZ8pg9TVk/H1sNbpVOIbI2DSBQGquqqML50Er47sV86hci2OIhEYeJQ1SGML81GRU2FdAqRLXEQicLI9qM7MN47ETW+GukUItvhIBKFmS8OfomcN2fB1KZ0CpGtcBCJwtCGnW/j2befl84gshUOIlGYWr55Bf70yZ+lM4hsg4NIFMYWblyElV+XSGcQ2QIHkSiMaWjkbXgW7+1+XzqFyPI4iERhzmf6MKV8Or448KV0CpGlcRCJHKDGV4Ps0knYdXy3dAqRZXEQiRziWM1xjPNm40j1EekUIkviIBI5yN6KvZhQOhnVvmrpFCLL4SASOczmQ5sxvXwm/NovnUJkKRxEIgd6d/d7eHLtPGho6RQiy+AgEjlU6TdlWPRhoXQGkWVwEIkcbMmmP+G1L/4unUFkCRxEIof7/XvzsXb7OukMInEcRCKHM7WJWW/Nwaf7P5NOIRLFQSQi1PhrMbFsCnYc2yGdQiSGg0hEAICKmgqMLRmPA5UHpFOIRHAQieifDlQdxDjvRJyoPSGdQhRyHEQi+pFtR7dh8uppqPPXSacQhRQHkYj+zcf7NmHO2rnQmm/cJ+fgIBLRGfZKZ/AAABIQSURBVJVvW4Pn3nlBOoMoZDiIDuEzfdIJDcZf3cl5/avlePXzv0pniPKZ/PpzCg6iQ5z0nZROaLDqOn4yg6T57/0Bq7aWSmeIqayrkk6gEOEgOkRFTYV0QoNV8BWPojQ0nt6Qhw/3fiSdIqKytlI6gUKEg+gQeyr2SCc02G5+yru4On8dJq+ehq2Ht0qnhNwufv05BgfRIbYf2ymd0CAaGjuP75LOIABVdVUYXzoJ353YL50SUjtt+r1DF46D6BB7ju/B0ZNHpTMu2Paj2/krKws5VHUIY0qewLGTx6RTQuLoyaPYW7FPOoNChIPoEBoam777RDrjgn2492PpBPqJ3RV7MKF0kq1fqFVfG/d+xA9RdhAOooOs37FBOuGCrd9pv2Yn+PLgV5j11pMwtSmdElQb+PXnKBxEB1m7Yz2qbPQWhoNVh/Dxvk3SGXQW63asxzNvPy+dETRVdVVYv/Nt6QwKIQ6ig5z0nUTpN/Z5P9mKzUVh/wzE7v6xeQWWbPqTdEZQrNpaihpfjXQGhRAH0WH+9MlSW1y1pqquCn/74jXpDKqHRR8WYuWWYumMgPKZPiz9bJl0BoUYB9Fh9lfux8qvS6QzzmvZZ3/hG/JtQkMjd8OzeHf3e9IpAbN88wrHvb2EOIiOtGBjvqVfNr+nYi/+/Cl/OrcTv/ZjevlMbD+6Qzql0Y5UH8GiDwulM0gAB9GBKmoq8Nw7v5fOOCNTm5i3Phe1/lrpFLpA1b5qTCmfhoNVh6RTGuWZd57nByQ7FAfRocq3rcHyzSukM/5N4ceL+cpSG9t5bBce+scofHtkm3RKg7z2xd+xdvs66QwSwkF0sBfefdFSF2xes+3NsH3FopMcqjqEx4rHWOprqz4+2LMRL73/B+kMEsRBdLAfLti8+dBm6RR8sGcjZq99ip/QHiaO1xzH2FXjUfjxYlv8N/3y4FeYWj7dFq/ApuDhIDpcVV0VHi9+QvSn+TXb3kJ22WR+EHCYMbWJwo8WI3Pl45Z+sc0HezZiTMkTtrpoBQWHSzqgMS79+WWjFdBEusPu6sw6lG9bg/jIOHRv1S1k96u1xh8/+T88+87z8Jv+kN0vhdaBygNYsaUItf5adG/VDRGuCOmkf3rty9fx5Nq5qOGLuAKl6tvXtj4lHdFQHEQC8P1P8+/sehfbj21HzzbXIcodFdT721+5H9PKZ6Boy8qg3g9Zg6lNfLL/U6zYXARDGejaogvchlus50j1EcxZNxevfvZXXg0psGw9iEo6oDGSFqXvV0Br6Y5wE+tpipHXj8DAywcE/EGrxl+Lv33+Nyze9CdHfFoCnVmspykGXj4Ag7rfgbaxbUN2vz7Th+WbV2DRh4V8a0UQaOBA2Yjii6Q7GoqDSGd1cdOL8KurhyClSzJiIqIbdVsVNRUo2lKMZZ//BUeqjwSokOxOQeHKi65E0qWJuKHd9Wgf1z4o91NVV4VVW0vx50+XYX8lr0ATLBxEQRzE0Ih0R+LmTn3Rt2Nv9GxzHZpFNavX3ztQdRAf7f0Ia3esxzu73uUr+Oi8WjdpjV5teqJX257o0aob2sa2bfBvKY5UH8FH+z7Ghp1vY92O9TwnDAEOoiAOYugpKLSLbYuO8R3RPq4dYj2xiI6Igqk1qn3VqKipwM5ju7Dr+C7sO/GddC7ZnEu50KbpxegQ3wGtY1ohNjIWsZ5YNPHE/OjPnfSdRHXdSVTUVmDX8d3YdWwX9lTs5Yf7hpjdB1HuVDsAFLATHMSQ0tDYXbEHuyv2SKeQA/i1n19vNnLqMdm2bP0+xKM1B3tDIRPAUekWIiIHO6G0muo5bvSVDmkMW//K9AfpL6e38Ln1ZEA9CJs/6yUishFTKSzRtb7RpfeX2v6MJCwG8Qdp+Wk9/Eo9DWCgdAsRUZhbbfqRtfre4o+lQwIlrAbxB0n5aYOUUrkAukq3EBGFmR0KmOgdURx2HxoZloMIAAnzEyKaRbV6EBpTAcRL9xAR2Vyl0mquDydnl2eUh+VVNcJ2EH+QXJDcEto1CVAPweaXqiMiEmAqhSU+0zWmPGPFPumYYAr7QfxBSmHKFdrvyoVCunQLEZEdaK3XuKAzV2WssteHWzaQYwbxB9+fLxp5gO4i3UJEZFE7FZDtHV78CpRzrm5g6/chNkRZRskbLWJirzj1/sXj0j1ERBZSqbSa6tc13bwjigudNIaAA58hni7xj4NauWprJvJ8kYgcTiuFxU44JzwXRw/iD5IWpl+vDOQCuFW6hYgoxN5V2njEm1H0tnSINA7iaU69f/EZAJdKtxARBdkuBUxw2jnhuTjuDPFcvj9fjOvB80UiCmNVSqupVTFxjjwnPBc+QzyL9FfS2/r8agqg7wN/cCAi+9NK4VUo/+PeYd4d0jFWxEE8j/6L0hIMqFwA/aRbiIga6D1t6syykSXrpUOsjINYT6fOF58F0Fm6hYiofvRuBTWe54T1w0G8AH2WDo6Orj4+SmlMABAr3UNEdBZVSuM5X5OanPIh5SekY+yCg9gAqQtS25ku12SeLxKRxWil8KpZ5xpddt+K7dIxdsNBbITUwtQb/KYrT0HfLN1CRE6n3jfhz1w9YtU66RK74iA2loZKWjTgLmXop6BxiXQOETnOHgU99ZZtfV+eMmWKKR1jZxzEABk0f1BMZVTtw0ojG0BT6R4iCne6Wmn1bLUZOWPdva9XSNeEAw5igCUV3NneQN0srTEU/PdLRMGx3K/Vw+UZK7dJh4QTPmAHSXL+gBth6Dxo9JVuIaLwoIAPtEZWaUbxW9It4YiDGEw/nC8qPRdAJ+kcIrItnhOGAAcxBAbNHxRT7akbo5U5BlDR0j1EZBu1gH7J43ZNLBpaxOsrBxkHMYQSFw/s4PabM3m+SET1sNxl6FElw0q+lQ5xCj4oC0gqSP+Z0sgD0Ee6hYgsZ6OGziobUfKmdIjTcBClaKiUgvR7NDAbQFvpHCISdxAKOS2i455fNmSZXzrGiTiIwtIK05qYfmO0VnosgCjpHiIKOZ4TWgQH0SLSFqZ1NF1qBs8XiRxluTL9j3hHer+RDiE+8FpOauHA20zTzAPQU7qFiILmc2WoR73DVhZLh9C/8JMaLGbVsKI1/bb1SVDAcAD7pHuIKKAOQSGzRUzctRxD6+EzRAvj+SJR2KgD9Iuqxpzk/Y33mHQMnRkH0QZSClM6QbtytMY90i1EdMGWaxiZZSOKtkqH0LlxEG0kuSC9P4BcaFwn3UJE5/WFVvqxsuElRdIhVD88Q7SR0uHFq/t92+f6U+eL30n3ENEZHT51TngNx9Be+AzRphKXJjZ1V0Y9rpV+AkCkdA8RfX9O6Ne1k8szyo9Kx9CF4yDaXGp+6uXaMGZojcHSLUQO5jWBzNUjij+TDqGG4yCGiaSFaUnKULkArpVuIXIMha9MUz26OmPlCukUajyeIYaJspElZf229el16nxxv3QPUZg7DIVMf6eaqzmG4YPPEMNQYn5iMzcin9AKmeD5IlEg1QEq3++JmFB+9xsHpWMosDiIYSy54PZuCv4cni8SBYTXZeiskmEln0qHUHBwEB0gddGAZBNmLqCukW4hsqHNUPqx0uEly6VDKLg4iA6RuDrR7d7uGWlC5SigtXQPkdUp4IipMKdldFzusiHLaqV7KPg4iA5zy5I7mkfV+sZqhSwAHukeIgvyAWqhx1TZRSOLDkjHUOhwEB2q/4IB3Q2XngvgTukWIqvQQKmhXVnejBWfSLdQ6HEQHS6lID1Fa+QBuEq6hUjQFq3VhLKMlcukQ0gOB5GQMD8honlkywwNNQNAK+keohA6qhVmRx4z8opGFdVIx5AsDiL9U/rL6S18bj0ZUA8CcEv3EAWRqRSWGEo/XjKshBeyIAAcRDqDtPy0HqaBeVqr26VbiAJOqTIAWaXDV26STiFr4SDSWZ06X3wGwJXSLUSNpYCvTa3G85yQzsYlHUDW9c1rW79pMbDZH6IiYg4B6A0gSrqJqAFOKK1mRVQYd696gM8K6ez4DJHq5bTzxYfAH6TIHkylsETX+kaX3l/KD9Sm8+Ig0gVJKUy5QpuupwEMkG4hOofVph9Zq+8t/lg6hOyDg0gNkpSfNkgplQugq3QL0Wl2KGCid0RxoXQI2Q8HkRosYX5CRLOoVg9CYyqAeOkecrRKpdVcH07OLs8oPykdQ/bEQaRGSy5IbgntmsTzRRJgKoUlPtM1pjxjxT7pGLI3DiIFTErBwF6m6c9VSt0m3ULhT2m8AxiZ3oyit6VbKDxwECngvj9fNPIA3UW6hcLSTgVke4cXvwIFLR1D4cOQDqDwU5ZR8kaLmNgroJAJ4Lh0D4WNSqXVVL+u6eYdUVzIMaRA4zNECqrEPw5q5aqtmcjzRWoErRQWuwyMLb6neK90DIUvDiKFRNLC9OuVgVwAt0q3kK28C6UyS4ev3CAdQuGPg0ghder9i88AuFS6hSxtlwIm8JyQQolniBRS358vxvXg+SKdRZXSampVTBzPCSnk+AyRxKQuSG1nulyTAX0f+MOZ02ml8CqU/3HvMO8O6RhyJg4iieu/KC3BgMoDcIt0C4l4T5s6s2xkyXrpEHI2DiJZxqnzxWcBdJZuoVDQuxXUeJ4TklVwEMlS+iwdHB1dfXyU0pgAIFa6h4KiSmk852tSk1M+pPyEdAzRDziIZElJBXe2V9o3ieeLYUUrhVd9phpTnrFym3QM0U9xEMnSUgtTb/CbrjwFfbN0CzWGel8ZyPIOW7lWuoTobDiIZH0aKmnRgLuUoZ+CxiXSOXRB9ijoqbds6/vylClTTOkYonPhIJJtDJo/KKYyqvZhpZENoKl0D52LrlZaPVttRs5Yd+/rFdI1RPXBQSTbSSq4s72BullaYyj4NWxFy12GHlUyrORb6RCiC8EHE7Kt5PwBN8LQedDoK91CgAI+0BpZpRnFb0m3EDUEB5Hs7YfzRaXnAugkneNQexX0lOYx8QuWDVnml44haigOIoWFQfMHxVR76sZoZY4BVLR0j0PUAvolj9s1sWhoEa9LS7bHQaSwkrh4YAe335zJ88WgW65M/yPekd5vpEOIAoUPGBSW+hem3WSYyANUb+mWMLNRQ2eVjSh5UzqEKNA4iBS+NFRKQfo9GpgDoI10js0dhEJOi+i453lOSOGKg0hhL60wrYnpN0ZrpccCiJLusZk6QL/Ic0JyAg4iOUbawrSOpkvN4PlivS3XMDLLRhRtlQ4hCgU+KJDjpOQPSNRK5wLoKd1iUV8oQ2V5h60slg4hCiV+igA5jjdjZXm/bX0SFDAcwHfSPRZyCAqZLWLiruEYkhPxGSI5Gs8XAZw6J1Q15iTvb7zHpGOIpHAQiQAkvpJ+mdvETK0xWLolxLwwjUdKRxZ9Lh1CJI2DSHSa5IL0/gByoXGddEswaeBLKP1o2fCSIukWIqvgGSLRaUqHF6/u922f68P4fPEwFDLNS2qu4RgS/RifIRKdRWJ+YjM3Ip/QCpkAIqV7GqkOUPl+T8SE8rvfOCgdQ2RFHESi80jNT71cG8YMG58vek0gc/WI4s+kQ4isjINIVE9JC9OSlKFyAVwr3VIvCl+Zpnp0dcbKFdIpRHbAM0SieiobWVLWb1ufXqfOF/dL95zDYShk+jvVXM0xJKo/PkMkaoBbltzRPKrWN9Zi54s+QC30mCq7aGTRAekYIrvhIBI1QnLB7d0U/DkWOF/0ugydVTKs5FPhDiLb4iASBUBKQXqKqZGrgKtDfNebofRjpcNLlof4fonCDgeRKEASVye63ds9I02oHAW0DuZ9KeCIqTCnZXRc7rIhy2qDeV9ETsFBJAqw084XswB4AnzzPCckChIOIlGQ9F8woLvh0vMA3BGI29NAqaFdWd6MFZ8E4vaI6Mc4iERBllKQnqI18gBc1cCb2KK1mlCWsXJZILuI6Mc4iEQhkDA/IaJ5ZMsMDTUDQKt6/rWjWmF25DEjr2hUUU0w+4iIg0gUUukvp7fwufVkQD0IwH2WP2YqhSWG0o+XDCux8gUAiMIKB5FIQFp+Wg/TwDyt1e0/+j+UKgOQVTp85SaZMiLn4iASCTp1vviMAjymVuN5TkhERI41eOlgz+ClgwP99gwiIiIiIiIiIiIiIiIiIiIiIiIiIiIiIiIiIiIiIiIiIiIiIiIiIiIiIiIiIiIiIiIiIiIiIiIiIiIiIiIiIiIiCon/D1QR0OroJ85zAAAAAElFTkSuQmCC;" vertex="1" parent="112">
                    <mxGeometry x="143" y="74" width="62" height="62" as="geometry"/>
                </mxCell>
                <mxCell id="109" value="" style="shape=image;verticalLabelPosition=bottom;labelBackgroundColor=#ffffff;verticalAlign=top;aspect=fixed;imageAspect=0;image=data:image/png,iVBORw0KGgoAAAANSUhEUgAABLAAAASwCAYAAADrIbPPAAAgAElEQVR4XuzdCZydZXk3/muWZJKQPZAQwppIAPe+7uKuWBf6vlr7WpTW16rt+3GltSrI39oqtkWrFkXRanGpWrW4tBZ8lUVUQNkUW5FFZJMQSELIvs2W/3Pf53kmhyFASCaZe2a+38/nyZk558w5Z86c50zu31zX9XRcHbE9AAAAAKBQncPPAAAAAICSCLAAAAAAKJoACwAAAICiCbAAAAAAKJoACwAAAICiCbAAAAAAKJoACwAAAICiCbAAAAAAKJoACwAAAICiCbAAAAAAKJoACwAAAICiCbAAAAAAKJoACwAAAICiCbAAAAAAKJoACwAAAICiCbAAAAAAKJoACwAAAICiCbAAAAAAKJoACwAAAICiCbAAAAAAKJoACwAAAICiCbAAAAAAKJoACwAAAICiCbAAAAAAKJoACwAAAICiCbAAAAAAKJoACwAAAICiCbAAAAAAKJoACwAAAICiCbAAAAAAKJoACwAAAICiCbAAAAAAKJoACwAAAICiCbAAAAAAKJoACwAAAICiCbAAAAAAKJoACwAAAICiCbAAAAAAKJoACwAAAICiCbAAAAAAKJoACwAAAICiCbAAAAAAKJoACwAAAICiCbAAAAAAKJoACwAAAICiCbAAAAAAKJoACwAAAICiCbAAAAAAKJoACwAAAICiCbAAAAAAKJoACwAAAICiCbAAAAAAKJoACwAAAICiCbAAAAAAKJoACwAAAICiCbAAAAAAKJoACwAAAICiCbAAAAAAKJoACwAAAICiCbAAAAAAKJoACwAAAICiCbAAAAAAKJoACwAAAICiCbAAAAAAKJoACwAAAICiCbAAAAAAKJoACwAAAICiCbAAAAAAKJoACwAAAICiCbAAAAAAKJoACwAAAICiCbAAAAAAKJoACwAAAICiCbAAAAAAKJoACwAAAICiCbAAAAAAKJoACwAAAICiCbAAAAAAKJoACwAAAICiCbAAAAAAKJoACwAAAICiCbAAAAAAKJoACwAAAICiCbAAAAAAKJoACwAAAICiCbAAAAAAKJoACwAAAICiCbAAAAAAKJoACwAAAICiCbAAAAAAKJoACwAAAICiCbAAAAAAKJoACwAAAICiCbAAAAAAKJoACwAAAICiCbAAAAAAKJoACwAAAICiCbAAAAAAKJoACwAAAICiCbAAAAAAKJoACwAAAICiCbAAAAAAKJoACwAAAICiCbAAAAAAKJoACwAAAICiCbAAAAAAKJoACwAAAICiCbAAAAAAKJoACwAAAICiCbAAAAAAKJoACwAAAICiCbAAAAAAKJoACwAAAICiCbAAAAAAKJoACwAAAICiCbAAAAAAKJoACwAAAICiCbAAAAAAKJoACwAAAICiCbAAAAAAKJoACwAAAICiCbAAAAAAKJoACwAAAICiCbAAAAAAKJoACwAAAICiCbAAAAAAKJoACwAAAICiCbAAAAAAKJoACwAAAICiCbAAAAAAKJoACwAAAICiCbAAAAAAKJoACwAAAICiCbAAAAAAKJoACwAAAICiCbAAAAAAKJoACwAAAICiCbAAAAAAKJoACwAAAICiCbAAAAAAKJoACwAAAICiCbAAAAAAKJoACwAAAICiCbAAAAAAKJoACwAAAICiCbAAAAAAKJoACwAAAICiCbAAAAAAKJoACwAAAICiCbAAAAAAKJoACwAAAICiCbAAAAAAKJoACwAAAICiCbAAAAAAKJoACwAAAICiCbAAAAAAKJoACwAAAICiCbAAAAAAKJoACwAAAICiCbAAAAAAKJoACwAAAICiCbAAAAAAKJoACwAAAICiCbAAAAAAKJoACwAAAICiCbAAAAAAKJoACwAAAICiCbAAAAAAKJoACwAAAICiCbAAAAAAKJoACwAAAICiCbAAAAAAKJoACwAAAICiCbAAAAAAKJoACwAAAICiCbAAAAAAKJoACwAAAICiCbAAAAAAKJoACwAAAICiCbAAAAAAKJoACwAAAICiCbAAAAAAKJoACwAAAICiCbAAAAAAKJoACwAAAICiCbAAAAAAKJoACwAAAICiCbAAAAAAKJoACwAAAICiCbAAAAAAKJoACwAAAICiCbAAAAAAKJoACwAAAICiCbAAAAAAKJoACwAAAICiCbAAAAAAKJoACwAAAICiCbAAAAAAKJoACwAAAICiCbAAAAAAKJoACwAAAICiCbAAAAAAKJoACwAAAICiCbAAAAAAKJoACwAAAICiCbAAAAAAKJoACwAAAICiCbAAAAAAKJoACwAAAICiCbAAAAAAKJoACwAAAICiCbAAAAAAKJoACwAAAICiCbAAAAAAKJoACwAAAICiCbAAAAAAKJoACwAAAICiCbAAAAAAKJoACwAAAICiCbAAAAAAKJoACwAAAICiCbAAAAAAKJoACwAAAICiCbAAAAAAKJoACwAAAICiCbAAAAAAKJoACwAAAICiCbAAAAAAKJoACwAAAICiCbAAAAAAKJoACwAAAICiCbAAAAAAKJoACwAAAICiCbAAAAAAKJoACwAAAICiCbAAAAAAKJoACwAAAICiCbAAAAAAKJoACwAAAICiCbAAAAAAKJoACwAAAICiCbAAAAAAKJoACwAAAICiCbAAAAAAKJoACwAAAICiCbAAAAAAKJoACwAAAICiCbAAAAAAKJoACwAAAICiCbAAAAAAKJoACwAAAICiCbAAAAAAKJoACwAAAICiCbAAAAAAKJoACwAAAICiCbAAAAAAKJoACwAAAICiCbAAAAAAKJoACwAAAICiCbAAAAAAKJoACwAAAICiCbAAAAAAKJoACwAAAICiCbAAAAAAKJoACwAAAICiCbAAAAAAKJoACwAAAICiCbAAAAAAKJoACwAAAICiCbAAAAAAKJoACwAAAICiCbAAAAAAKJoACwAAAICiCbAAAAAAKJoACwAAAICiCbAAAAAAKJoACwAAAICiCbAAAAAAKJoACwAAAICiCbAAAAAAKJoACwAAAICiCbAAAAAAKJoACwAAAICiCbAAAAAAKJoACwAAAICiCbAAAAAAKJoACwAAAICiCbAAAAAAKJoACwAAAICiCbAAAAAAKJoACwAAAICiCbAAAAAAKJoACwAAAICiCbAAAAAAKJoACwAAAICiCbAAAAAAKJoACwAAAICiCbAAAAAAKJoACwAAAICiCbAAAAAAKJoACwAAAICiCbAAAAAAKJoACwAAAICiCbAAAAAAKJoACwAAAICiCbAAAAAAKJoACwAAAICiCbAAAAAAKJoACwAAAICiCbAAAAAAKJoACwAAAICiCbAAAAAAKJoACwAAAICiCbAAAAAAKJoACwAAAICiCbAAAAAAKJoACwAAAICiCbAAAAAAKJoACwAAAICiCbAAAAAAKJoACwAAAICiCbAAAAAAKJoACwAAAICiCbAAAAAAKJoACwAAAICiCbAAAAAAKJoACwAAAICiCbAAAAAAKJoACwAAAICiCbAAAAAAKJoACwAAAICiCbAAAAAAKJoACwAAAICiCbAAAAAAKJoACwAAAICiCbAAAAAAKJoACwAAAICiCbAAAAAAKJoACwAAAICiCbAAAAAAKJoACwAAAICiCbAAAAAAKJoACwAAAICiCbAAAAAAKJoACwAAAICiCbAAAAAAKJoACwAAAICiCbAAAAAAKFrH1RHbh58JQIE6OoafU7btfr0AAAAjQ4AFAAAAQNEEWABjREdPT+uDMVLZtL2vb8w8VgAAoGwCLIDCdXR2xsDgYBz64Q/HrOOPj+3Vx+m8YqXQqqMjlv3FX8Sa//f/oqt6rOkxAwAA7C4BFkDhOrq6YmBgIBaedFIcfMYZwy8u1rJ3vjOWf/jD0d3dHdv7+4dfDAAAsMsK/hM+AO3WX3xxbO/tjRgYaG2pqqnALT/G6nTSQQe1/kIy1obPAwAAxRFgARQutwxWp7233RZbb7opoqurFQqlNsKCt8kHHZQfdw62AAAA9kDn8DMAKMz27dHZ1RW969fHlmuuaZ1VcihUV1x1z5/fmn+VqsVUYQEAAHtAgAUwFtQB0KYrrmh9mqqcCtVRP9ZJKcCaOdOgRQAAYI+VuwICYEjTRrjhxz9uVTSlACsd7a9ETQXWwoXRNWuWOVgAAMAeE2ABjAWpjbA62Xr99dF7661D5xUphVXVY+ueMydXYLXOEmABAAC7T4AFMBaksKqzMwb7+mLjj3/cOqvgOVj5sXV0xKQDDxx+EQAAwMMmwAIYI9Lcq4HqdOPll9dnlF/VNPnww4efBQAA8LAJsADGiFTVlN60N//sZzG4eXN0dHWV20ZY6znssOFnAQAAPGwCLICxIs3B6uiIzb/6VfTefvvQeSWbJMACAABGgAALYKzYvj23EQ5u25arsFpnlR1gqcACAABGggALYAxaf9FFw88qSnPUwe4DDoiu7u6hoe4AAAC7Q4AFMIY09Vabr7wytvf25oqsknXNmJFDrNIrxQAAgLKVvfIB4L4GByPVMW27/fbYct11raqmVN1UmrraqmvWrOhesKAVvKnAAgAAdpMAC2AsSYPcu7qib9Om2HLNNa2zSgywkvRY99svJtUBVunVYgAAQLmsJoCR1dERHV1d1buLt5e9pq5k2vjTn7Y+Tc93aarHuH1gIJ82ARYAAMDussIERkYdXKVZR/0DAzGYWt20jO0VqeIqvXlv/NGPYntfXyvQKnjG1KRFi3LbY8mPEQAAKJsAC9gzTcVVHVx17bdfHPK+98WCP/3T6K/OK7I6aKyr52Btvfnm2PbrX7fOKzEcqgPMyQcfnH/ZFNvqCAAAFE+ABey29uCqY8qUWPBnfxbH/PznsfC9741Dzjor5rzkJa3LuruHfyl7qrMzBqvndsOPf5w/LTkcmnzIIa0PSgzZAACAMUGABTxsObjq6Mjh1Pbu7tj/1a+OYy6/PA77p3+KKUuXxvb+/nydI774xZj+uMfFQPV5qMQaUWkgeoqsNlXPe+uM8to1mxbSSYceGp1NiFng4wQAAMonwAJ2XWdnDk5ycLV9e8w5/vg46qKLYvFXvhJTH/e41tDu1N7W3Z0v795//1jy9a/H5IULc7WQwe4jp5mDtflnP4vBDRtaoWJpVVjtLYQ9PQa5j6T03AoDAQCYQKwmgYeWgqeurjyYfaDaZj3rWXHkf/5n3mZUH+fgJAVXbUcfTEFXCrR6jjoqlvzrv0bXtGk51LLoHiHVc9lZPZdbbrwxtt566/BLi9I5fXp0z58//Gz2QN6X0ow5oTAAABOE//kCDyxVXDXB1cBATH/842PJV78aSy+6KGYdf3xeQOeqq7SI3slCOh+VsL8/pj/nOXH4pz/dWnSn6wmx9lwdXgxWz+/mK6+szyqsxqn+OXdOnpzbCPOj87PfM9Xzl57HyQsWROe0aTlQblp6AQBgPLv/ihOgPrJgalNL7YJTjzoqFn/mM3H05ZfH3BNOaLUIpuCqvt6Dydft74+5f/zHcfD73peDsIf6Gh6eDT/4wfCzylFX3aU2whS8NHOx2D1pf6r2vJj9+78fSy++OKY99rFDLb32KwAAxjMBFrBDCqTq+VVpUTz50EPjsA9/OB551VWx/5/+aXSkOUYpuHqYi+UchlVfl45OOP+1r41+Q91HRFNxtfnqq2Nw06bcxrm9ry8HhsVsvb35dNJBB7UetABrRKTndb8nPzmOueSSOPg974nOqVNzOJz3K88xAADjkAAL2FFJlYKr/v7oPuCAWFQtio+54opY8Jd/GZ0zZtw3uHq4C+R0+6l1cHAwH6lw9vOfv2Oxze5Lc7Cqk23LlsW2226LjkmTWlt3dzlbT08+nfaYx2ghHEmplbDah9J8sYNOOy2O+uEPY+aznpX3K9VYAACMRx1XhwNDwYRVB0tpIZzakrqnTo0D3vCGmP+2t0XPIx6Rr5KqZ3YrtNqJ1JKYj2K4alXc+JznxObrrouudP+lHT1vLKl+LoPbW0eEnPKoR0U0M8lKUc8923r99bH2O98ZCjLZPSmg7OvriwOr/fSwz342V2KlIDhXOVbnr/z4x2P5+98ffevXV2e3QmnPNwAA44EACyaoHFxVi9uBaksL3XknnhgL3vnOmProR+fLU6iV5xWNcBiSb7e6vy2/+lX8+jnPib577qnuQoi1p9KzV/KbeYo/R/aVNDHdL8CqPk7n5ZCq3le3XHtt3HnKKbHmvPNaz3t3aw4dAACMZdYTMME01VT9aV5S9fm8l788jv7JT+LwL36xFV6lCp7myGYjHF4lzTysqY96VBzxpS/l9rIcvOyF+5pIUgjYXT23eaue02K2+jGlx8delJ7f7a2jgqb9+BHnnhtHfPazMWnBgtbMub0QRgMAwL7kf7MwUVSL1xQeNTNyZh93XBx1wQWx5FvfysOgm+Aqz6XaywvdHI5Vi+qZL3pRHHbWWdXdDo5Ii+KElgLJ9LNN2/BB6qO51Y9JG9s+0MyyS891tY/v/4Y3xDGXXx4HnHhi3ufTfjZS7cAAALCv7d1VKjD66kVtWrym8Gr6U58aS845J5aef37MeP7zW4vdfRRc3Ue6v+rxpKMbLjr11PzYDJ6GEVDvxyk4nHz44XHEl78cS77xjZi6dGk+umg+GMO+3NcBAGAE+B8sjFd1cJUqL9KiddojHxlHfO5zcdTFF8ecP/iDfJVcGZMWsqOxmE1VIHU74UF/+7dxwKtfnR9nailklDXtZnXVXt66d3KEwfqyoddQs6Wvb9/aL2tub1dvU7XQ7mmvxqq2Oa94RRzz05/GwpNOiqie5wHVWAAAjDGGuMM41Qz1nnrYYbHg7W+P/V/3uuicPj1f1gxSL0LdPji4cWPc9JKXxPpLL81D5XO4xshpgor6NA/o34k0TD+Fnvnj5rxhp0n7V+/8lh5Y++00Hze3Mfx28+cpjHmAkDV/ff1482nz8Tj1gEPcH0L7Pr/hBz+IZSefHBuuvjr/FavT/gYAwBggwILxplrsp526Z/HimPea18T8t7wluufOzRflRWyJVS0pxKoeV++yZfnIhFtuvjm6Oh2ZcLe0BVU5pKo/z/Oo0umOa+5UCjS6Zs2Krpkz89Y5Y0YOPrumTYvO/faLzqlTo6Pa0mnnlCnRkbbJk6Oz2vJ9Vqe5iq4tSNq+bVsrGOvra23V54Nbt+Zt+5YtMZi2zZtbp5s2xcCGDTnQHEjbunX59KEe91DYVVeNNWFWDuPaA64xbncDrKwOJ3NlZvVc33X66XH3hz8c/dVzn0LjZnYWAACUSIAF40xanKZ5Uove85446LTT8nnFBlftUgVI9dg3X3NN/Pr5z4/+NWtaj1mI9cBSWFOHVDmoqatomqCq2dJPPdXedM2ePRROTTrwwJh88MExadGi1rZwYUyaP78VWNVB1VBI1dMzdJd7XfXzHgq30mkTbm3YEH0rVkTv8uXRf+ed+bSvOu1btSpflsOutWtjoLc3Vx8OBVrDPs7PWXpdtYdbYyi02aMAq9ZejbXpqqti2TvfGet+9CPVWAAAFE2ABeNNHWh0TJsWj/jmN2PmC19YVsvgg6lDrLXf+U7cnOZ0pc/HWMCwVzSVVOnnWp+Vwpdc1RStdtEcPqSrTp6cK+56jjwyeh7xiOhZsiQmH3poTF60KLoPPDAmLVgQ3fPmDd30LqvvbyhQfKAwdGfnP9DPrzk/fV/ts7MephRg9d9zT/TdfXcr2Lrrrui99dbYdvvt0Zu2226LgfXrY7C3d+j5akKt/Jy17Rv5ERUcbI1EgJWln2c9cy5V5636+Mdj+Qc+EL1r1rSqsdL3LjwGAKAgAiwYjzo6YrBagPYsWhRHX3JJTD7iiKE2vdKlxXRaVK8688y47W1vyxUhE661qQ5xmlBnZ+1/6RoplJqSAqrFi2PK0UfH1Ec+Mnqq03R+qp56wDCoCaN24j6zsYZ//fDPR9rwn3H9+VCotBMPVVmYQppUyZXaU7feeGPett10UyvYqrf+6vJ2TbjVHFAgP1eFBFojFmA10vdWB4dbr78+lr3rXbHm3HNb4V4dbgEAQAkEWDBONa2EM489No688MKhGUUPttgvRVMxtuwv/zKWf/Sj0T0RFtJ1a1tT5ZTemFPElE5TjDLpoINyJdXUxz8+pj/pSTHlcY+Lyantb8GCXLW2U01QlYKXVOXU/PzHwGvgYanDpfZ5VznYeojAtv/ee1uVW3femVtXN//85znESRVcqZqrv7qtoTCr2dJznULFUQq1RjzAqrVXad5z9tmx/D3via3Vc5DP0coLAEABBFgwntUh1oJmsVtXNxWvDiNSYHDLCSfEPeecM75CrDpEaqqdUhiSKubSm3FT+ZLmU01/2tNivyc/OaY88pEx9VGPyrOqdmboeUm32YQ24y2k2l1NwDQ84HqQ/aD3jjti229+k7ctv/pVbLryyth67bWt4fLR+qWZf07ptA599tU8rfYA69BPfzoi7dMjNaOsrRorVaalEOueL385f7/5yKATrRISAICiCLBgPEuBRgqxqkXuYR/7WMx/29vGzjysejGdZhfd9KIXxYbLL28tosfqgOkmtKqrrJr5Vfmiapt6zDEx7QlPiOlPfnJMf9azoueoo/IA9ftIX9MWIIzbiqp9YXiwVdtpS2L1vKdqrc2/+EVsvvLK2PzLX+ZKra2/+lXetxo51NrLFVpDAdbrXheHnX12Pi8H0/X97rH0fFSPvXmPWPPtb8ed7353bL7xxlyNNVQlCAAA+5gAC8a7JuCoFp5Lv/e9mPH854+ZeVjNUPc0kPvG5z0vtt1229g6SlpbRVSexVSdpkeegoBUYTX10Y+OWS9+cUx/xjOiZ/HifJTA+0hhQvpe0+3UP0P2gSYorLYHakUcXL8+D4zf8t//Het/8IMcbOWZWvfeOzRUP8VJ6eeWwqD7DMDfEykcq07S0SQPeMMbYv5JJ+XXUjKiRxttq8YaqL6nNOB95ZlnxmB/v2osAABGhQALJoC0qB2sFpxpZtJRl10WPWNpqHtdMbbpiivi1y98YW7jysvzUhfPTdiUgobqsTdRW1r0T1m6NGYdf3xMP/bY2O+pT23Nr2qTw6omNGmCR0Zfe7VWHezsrIoxDYhPgdamn/0sNv74x7Hlv/4rBjZvHjrq4Ui2HKavSrfbc+CBMf9Nb4oD3vKW6J4zp3XZCAZZ7RWbG374wzzkfcNVV7WOejmWwmQAAMY8ARZMEGkR2l8tNmc9/elx5Pnn7zhK3Qgscve2ZhG99lvfit+88pW5MiuHRLu5+N8rOltD2FOFSnpUaeueNCm3A86otlkvfWlMfcxjoiMN0681i3+tgGNQHT417Yf3C4wGB6P3zjtz6LPxkkti89VX50Hx6SfeXKuzDsJ2q90wfW16vVWvoRRkTT300Fjw9rfH/q97XXTOmJGvMmLtwnVFWn6sW7bEXf/wD3H3Bz8Y/Zs352B2wh0lFACAUSHAggkkDa7u7+/fMdR9pBa4+0AzgH7lGWfEHaecEtHXNzItWXsihVZ1pVV6JGmbPHNm7Pc7vxOzf//3Y+YLXpAHsLdrWslGbGYR5UhBT13ZODRMv7lo06boveWW2PCTn8T6730vz9NKLbEp0MrVTOlK9dc1lXi7ZFiQtd/RR8eCd7wj5p544tAMtZHaz9tvJwVyd5x8cqz7wQ9alWWlBcoAAIw7AiyYaLpaRyY8vBnqPhaOTNgEVWmhvnVr3Pi0p8XGX/xidIa6N6FVtVhPbZnpDbQrVVo96Ukx+xWviJnHHZcrrdrl51hb4MRShzlNddXwfSzNldr4k5/ExksvjXXf/W5sueGGGOzry6+npj0vf326nV0JausgK+3byfSnPCUOfMc7Ys4f/EHr8rZ9aI+kqrMUZKXvpzpd8fGPt6qxVq4UYAEAsFcJsGCiSQFKWsRWC+Qjzz03By4jVaEx4prFe/3Y1nz963mY9NZqsZ8HvO/DBXMTQKVKl+Zepz3mMTH7pS+NOSeckD8eCgealiutgTTqFsGhlsO2/W17X1+en7XuvPNi42WX5ZbD3rVrW0PgI72sWq+9XRqcXgesTZA16wUviIXvelfMqPbzbKSCrLbbSY/7puOPV4UFAMBeJcCCiSi1KVUL0HT0sqN+9KN8BLyihrqnhX7TZlfZdPnlsfyv/zrWnn9+/nyfPcqm2qpuz0pvllMOOihmPve5Mfc1r8mD2Ltmzhy6eg4Cm4AQHkxdybSzdsN01M1UnbXmG9+ITVdfHduWLRuqzMqhVnf3Qx7VsJmtNVDdT/q62f/rf8XCU07Jr9lsT4OsOozbvm1b/OZ//s9Yd+GF0VW/rwAAwN4gwIIJamio+7HH5qHuHVOm7KgYGi3Dgqtt1UJ+xemnx6qzz84VJWmBnO3NRXLdipWk+0xvkGkY+4znPCfm/OEfxqwXvzgmHXTQ0NWH2gN3NwiApjqree237YN9d9+dj2i47oILYv13vxu9y5fnMDW92nalzTDP1EpBVvVx2n/mvupVseCd74xpj3tcvnx3Q9em9XjZX/xF3HnGGTFpNNp5AQCYUARYMJHV87CGhrqnRemwBfQ+kxbgdYA2sGFDrPrEJ2LFRz4S21avjrRMzxUle3OBnIKr6j7ajyI47RGPiNkve1nM+6M/iqn1gj8ZOnpgWvSPxnPF+PUgrYaD1X6RKp3Wfec7sf6ii2LbHXe0rhNtYVbaj4a38dWhbHrdpldud09P7P/618f8k06KKUuXtr7uYez7TcvxvV/7Wtz8qle1ZtHt7H4BAGAECbBggktVFAPV4vWw0Rrq3t7KVC2A11SL4jTnatN11w1VmezNxXEOxurql/RIuqdNixnHHhvzXve6fBTB7v33H7quaiv2ubrVcHi4lCqzNv30p3HvV7+a2w233nlnPj+3Gaa2xLr1dbjcfli9jtMlk+fNi/3/7M9iwVvfGpMWLsyX5/t6sGA27YvV5WkO3Q3VftK/Zk0O0PbW/gkAAA0BFkx0TdvgpEmx9LzzYi6ZA28AACAASURBVMbzn79vhroPaxdMR2O76/3vj7UXXJA/36tVHU1FSnXbA+kxVGf1HHJIrrSa84pXxLQnPGHoqkIrilHvM0n7/pnCrA0XXRRrvvnNWP/970f/5s2to2O2vc6byq7WF7fOTwckSLfWc/DBseDNb44D3vjG6Jo1K19lp0HWYOvgBNu3bIlfv+AFseGKK0bnSKAAAExIAiwghzOD1eK0Z9GiOPqSS2LyEUfs1aHu7QHZtptvjrs/9KG455//OYdJe3XO1bA2wbQ0n/HsZ8e8E0+MOa985dDifegogsMX8FCK+jWatIdZvbfdFmvOOSfWfve7sfGHP8yVVrnFsKnKag+FhwVZ05YsiQVvf3vMe+1ro3PatHyV9n21qc787ZvfHHefdVZ019VcAACwLwiwgCwtUtM8rJlpqPuFF0bn5Mk7qrNGSPtieGDdulhVLYJX/OM/xrZVq/bqnKv2NsF06z1z58asF70ot0/NeMYz8iywJN93vaiHMaNpM2xv/a1e65uvuSbW/Nu/xdr/+I/YcuON9x/+3uxr9Ws+7f/Jfo9+dB70PvcP/zA6enpat9/XFx3Ve8LqL30pbnnNa1q3sRf2VQAAeCACLGCHOsS6z1D3kZiH1VQ01QvnNPz5rr//+9j03/+9Y87VSC+GU/CWgqjqflN1WTLl8MNj/9e+NuaccEJMOeqooavutF0KxqKdhFmDW7fm1sI1X/96rD333OjfsCGfP1SVlSqy0j4yLMia8fSnx4J3vCPmvPzl+fMt1f56wzOfmQ+yYO4VAAD7mgAL2KFusbvPUPe2qqmHbdhiOg2bXn7aabHue9/Ln++VOVfN3J+BVltUMv3JT87B1dw/+qPomjEjn9cEZoIrxqV65lV7cJz03n57DpDX/vu/x8bLLx9qpe1M7YDNvlhXXqbWwmT27/5uzH/zm+Ouat9df9VV0b03AmcAAHgIAizgvpq2wc7OWPq97+Wh7rszD6s9+EqL5rtOPz3u+fznY2DbttZw6VT5MZJzrtqCq7S0TuHYzOc+Nw54y1ti5gtfGJ1Tp+ar5cfVVGfBRNAEyWl/rMPa7dV+uOmKK+KeL3wh1n33u7FtxYpWkFVt+UiFdVViEwQ3EW/ed0YycAYAgF0kwALuJw92HhyMyQsXxlGXXRY9D2eoe92KlCs4Nm+OlWeeGXd/9KPRu3Jla85VWhTvheCqGUTdPXlyzPnDP4wDXv/6mP7sZw9dTZsgxP2qIpMUMK/51rfi3n/5l9j0i1/k/WhoJl2q4GoPm4VXAACMEgEWsFNp8dpfLXRnPf3pceT557cqmJrqrJ1p5ujUVVdpeHRqF9x07bU75lyNZLtgCq66WkcUTEvrSTNmxLxXvSoOePObY+pjH9u6TjN7S3AF91W3F6bToaMM9vXF+gsuiNX/8i+x7rzzom/jxlx5laoZ8+Ujuf8CAMDDJMACHlCq0ujv798x1H1n87DSQrha2Dbnb7r88lj+138da88/P38+4nOuhlVc9cyfH3Pr4GrKkUe2rjPsMQEPogl62/aXbTfdFKu//OW4t9q23HJLPi+3F470/gwAALtIgAU8uK7WkQkPb4a6N0cmHBYSbbv11lhx+umx6uyz8/W7mnbDkWoX3ElwldoE573hDdGzeHG+ivlWsGeG70MD69bF2m99K1Z97nOx8dJL79deOGL7NwAAPAQBFvDgmsVstWA98txzY+Zxx+VWo45Jk/LFAxs2xKpPfCJWfOQjsW316h2L24EROkrZsFbBNJdr/hveEAe88Y0xqfo4Gb7oBvbQ8Kqs6vP1F18cq88+Ox/BsG/LllZrcHP0QkEWAAB7mQALeGj14PXJBx8cR/3wh9GzZElesN779a/HXR/4QGy67rqRn3M1vOJqwYKY97rXxYI3vSkmVY8jEVzBXraTdtytN94Y93z2s3Hv174WW++8s9VaWO2Dedj7SAXXAAAwjAAL2CXNUPfZz352HPjud8eKj35078y5qoOrtBBOS+HJs2fH/m94Q8x/05ticjoaYtTBlcHssG81VVZ1YNy3fHnc+9WvxqrPfCa2/PrX+T8TuXU47Zcj9X4AAAA1ARaw61KFRWorqj5MS9nOEZ5z1bQepuCqe/r0PONq/p//efQcfni+XMUVFGBYe+Hgli05yFr9+c/H+ksvzecNDXxXkQUAwAgRYAEPTwqQ6sXrSC1O24Orrp6emHfCCXHgySfHlGOOaV0h3Y/gCsoyrL0wzcZbf/75sfJjH4v1F14YA9XlQzPxVGQBALCHBFjA6KkDqcG0CK5OZ7/sZbHwne+M/Z7+9Hy+VkEYA3YyJ2vDxRfHyk99KtZ9+9vR398vyAIAYI8JsIB9rz6y4EC1sE1mPetZseCUU2LWi1+cP9cqCGNQE2S17bubrrwyVn3yk3HvOedEf3PkQkEWAAC7QYAF7DvDjiy439KlceCpp8a8E0+M6O7eaSUHMPYMr57c8qtfxcozzshBVt+6dSqyAAB42ARYwD7RPudq8ty5ceBf/EUc8Ja3RNfs2fnyvOAVXMH4kga+Vyc5zKpsufbaWHXWWbH6i1+Mvs2bVWQBALDLBFjA3pUqMKptoFqgdnV3x/6vfW0c+O53R8/ixfni4ZUawDg07MiFW3/961h15plxz7/8S/StXy/IAgDgIQmwgL2jrV0wvcnMOu64OOh974vpT3tavlhwBRNQCqiSuiJr229+EyvOOCNWf/nLWgsBAHhQAixgxLW3C05dsiQO+qu/inn/5/+0LkwL07oqC5ighlVkpdbClZ/4RKz+wheif9s2QRYAAPcjwAJGTlu7YPfUqTH/zW+OA08+Obr337+1CE2bIwsCjeFB1i9/GSs++tG491//Nfp7e3cEWQMpDgcAYCITYAEjIi0ym3bBOS99aW4XnPaEJ+TLDGgHHtSw1sLN11wTd3/oQ7HmG9+Igf7+6KpbkgVZAAATlwAL2CN5Ubl9ewxU29QjjohFp50Wc088MV9mzhXwsDQtg3XgvfGSS+KuD34w1p13Xv7PSmdTwdkEXgAATBgCLGD3pIqIapGZqiM6q48PeOMbY+F73xuTFizQLgjsmWEVWWv/8z9jxYc+FOsvvTR/3mU+FgDAhCPAAh62pl0wLTFnPPGJcfDpp8eM5z8/X7a9vz86urvv+wUAu6G9inN7X1+sOeecuLt6v9n4y19GirY6BVkAABOGAAvYddVCsqNaSPZXi8pJ06fHwne/O+b/+Z9H57RpEWk2jXZBYC9on6M3uHlz3PPP/xx3/8M/xNZlywRZAAAThAAL2CXtQ9pnH3dcHFwtHqc+7nGtC1N4ZUg7sDdt355DqibI6l+5MlZ87GOx8lOfir41a1pHLEwz+czHAgAYlwRYwINLFVXVonBgYCAmz5mT51zNf+tbW4tIVVfAvjYsyNp2881x19//faz+0pdioLc3H7EwvycJsgAAxhUBFvCA2mddzfm934tDPvjBmHLMMa0L0+LQkHZgtAwLsjZedlnc9YEPxNrvfS9/nge9p5ZCQRYAwLggwALur73qasGCWPT+98cBf/Zn+aL2ocoAo25wMAdVTZB179e+Fnf93d/FpvZB76laFACAMU2ABdxHe9XV3OOPj0POOCN6lixpDUdOm6oroEDtg94H1q2LVZ/+dKz46Edj28qVrflYgiwAgDFNgAW0dHTkyqrmCIMHnXZaLDjppHz+9v7+6OjuHv4VAMVpD7K23XJL3P33fx/3nH12DG7frq0QAGAME2ABraqqakGXahNmHXtsHPKxj8W0JzxB1RUwNg2bj7Xh4otj+d/8Taz/8Y8jNT93dne3qrHS+xsAAGOCAAsmuLTAS7OuOnt6YuEpp8TCd787OqqP26sYAMakptKqszNXkq7+4hfj7tNOi823366tEABgjBFgwURVLeg6Ojpyy+B+j3lMHPbJT8b0Zz6zdZkjDALjSdt7Wv+KFXH3P/xDrPz4x2Ogry8Pec+VWNoKAQCKJsCCCagZ1J52/gP+5E/ikGox1zVvniMMAuPXsLbCTVdeGcvf855Ye8EF2goBAMYAARZMMGnxlqquJs+eHQd/+MOx/+tfn8/XMghMCE21VV15tfoLX4jl73tfbNFWCABQNAEWTBR1+8xAtXCb9dzn5pbBKccc01rIpYorVVfARNLWVtiX2gpPPz1WnXlmngnoaIUAAOURYMEE0LQMJgtPPjkO+sAHoqNul1F1BUxYw9oKN156adx5yimx/rLLdrQV9vff92sAABgVAiwY54ZaBvffPw4766yY87//d+uCFGgJrwBabYVpS0cr7OuLVdV75V1/+7exbdWq6GoqVFVjAQCMKgEWjFfDWwb/6Z9iypFHtoIrg9phzzXDvtuGfue2s30sHU207ZP7nvLwtLUVbrvlllj+3vfG6q98Jf9HKbcVpstH4WcMAIAAC8aldCTBwWqhlXbuhW9/eyw6/fTomDRJ1RU8XG0hVQ6n2ip1im6/Tft/2t/b5tvloEvA9dCGtRWu/fd/j2Wnnhqbr7++NeQ9VWmpxgIA2OcEWDDOpEVXGkI8adasOPSss2Luq1/dWnA3R90C7i8FPk041dGRQ4pdCXkGN2+OwU2bWqdp27IlBjZsiIF162Iwna5fnz9Op+ny6O+PwW3bcpva9t7e1lbPWEohc8fkyTseQ09P/rxrv/2is9mmTctb18yZ0T1vXnTNnh2dU6fmrWPKlNZl1fV2aV+vg5qh+2sCrl34vieEtgNcDKxZE3f93d/FijPPzD8/1VgAAPueAAvGi7QATfOuqsXw9Cc+MRZ//vMx5dGPbg1q38XFOIx7dUjV3ur3gPvH4GAOK/pXrYre226L3mXL8tZXbf333BP9q1fnLYUbKaTqX7t26GAJ+1IKUzpnzoyuGTNawdbcudG9//7RVW2TFiyISQsXtk4POSR6Dj88OqvrdU6ZMvxmhuTKrTYTPdhqP9jFpssuiztOPjkPeU+Nhp0pyBqFnzkAwEQkwKJMaaHkL9u7Li3A02K7+nD/V70qDv3kJ6Nrzhwtg0xs9XtIUymTg6p6vtFwvbffHttSSPXb30bvrbfGtptuiq0335w/HkjBVKqaSsFXdd2meSzFOc3WfJ5bC/dh0JODuLpdOH/edpq29seYwpZU1dU9f34OsiYfdlhMrk7zx4ceGpMPOSSfl6vAdiIHNe0Vask+/F5HVV2tloKsVDG34iMfyRVZfevX5wAxV2v5nQUAsFcJsChWXij4y/ZDSs9Tqvro6O6ORaedFgeecko+v71qACaMFOakoOEBwqoURvXddVdsu/nm2Pzzn8fma66Jbb/5Ta6yylVV1X4zPPhJ8mldhTQU3tSBVlPV1Zy3zzUhUn16n1lXTbVZPbNpeMDVfK/pnSJVbaW2xEkHHRRTjj46pj760TH1sY+NSYsW5Qqu1J54P+n261lb+X538pyPJ+3vq1v++7/jjne8I9ZecIFqLACAfUCARTmaRVe10EoLpf7Nm6u1UL0YMjB3p5p5V5OrBefhn/1szHrJS1oX1FUSMK7VwVHTDji8FTCFCSmU2nzVVbHpyitj63XXxdYbboitN94YA/XcqcZQYNXd3Tqjud3RDKYeSF3lNdQGOfz0gbS/JzSBU31eqipqAq3h0jy9nkc8Im/pSKZTH/e42O+JT8xB1/2qtZpZYpFuur798fZelF4bdTVW+n5XfvKTsfyv/zp616xpVWO1BYYAAIwcARZlSIupalGWqh8WnXpqzDvxxLjz5JNj9bnntv6yXS0qm0HH1Orwasb/+B9xxJe+FFMe+cj8HOVF1XhbMEKjCa2aAGHYa33r9dfHlv/6r9h09dWx8ZJLYst118Xgxo3R1MWka6f3lPbqxPsEQQ8VAhWgPRppvvsUFg19T8PDt/q8B9UWNLW3QOa2ybpFsbmF9Px1TZmS2w2nPfGJMe0JT4ipRx+dZ+6lNsTh8nt3/R6fjZf3pxRS1c9bet3d+a537fidpRoLAGDECbAoQqp6SMPHF/zJn8RhZ589tMBZ/YUvxPL/7/+LLcuXR1ezwJrof9lOz0G1EEzh1f4nnBCHf+YzeShzDq+a6hEYT1KIklq3dtIWmIarb7n22lj//e/Hxssui2233hq9a9fmX2w5qGq2OuwaOnLcQwU6hUrfx4znPS8fvbBv5crcEpmPcrh5831CumZrPs9S5VZ7+2PzPDzUc9GET+m9pw608mm0wrR0mqKzyQsX5pla+z31qTHj2c+OqY98ZJ6tleZutWtmae0sgByLhtoKq+9p1ac+Fcv/6q9i2733mo0FADDCBFiMuia8mvt7vxeLzzknOlNLSvpPf71g6r3jjlj+N38T93zuc62FUvrL9gRdFKRF5GAd4C089dRY9IEPtBaAzfMF40V7K1p7tVRvb549tO5734uNP/1pbKq2vjVrhi5PcUiqfhkPYdV91OFRatk7+vLLY9rv/M5QiNV/993RV2/p/TINpM/D6G+7LV++fevWPCcvPQvNM9EebqX3leGD5/P12p+74c9h/QeFpk0whTjNkPtG97RpeYbWtNRy+IxnxIxnPSsmHXzwjhAtqX/OY77dsL0a68YbY9m73hX3fuc7qrEAAEaQAIvR1dUaQD7z2GPjEeedF12zZu0IY+q/9DeL13XnnhvL3v3u2HTttfmv/WkRlBeoE0QzrL1r5sw47BOfiLl//Mc7qtGEV4wHTXVPtF7vjYH162Pjj38cG370o/w+sPWmm3IFYtIEBMkuVxSNRW0B1tKLLor9nva01tltz9N9pOeytzcGNmxohVnNlo60eNdd0V9tTejVt27d8K8ekgOu/EHr/h9Qe6BVS6FNU6GV2w6nTs2BVqog2+9JT8qVWpMWLhy6fv6a9nbDsRZmDfudteozn4k7/+qvonflStVYAAAjQIDF6KmriaY96lGx9MILY9KBB+68kqhZkFbnp1aZu04/PVaccUYMbN0a3SnEGq8L1jZpQZTmg0055JBY/JWvxPRnPrNa1Q8MVanBWNZUp7SHMf3Von/TVVfFmn/7t9hw6aWx7ZZbcotcDq/brjthqjHbA6yLL47pT396q214+HvgroY/1fPW37QfVqe9y5ZFb/Ucb0sBV3WaPh9Ys6Z1ebXlI50Ov42H0vZY2iu0UqiV3uV7Fi3KRzpMB5+Y8Zzn5CHx9znSYbr+A7SOFq2tGisd4fKOP//zuPe881RjAQDsIQEWo6MOr3oOOyyOuvDCvHBpPzz5zrRfvumKK+KOk0+O9T/60fheFKRFUPW9pSOmzXjSk2Lx174WPYsXm3fF2Ne0jrWFLdu3bIn1P/xhrP3mN2P9RRfF1ttuG7p6ZwpD2vfziRBatdtZgPUQ75lDz1EKgpqQq/5jwIN+XS0FV33Ll0ffqlWx6swzY/U3vhFde1L5Woc6TfVs+3D49GjSQPj9nvzkmPXiF+d2w86ZM4e+dCjkrG/jIQO6Agy9T1fP+YqPfzzPxurbsCG60+t4ogSvAAAjSIDFPpcWLwPVf967582Lo77//XwEq4dciDXSQqxu0UinK884I+7627+N3jQwNy2E2ysRxoMUXlXPTZoPdvgXvhDdc+e2Kq925bmCEjXBVdtrOA1fT62Ba845J7befPNQhc6EaA3cVbsTYD2Y4eHWMDkoaqt6uv1Nb4qVn/pUawbhSP2xIAVpTXhZvS4G02NJZ1fb5AMPjJm/+7sx87jjYvoznpGPeDgkXa/53ksPstqqsTb//Oe5GmvdJZdMyDZ4AIA9JcBi36r+E58XKD098YjvfCcvTnYnkGlfuG294Ya489RTY/W3v51bXEZ0gTVa6gVPCvoWvvWtcfBHPhIdkybt2YIVRktb8NxIg8bXnntu3PvlL8fmn/0s+vr6drQHdne3FvYW9zuMdIC1K9LPLVURVfdx47OfHesvvXSvvr82gVS6z/R7ovnp9yxYENMe//iY+8pXxvTqcfQsWdL+ZUOPseQwq/lZpblkd3/wg3HX3/1dboPfm88nAMB4I8Bi36lDmfSCW1wtWue+6lURaWDv7rbCNX+Fr79+9Re/GHe+972x9be/bVVjJWNwAdx+pMGDq4XOge96V+uCVCVR8AIN7md4tVW1v6YWwRRapYqrbffc0zpqYNShVVrI76QaiBi1ACu/Z/f1xXWPfWxsvuGG6EzvrfvifbWjnp9VaT+C4uQZM2L6c58bs447Lma97GUx+eCDh75kqM2wrS21KOl5q7+ndPTM3771rbHhZz8b07+vAAD2JQEW+0ZaTKRgplpgHPbxj8f86j/uIzbHqflPf3X7aV5LOurTPZ/7XGuuSvrrdrp8rCyK65aSNMj48H/6p5j7R3/UWqSWuiCDnWnbJ5O+FSti7be/Hfd84Qt5fl17i+ButwfWgfiEWfSPYoDVe8cdccNTnpKPXpjfi/b1c97Waph+h6R7T591T58eM17wgpjz8pfnat72Ixo2A+6LG/7eVo04uGFD/n214mMfa/2+SiFu+qMOAAA7JcBin0hBVX/1H/OD3/veOOh979srC6/220zVHctOOSU2/epXrbakMdCmkZ6jNKx90uzZ+UiDM1/ykpEL+WBv20mb4Nbrrot7zj477k2zre64Y0SqrZrbb6pyCosn9p5RCLCa29905ZXx62c/Owa3bh16HKMmVWbVf5jIc7Pqs6csWhQznvnMmHviibFf9dzkeYG1/H3Uf0QpRnr91z+7FO6m2Vhbmurh3Ql0AQAmAAEWe10TXi1885vjkE98Yu9WFDX/8a9uPx1BKw14T4PeB9J8nYKrsZrwasrixbHk61/PR+MSXjEm7CS42vCDH8Q9n/lMrP2P/4i+rVvvW221O9U7dQVOup+Bev+dPGdOTD7kkNjyy18WuU+PuNEIsOr3oPRz/M3LXpaPBLmzge+jJoVZdSjVBJrJ1KVLY9ZLXpLb1Per3kub4Kq4FsO2fadv2bL47dvfHqvPOae1v9TVuAAA7CDAYu+qg5n9TzghFv/rv+bFz9Bh0Pemtr9upyOc3fmud8X6n/ykVQFSWDVWE/BNf+xjY3G1eJlSLb52Z7A97FPDg6vq8xR0rDzrrFh/4YX5iHJD1Y+7E1zV4UT62jQTrqm2SlU2KZyY98d/nA9scP3v/E5sW758dFrb9qVRDLBWffrTccsb3xiT0oEk+vqGX60MbW2G6cit6fWS/mix31OeEnOr3z+zXvrS6Fm8eOjqRQ1+b3u/X/WpT8WyU0+NvrVro7uw31UAAKOtoHp6xpu0OEjh1ZwXvjAO//znW+flf/bBgiEtBtKiufrP//Rjj80LvkM/9KHonj07+tOCoJDZKOk5SuHVrOc9L5ZedJHwivKl4Cq9RutWrsEtW2L1V76SZyTd9PKXx7oLLoiO6jpp8Z2uk6/7MIKlHCrUwVXaV1N4NXXJklh40klxzBVXxNIf/CAOPOWUmLRoUXTPnx+zX/GKHFY04QUjp3lOe2+7rfXeXVL11XAp5EzBVbWl6qX8+qs+3vCTn8Rtb3tb3PDUp8atr351bKhen4ObN7eqW+tQcNRDovRY6+rgA974xjiq+n018+lPb/2uSo+xgN9VAAAlUIHFXpHDqxQePeEJceT3vx/d8+a1Fj+jschMC4N6AbD1+uvzX7fX/Pu/76jGGo22wrT4T5VXfX0x9/jj44ivfCW6Zs68z2OFogyruNre2xurv/zlWPnpT8emq67K56UWs6bVb5el94Tm66r3jBQlpH1zUrU/zKr2jTmveEXMfOELo3P69KEvaQZdp8ey+Re/iOuf8pTWEU3zhft4X95X6rBlX1ZgNW551ati9de+1mrDHu2w5+FKlVnVNli9PppXxvQnPjHm/P7vx9xXvzomH3ZY68zm9T3KgVFT9ZZCtuXveU/c/Y//mM8vrXIYAGA0CLAYcbkqo/qP9pQlS2LpBRfE5COO2GcLrQc0bPG9+ktfykd/2nr77dFVL6AfTpXIHqnvb6C6vwOqBVSqTkuLUuEVxWp7baZ9ec1Xvxp3f/SjsfGaa3LYlIONFBw1265IoVU95ye1G+aWr+q86c97Xsz+vd+LOX/wBzF50aKhq+f3kGZfrcOcZrvpRS+KtRdeOL6P4jZaAVb187nhGc+IDT/9aa5s2mfvkyOteb1tb7WkJukohikgTYPf01EMG6N+BMO2/S0NeL/9pJNi2x13tFoKR+MPLgAAhRBgMaLSf/pTMDN5wYJYev75MfWxj903i6xd1bYw6FuxIv+Fe9XZZ+dFzT4Z8l4volJryIH/9//GoWedtWMxPlqLJXgAQxUpdcC75pvfjBUf+lBsuPrqfHkKNFKAtcsVV20hQg6uqrPSq37q0UfH7Je/POa88pUx7fGP33H9dL3m/SM9hmGay+790pfi5te8JleA7dX9dzS1BVhHXnhhTH/a04ZC+aH2yeZnNRLS81jdVmoRvXbJkui9667W/YyD57f5fZT+0NK8Bqc/5Skx7/Wvj9nHHx+TFi5sXbF+nY7K768moK32l97f/jZ++5a3xL3/+Z95rlxuOVSNBQBMQAIsRk5dTdE5Y0YsPe+8/5+98wCPssr6+EnvvVFDSUIAyy52UVERRUCaKAj2shbsgvpZsK69rsKuu+q6VtBFRRRBsK1lkRVRLLTQWyDUkF757jnvvcMQU2Ym0+f/e573meSd+s7ccs7/nnMuJZ50kn+JV3bY7/BXOncubb79dqr45RfP7v7Ezp96bXaaOt56K3V5/PGDnBQA/AbV/mXDBd13933yCW179FEq/fJL+V8icfTj2kSLKk1TBKMzMihl1ChKU0fSoEEUHhtre4rDBbaNyFJWRr8dcohEqQRtMXc7AavPkiUUp663JRxJNTuoZlhzf+vvlsWTX3v1ov01NbbPEDRwu+TxXgtZfGWxXbtS+rhxlHn55RTbu7f1OCNkcdtqq026Gdtcpd6/+JFHaOu998ocEpDpnAAAAAAA7QQCFnAP2qjfKSQGKwAAIABJREFUHxVFBTNnUsrw4QeJRH6JibZSjgA7wMUPPyz1RhqVo8b1Rmz3uwPtxHN0WtcHHqCOU6ZYr6/PA+AXsKPOorPut5U//EBbldO89913xcGPcFK4YhGKxwEjDkSq8YHFqtQRIyR1KzIry/bw36UIOgo78ep9ttx5J21RnzUyWNMItXjEv02H22+nuH79pC4Yb0wRnpwsNfQikpKsWnrtQEQR/n35UN8r7+JadOqpImgGnYBl0G2O25+JyoqMjZU2mnHxxb9PL3REXHUndnMF7/C58ZprqHL1aqQUAgAAACDkgIAF2g8b1jqyqOc//0kZl17q/+KVHfZRYhULF9Lm226j0m++saKx3LHKbff95D7xBOVMnmy9pw9W8wFoCft+ULd1K21TbXXHiy9SfUWFpC2JGOVEX+CJRUQvdXAqMde0YkEgtm9fuwe5IbKFHXj1/KpffqHlxx9v7TDH54PYqTdRbDJGxcRQWFwchcfHSxQb/x2RkEAR6ekUyUdmpmyiIf+rW/4/Ii2NIvRz5LnqefI31+Jrwu5//5vWjh1riYtB/J3aUG3JPlpQ0gtPOIGyr71WarOZzQRsgqs3o2e1WFtfUiIphbvUb+PSxgkAAAAAAAEKBCzQbtix5R0Hcx9/nHJuvTUwxRl2zHTEAe+uVvL887T1wQeprrTUKvLuquPG3wM76erIffZZyr7xRkReAf/CLhKRhecdf/0rFau+XLNli+sirmrbUR06UOrZZ0u0VdJppx1IJXaHaNUE83pFQ4fS3nnzJFLM6c8cQIiYaMYsOjCJOzNKsfARkZIiKd+ROoLroEgudV9kTg6V//e/tHf27NARsAwsDNmlFzJcny3zkkso86KLRARkvC1k2QvN2598UiIPG+rqkFIIAAAAgJAAAhZwHW3gc0HyTpMnU5cnnghM8coeHc3BVP36K2297z4pXO3S1ejvoFHddp86lbKuucZaQQ/k7wcEFfaRkvvmz6ct995LZd99d0C4cjY9SQuz+9WR/957Il4ZbI6+OdyIGXf2fvABFY0ebQlYoRCRYv892v19UH2r5tAiYlPhy/6WX8H+CFl0e+XvlBdq+LuJ7dyZMq+4gjIvvlh22WW8KmTp347bfNnnn9OGq6+myqIiEbHcmvoOAAAAAOBnQMACLsOOb71ygLOVEd/9X/8KHnFGGf+NtbWSmlMydSptuP56q2i1Ew6x1FLRjk/3v/9dCgIHUlolCG7sozi4SPeWe+6hXa+9JlE97d6NUz2f02XTzjyT8ufMsd6L270nxwX9WRvKymjFMcdQ5cqVTvfZkMP8HvrWJnrZ/U62KC9X20KQIYszxF+JtYNmTHY2ZZx/PmVNnEgx+fnWg0yb84aQxXMupxTu2EEbrrmGdr37rhUxzAfaPgAAAACCEC9YWCAYMeJV+llnUbd//MNydIJBvFLITooxMbI74aZJkyxH2BkHjqM/+FY9p+crr4h4xY6GP+7GCEIMjryxa4sl06bR8uOOox2vvipRNrbUO2fae1PU87nP7Jk3j0o//pjCoqKs8cGThFk1izj9LW3cOKv/BcFY5FH4NzECFUf0cHQRH2pcN4cIJJ7+7QIIiVpTB4t9vFlAXUkJbX3mGVp25JG08eqrJWpX5kHTjzwtInE/Vu/DmyHkzZxJXR96yOoL/Bkx3wAAAAAgCEEEFnAaNow5bTD5xBOpYM4ca9crNtS9seLsYUwtnZqiIlpx8slUV1xsRSY46sRpp5lTqHq8+CJlXHYZETuCiLwCvsauj1Z8/z1tvv12Kv3iC9fTBVvB1MVLOvZYKvzPf0TEkr7hSVFJX1/1mjW0/LDDqLGqyno/N10TAL8jzEqjt9+5MOOCCyRdPP6II6zHeCMii4U1siLE9s2dS+uvvpqqN24M3h05AQAAABCyeNCiAkGJdkwTlIOY/+9/B5V4xdchdU727aO148ZRTXGxOPaOOsCyE5Q+evzjHyJeifMA8Qr4EhNlw452eTltmTJFxFkWrzjiStqtmyNtJBpK9Z2yRYtoz8yZVkSKp6NReAxS1xCbl0fJQ4daO/UFw7gE/BcT0cgRWSwCV1fT9pdeohUDBtB6Nf5X/vyzLSLLRLp5BO7H/B68sDRkCPX++mtKO+MMiZKW9/akcAwAAAAA4EUQgQUcxkRVxHTrRoWffio1P+zTkQIadkR09NXa886jne+8Yzkk7Ng7gnaeG9XBkVdc4DdoaoKBwMVOXC5TfXbTbbdR+Y8/EvdY2WHNUw41o18//pBDqHDhQgpPSLCiGT3YH/bX1cl4VPbVV7Ry0CAKM2lybhTnAGgNbn+2iKzoaEqfMIFyJk2iuEMPlfs9XezdzMn7a2poy113UfFTT0l6MKf1erS/AwAAAAB4Ac9YUCD4UAY3G+VR6emUP3NmcIlXdMDoL77/fhGvIjj1wlHxSjvkHHnV04hXvPLN340HnXUAWkULqI1lZbTl9ttp1RlnUMWPP4owy+3S486sen2OYCz/7Tfa/frrnhfMWIDmVEX1PlVLl1I49z0IV8DLHBSRVVtLJf/6Fy0/6ijaMHEiVS9bZs2Z3Be4f3qgfcrrc1+IiaEuTz5JeW++SZFpadTA5xANDAAAAIAABxFYoG3Y2VWGNjuHBbNnU/KZZwaleLVn+nRaPWGClTbojHjFIoF6fPdp02Q3Kuw2CHwKi0Q60qn8m29o0403UtmSJbI7mYhIjrZtd6DHjpjcXOrz008UmZpqO+9OTJ9jsW7TzTdTycsvWwKW3IkpDvgIuz7HvS4qLY0yL7xQIrKiVZ9gZP7xRKSuSR1W81nl4sW07tJLqeLXXynS00IyAAAAAIAHQQQWaB1tVIdHR0vklYhXtbVBJ15Vfv89rb/qKiu1w1Hj3k686vrEE5Z4FUTCHgg8RJzSqUnFDz1EK08/XcQrLuZs6vV4FfWeLAhXbdxIO6ZOtQQtd34GviYtXrGTvuKkk2g7i1f8HSB1EPga0+d0RFbDnj1U/NxzEpG19b77qH7nTmu+MP3Cne2V5yeOAlP9I169X+Fnn1HG2WdTvUkr9lAKIwAAAACAJ4EFA9pEdjfiLcOLi+X/sOho9zqhvoJTKpSBX7d9O609/3yqLytzPO1Ii1dcE6yLckQ6TJ4sUVseWUkHoC20o8ztuXr5clo1eDBtuvtuKSotERc+3ImMI7BYUCqZNo1qt2yxpTi1Gx1pxmPTzldekZpXFUuXWimS7nh9ANyF6Z9ayKrbsYM2338/LTviCNr+9NMSOXiQkOVGJBpYvWZkdjblvfsudVHvy31Saj5isQUAAAAAAQYELNA6nDqobhoqK2nt1VfTmrFjRciyOaGOiD3+iP7cXPR53fnnU2VRkUSKOJpawdfP4lXnW2+ljvfeawkEEK+AL9ARHtwmd73yCq3o35/2LlggjrLsMOhgm/YY6v1ZGK7Zvp1Knn3WctLbO27oSLNGNS5tvP56WnfZZdRYWio7H7pbAADAbTQRsmo3baINkybR8mOOoV2vv25FE/Lcyv3Dnf3WzNfq6HTPPZTHm5RwXSwtegMAAAAABAqogQUchyOOlAEc27075SpHNHXkSDltdu8LJEy0yqaJE6n4b38Tx9fhuleRkdSgHI2O111HXZ9/3rp+Fq4gXgFvYhdF0VBaSpsnT6aSl16ydhzzNyFH942IxETqs2QJxeTluRYBYhx79byqX36hDX/6E+1btIgikDIIAhEWnnUkL5N80knU4Y47KGXIEPnfiF1uTffj94qwIjXXXnQRlS9eLJuWyHn0HwAAAAD4OW60ikDQoxxHWTVev55WjxpFm2+5hRrLy60itT5MUXIaLV7tmDaNtv3tb1bKkaPOvhavsi++GOIV8B1arOF2XPnDD7Ry4EDa/tJLkqrn9ULtjsCfVX2u2rIy2vboo1Z/cbbPsHDFz1HXvPudd2jlaadR2aJFtvpecL5BwKEjsrjf8iLKvq+/pqKhQyXSmXfSFIHX9Gd3tW9+TTWHxfbpQ4Xz51PmOefInCY42ycBAAAAALwMIrCA8+hohwZ1JB17LHWbNo3ijzzyQMqDO1eL3Y1efd63YAEVDRt2YNXZAeeAa4nUK0M/Y+RI6jlz5oHoERj9wJvoNszseOEFibyqr6jw//Q53U94N9PeixZR/B//eNC1tIaJmNxfU0NbpkyhbU88Ief9LtIMgHYgbbzB2rEwMimJsq+6SnYsjOrQQe43/cAd2F5LzX1b7rmHiv/8Z4nelP6IPgUAAAAAPwUCFnAd3ra+vp4ik5OpszJ+s6+/3jrvoFPqbUyqY/WqVbTyxBOlkC6vfDtSI8iIVykDBlDBRx9RuHIuRPSCeAW8ie5bXPR54y230A6dMigpvA60Y1/DDnO9uobMMWNEBG4zglFHqHD/q1H9doNy6Pd++SVFmMc7IDwDEGhwP+HdbblHx+bmUofbbxcxyyYuuSut0PQf9Xq73niDNkycSA1qbPF7MRwAAAAAIQsELNAu2HFuVE4oG9q8RXfXZ56haGVw29J9WnJMvY0Wm9g4X3XqqVT+ww8OG+nG6U464gjKnzePorKyrOtzhwMBgIOYiInqFSto/aWXUul331EUt2Fui4Ei5JgxQR2FX3xBiSed1LLgbScQl86eLc51zZYtUq/HrSlVAPgjYVZ9LCNkJZ9wAnW67z5KHjRI7rYVfG/vHGsnEpf/97+0/uKLqXL1aknNDajSAAAAAAAICeCBg3ZhIii4iPKu996jlcrI3qtubTvyOSAQeQUdncJFn8ucFK+4wG58YSHlqeuCeAW8Drc37meqLXLf4ujBMiNeBZqQo0UpdsqL77/f+vzNOODmPDvQW++5h4pGj6ZaFq/4mtmpDqRrBsAVjLCk5ppIdZR9+y2tGjyY1l10EdWuWyeCk/QRB+axVmGhTBdxT+zfnwq/+opSzzhDIo5FWG6mfwIAAAAA+Ap44aD9sDPZaBV4r968mVaPGUObbr5ZtrhnA9jnTrY2xIvvvZd2vv22tbLsiNGvV7+jO3akvJkzKbpbN+t5EK+AtzBiqTq2PfwwrTn3XKrbtcthAdYvabCKVpd+8QXtmzv3QJFqhp12HVlSu3EjrR4+nDY/+CCFaaE8YK8ZAFdRbZ8XiniRiPvBjtdfp2XHHit14PbX1lpRWNwv9CKNy+jXiVLzXcGsWZRzxRWyeCNgzgMAAACAn4AUQuBetKHboIxpKfD+t79RfL9+BwQsL6/mmrSr3TNm0Nrx462iz46kXLGzrB4TER9P+XPmUNIpp1iONa9UA+AN2HnkCMDSUto4cSLteOstq/YTH+11Vn0MR5WYMaLwm29sxaTN+LHv00+l3lXV2rWSMmjbbAGAUKZJWmHikUdSl4ceouTBg+Vut8xRdhHG2x5/nDbfcYcIZ3IuwMcdAAAAAAQ+WFYD7kWnO3E0VvmiRbTypJOo5JlnrPu8HUGhxauKxYvFGZb3d1C8kkMZ7N3/+U9LvOLXaq9jAICjaPGqZs0aKho61BKvWORhgsCJ5H7IUVhlaozYM2PGgT6n+mbxww/LNVevXSvjiERQttVnAQgFTFqh6ivcNyp++IFWnXmm1MSr3bTJNke1a55loUpHVXe47TbKU2NPeEICca1Ld+2ACAAAAADgKojAAh7DvsB7+ogRlPvcc5KGJ845G8mejMbSK8Z1xcW0csAAqlq9WlIwHNlxUHZ5U5+x21/+Qtk33GA50BCvgDcwDioXVP7yS1p70UVUrRzToCyozP1M9cf4vn2p79Kl1LB3r9So2/X++yRuMiI+AGgdLTY1qCOmY0fqNGUKZV1zjdxl6me1a57VQnrF//5H684/X4q7i5DeHoEMAAAAAKAdQMACnoWNZ3ZUlfMdk5tLuc8+S6mjR1v3aePY7bAIoBxfdvjXjBhBe+bPl9VqR1alzY6Dnf/v/6jzI4/Y6me1ywkAwBHs0mx3v/EGrb/qKmqorAzseldtoa61UV13zrXXUvm331LZTz9RFHYZBMBxmqQVpgwcSF0efZQSjj5a7jZp9C6j5+na9etp7QUX0D7VTyFiAQAAAMBXQMACXoENaDaw2djOuekm6vzgg5KW4BERS7/mpuuvp+KpUx2OXuGoF955KVsZ6d1ff739hj8AjsKRRjqNbtsjj9DmO++U0xJBEexRSFrEYhyOkgQAHIweP7i2HNdu7HDzzZICGJGcfND44gqmthZvzLL+8stp54wZ1qKQIyn5AAAAAABuBAIW8B7aeOZ0h6R+/Sh32jRKOP54MYLlHl04tj0YQ3uHeu11113n8EoxC1W841LKySdL0fYw5QCEsWHuhs8EQKvodFe+3Xj99bTtr3+1irUzIeIccv/jTROCXqwDwMOw6M1zKs96CYcfTl0ee4xSzjzTurM9C0Z6nOLX3jJ5MhU/8wyFG1EM/RYAAAAAXgICFvAuOt2BxaLIuDjq9OCDlDNpktzV3h2UTMTUvgULqOissw4Uf25DBDA7osUVFFDhF19QVOfOB0QFADyIabO80+CGyy6jne+9Z0UMIoUOAOAqdvMsz2JZEydSp/vvp8jMzPZFYxmhSr12yV/+QpvU3G2rtQURCwAAAABeAAIW8AkmpZBN3vRRo6wC7127um5ca8GppqiIVpx6KtVt2eKYUa1XlCMzMqjws88o7g9/aN8qNQAOYsSrupISWnvuuVT61VcO12oDAIA20RHIPKLE9+pFXZ94glJGjJC7XE6R1zUm+bl73nmH1l92GdVXVAR3rT4AAAAA+A0IMQE+QYznsDAxenfPmkUrTjiB9rz77oHdCdsSnuzhSBX1nMayMlp3wQVUu2ULhbNh3tZraJEsLDqaerz6KsQr4D2081izZg0VnX467fvqK4owkVcAAOAO9HjCUZ1Vq1ZR0ciRtOHKK6l++3ZLvOL725onm8LRXfq5aWPHUsGCBbL4xNFeLgliAAAAAABOAAEL+A4WnpTRy1EntZs20ZpzzqGN114r6VQSGeVA4XWzGsxsuOoq2ve//zkuBKj3aFTPzX36aUoZNsx6PxjgwMOYdla9YgUVqXZX8fPPVq02R9o7AAA4CY854Wq+46jk7S++SMtPPJH2zpplzXe8aOTIfNkULWIlHn88Fc6bR3G9e8sOvu0pAwAAAAAA0BYQsIDPMTU0+OAC1isHDqSK776zDOE2CjubNIjiBx+kndOnO77joHoOG9sdbriBsq691nodGN7A0+h2VvnDD7Rq0CCqWrkSqTcAAM/D8yiny7N4vno1rR49mjZedx017N1riVF8v7N197TwHtu3LxV++aVsgsI7+SISCwAAAACeAjWwgF/Bzj0bwJGJidT5/vsp55Zb5Hxz9TrMuT3//jetOe88SUl0xAg375E+ZAjlzZ5t1cpype4WAE5gNimoXLyYikaMoNriYsfEK26fDmxGAAAADqHnOt4ROKFvX+r69NOUPHiwdZ+uJ+kMZi7m6On1l19Ou959F5tRAAAAAMAjQMACfgcLSpzaJwXehw+nrs8+SzE9e9oitdj4NgZz5ZIlErHVsG8fiUnehrFsdhyM79OHevGOg9nZ1nOcNNgBcAp25FR7rVi0SOrQ1G3f7rB4ZVJkIa8CANyG3U6FPLZ0mDSJOt13H4UnJrq2I7ARvtTthokTafvf/06RPH5BfAcAAACAG4HXDvwO2eHIFHj/8ENayQXe337bisBi8aquztq9bds2Wjthgqz6SvRVW0YyC2PqMVEpKdTjzTcpKifHpdVmAJzCXrw66ywpoOyQeKUew0Ju/CGHUHTnzrSf2zjaKgDAHXD9SDUGSW0s9e/Wp56SxaDK//3PofT936HFK56ju73wAnW+806qN/MropsBAAAA4CbgDQH/hI3nBl3gfds2Wn3eeVa9Do60ioqi/bW1tP7SS6ly5UrHdxzUR/dXXqH4fv1QtB14HNPGOFJw9ahRVLdzpziMbYlXLNA2qsdwYWSOFOz8wAMivopQCwAA7kLPnZzyV/b997TitNNo+1/+Ys2XLD61MVYdhBHY1VjV+aGHqNsTT8g4hihnAAAAALgLpBAC/0cbvpz6l9ivH+VOm0Z7Z86kLU8/TVGOFm3Xda+6PvAAdZwyxbUUCQCcwKS5Vv36K60aMoRqN292KPLKpLnG5uZSwfz5FFtYKO119dChtHfBAodeAwAAnOWg9P2RIyn3L3+h6G7dDkrfdwiO7uJIajVW7XzpJVo/cSKF1dUdiNICAAAAAHARCFggYJAiscqQjoiOlggsMabbShsk63m842DmmDHU8513DqwGO2qMA+AkRryqLiqiVWecQTXr1zskPBkHMjInh3p9/DHFH3GElTIbFUVVv/xCK048kRrKyykMdWUAAJ5ARyqLiN6pE+U+/zylnn22dZ9Oh3YUMw7unjGD1l9yCTXW1FgRqBCxAAAAAOAiiOkGAYOp1yHilZxo24E3RWoTDjmEur300gHhCuIV8BQ68qBu82ZaM3Kkw+KV1GhTz41ISaG8d96xxCuOFOSUWU4nPOww6vR//yePabojJwAAuAVd+4pTCmu2bqXVY8bQlttvFyFdxKu2xjE7ZJziHX/PO4/yZs6k8IQEGb8w/wIAAADAVRCBBQIPByOv+HG8A1JkSgoVfvUVxR1+uJXWgFocwEOY9lW/ezcVDR5M5YsXU4Qjaa7cVtVNeGws5b/7LiUPGXJwmqtOydlfU0OrBg6kskWLHBPFAADAVXiuVGNPgzpSTj2Vuv3tb1ZKs5MphbzoFBYdTRULF1LR8OEyPsozHZnHAQAAAADsgCcPAg9HjV6O1lI33f7xD0u8MkY3AJ5gv1VknZ21dRMmUNnixbLBgCPilTl6vPKKJV5xW7Wv0abu49cOj4+nrs88Q+EcleVoPwAAAFfgaCleBFLjWOkXX9CK/v1p9/TpByJAHUgFlLEsOloey5tZsAgPAAAAAOAq8OZBUMLOP6cOcspV2tixVjQL0q6Ap9ARUiw0bbjyStrzySeSgtNmuo0Wrvi53V94gdLGjZOUm2bbKguynA57/PGUc9NNUqOm2ccBAIAb4XGHRSyOnFo7YQJt5pRCHu94QailMY7HRD2W1W3ZQmvOOYfW8U7CqOEHAAAAgHaAFEIQdJii7amDBlH+Rx/J/+LoO5juAICzmGLFW++8kzY/8oikDbIQ1SrcHnWNtm5PPkk5kyZZz2ltd0xOI1SOX2NZmURDVC1fjqLIAACvwBHMbDCyeJ56+unU/e9/p+gePX6/q68RtxT75s+nDddeS1WrV0vas4nqAgAAAABwBURggeCCC2FzwesuXaj7yy9TeEyMU7U6AHAWI17tVM7cFkfFK0aLV13vvVfEK0k1bE28YrRTGJGaSl2fftqKykLbBgB4ARHK1SEphQsW0IoBA6hs/nxLvDLCFEdk8bhUV0db1dhWNGwYVa9eLc+R+yBeAQAAAKAdQMACwYOOaOFd23jHwejcXJsxDYAnMCky+z75hDbccINEQ7WYUmOPSXG9+WbqeN99NhHMEfhx/PjkM8+kzEsvlddx9LkAANBeePzhaKqazZtp1YgRVPKXv1jzLM/B6nz1qlW0esgQ2vLAAyLmS5SoI+MiAAAAAEAbIIUQBA0mdTD3oYeow513/j6tAQA3YnYcrP7tN1px2mlUv327Fe3XRjqfaac5l11G3V5+2XodU8jdUXS9rbodO2j5EUdQ7ZYtSCUEAHgXPeawEZn9pz9Rl6efloisDdddRzXFxVIHUIQrRF0BAAAAwE1AwAJBgREFMkaMoLwPPrA5+E6JAgA4im5fDWVltPLkk6nip58kIqGtKAPTTjPPOYd62O/m5UI7NVFbu2fMoDXjx8uOhw5FfwEAgLvQY1fj/v0UX1hINWvWUCNHXTkwHgIAAAAAOAsELBD4cN2rxkaK7daNei9aRFE5OQcVkQXAregdB1k8WnvuubRz5kyp79KWsyY7YyrHLvWMMyjvvfcoPCHBFsXlKkbEWjNmDO1Sr+nI5wAAALej52EZzVjUQtQVAAAAADyA654TAP6AjrKSulcvvyzilTjw7RAFAGgNI14VP/AA7XJQvOK6MCxeJR1/PPWcPl3EKxZZ2yNeMZJ6qOj65JMUk5YmURCuRHMBAEC7YPHK1MGCeAUAAAAAD9E+7wkAH8NCAhex7nzXXZR82mm2otoAeAIT8VT60Ue05f77rTSZtupOqcfwzpgJhx9Oee+/TxHp6e6LENTFkXkr+05//rNEQLjldQEAwFl4/IF4BQAAAAAPghRCELCYekJpp59O+XPmWDsQmhVgANyMrWj76tW08oQTqK6kpO3C6Sa9taCACj/9VHbGbG/aYLOo19yvHMeiQYNo75dfUmRbnwsAAAAAAAAAAgw3e1EAeAcWADiqJbZDB+r20kuSQuj0Tm4AOMr+/cQta39NDW247DKqZfGqjegraaPq/uhOnSh/1iwRr7jIutvFK7JWIVjQ7frccxQZH0/yqdAXAAAAAAAAAEGE+z0pADyNcsz3a+c894UXrKgW1L0CHsS0ry1TplDp119ThNkevgWMeBWVkUH5779PcX37WjsEeii9ld+PP0/cYYdRx//7P3lvTwhlAAAAAAAAAOArkEIIAg6TOtjx+usl4sTUJQLAE5j2tXf2bFp99tkSidVqrRcWWNV94UlJVPDBB5R06qlE9fVEkZFNH+le+POoo7G2llb270/lP/5IEUglBAAAAAAAAAQJWKIHAQVHlXDR9qQ//lGKVou4gEgT4Ck4kikiguq2bKGNEyceEK5aEa/4iEhLo56vviriFW8s4HHximHhTN2Ex8ZSl+eeo/CoKKxOAAAAAAAAAIIGeP4gcNAOekRcHOW++CJFJCej7hXwChuvuYZqtmyxtolvJaJJBFZ1f8a4cZQ6ejTtr62lMG+IVxoRc1ngPfFEyp44UT4LohMBAAAAAAAAwQAELBAYhIXZ6gp1eeghSjjqKNS9Ah5FIqdU+9oxdSrt+vCA+4OGAAAgAElEQVRDiuCi7a3UvWI4XY/T9na9/TaVzplDYdHR1ut4Ey2ydbrvPorPz5fNDtBPAAAAAAAAAIEOamCBgMDUvUofOpTy58w5kDqI6CvgCXTB9aqff6YVAwZQY3l563Wv7FFtslE9LjIjgwrnzaN4LbZ6MxLKVrfrww9p9ciRtsgsAAAAAAAAAAhUsCwP/B8deRWTlUW5U6eKiIDUQeAxVPtimYojpzZeey3Vl5a2XveqKepxHIVVv2sXrR4zhmpWr7bEq1ZSD90Nvx9//tThwynzggukbpw3BTQAAAAAAAAAcDcQsIDfw2IV7+rW9amnKLpHD2tXNaREAQ/B7YvFnpJnnqHSb76R1EFnxSdJJVTPq964kdaMGUP1JSW21D5vYTY36Pz44xTbsSNSCQEAAAAAAAABDbwZ4NeY1MHM8eMp/cILvZ6KBUIMLV5V/forbX3gASnaLoKpC3BbjYyMpIqff6a1EyZQY0WFFTXo4us5DX929RmiOnSgzo8+auWKI2oRAAAAAAAAEKBAwAL+i04djO3Wjbo8/bSVOogIEuApTOqganObrruO6srLKZwFH0dTB5uB0/g4EmvvZ5/R+iuusN7DmXTEdiKphA0NlHHBBZQ+fDhSCQEAAAAAAAABC9QA4J+YGlfK0e/23HMSRSKRK4ggAR5CUgfDw2nn3/9Opf/5D0Vq8ae9SCSWeq2dM2bQpsmTD9TD8paIxX1GXVdnTsFNT7cENPQjAAAAAAAAQIABAQv4JSwkcLRI1pVXUsqIEZaQgOgr4Cm0eFW7cSNtvfde+VuEHjfB7ZcjsYqfeYa2PfGE7HAobdqN79EifC319RRbUECdpkyhBr5WCFgAAAAAAACAACNsMVmlUQDwG3TqYFyPHtR78WKKTEuzzsPpBp5Cbwywbvx42jFjhtuirw5CR0JxMfW8V1+l9IsuEmEpLDKy6SM9A6cvqussOuMMKv38cwrnSDB3XyMAAAAAAAh87HZ8ty18whfzKFJ311u1cgMYCFjAv1ADI0e/NCpnO//99ylVR1+hbg/wFCZ1sHTuXFo1dKgUbvfY5GEm/uhoKpg1i5LPPNN7Ipa+pqIhQ2jv/PmevU4AAAAAAODfNCdSEa95Woue8rc5Z7sXeAL+ftnbhUTYNhCwgF9hdh3MueIK6vbiixCvgGfRBdUbq6tpxTHHUMVvv1EEp9x5UtjRrx+ZkUEFc+dSwtFHe76dc6SVev09M2bQ6vHjPX+NzuLtFT1vpG4CAAAAAPgbWrSSchnKPhSxquljFFHJyRSRnk4RfJuaSuHx8bLgGh4Vpe6M8r7tFsyo3yAsOpoqFi2i6qIiS0yErdoiELCA/6DrDsX27Em9Fy4UB9+cB8ATmOir4ocfpk133eWZ1MFmYLGKUwljevSgXp9+SjGqzRuRye1oka6hooJWHn88VSxbZu2u6EcCVnsnIZ+bUI4aca09zv4+NmSceGyrr9sUbRDZarzp9gHAQZg21czK/EHtramR7Uxbaq3d2r3OQW21yX2gfcjCSWu/Q4Di1TQc9f15dAHK26j+5Q07CHgZ3U7tBSvuIdxyozt0oEh1xPXpQ/F//CPFFBRQdG4uRaSlUURiIoXFxVniVTC1cz9l86RJVPz001I3F/2wZSBgAf+AB1Z1cO2rgtmzKWX4cM859ACQZeBym6tZv56WH3EE1e/bR2FedOZNtGFiv37Ua/58iszMtNXicicmuqvk2Wdp/c03e02kc4ZwZRz9rq+39Fs045SIg9v0sc2d49PNPL+lxzaHY4+ycOaxzeHM89t6rL2Lav7mW/mbx99m2t1B36uD3w/wY1ioaE6QaoL87qqfmF/c/pdv6W+m5VdsHfvXaa6d2v/dWns1QPByHB4NmxkRAx5vpuFw6/KvGbV98PcGyztI0GO++FfK7uO+ziMni1KJxx5LiSefTPHKBo07/HARrNrEbkx150ZHgCxbXc1rm5Wdvm3qVAhYbQABC/gFxpnPvuQS6v7KK55PqQIhj4m+Wn/ppVTyr3/5RNjhUOz6+npKHTSI8mfPpvDYWH2Hm0xvFmvUa9Xv2EHLlIFSW1JiOa7NiTg+gPs47zZa8MEHlDxw4EH9XlYJa2sP/i72W+meTZHHqe/R/rH8/Maamt89fz+fa2J48fO5FlnT58vr2tPc89kwVOcOajv8Our1fvd8hXz+Js+3vb/dORbw5b2aIO9l//vxY5s+35xXj+P3k+eoW369xqoqati3zzrKyqihtFRuWzIE+BvhNiO/izFazQH8E9OO1fgm/Z3bGLdPLUo58stFcJpIUpI4OhHqNjwhgcJiYmQVPlzdyoo83/KhHsupD2FRUXIbro62MO1Y2rhup9I+dVuV/3XbbSwvlzbKt/I3P6bpCzbB9GRb22Xs26/+P2ThNqGuP3XYMIrJy7Mt6AQ6fE08r+/79FOqWrbMuiZP/c76O4zr1cuqZxng36H57mrWraPSDz9sejcIJHjc0+mBbC1wD4hJS6PkM86gJGVvJg8ZQtGdOx/8HB4fm9iGLRZub/o/aDfG/t10ww207fnnIWC1AQQs4Ht06iAPpn0WLaKoDh1s5wHwCDwpqMmh/JtvaOUpp1iCjqeM3DYwIlbW+PHU4403rM/Bbd8dBoK+zs2TJ9PWp57yiUjXGkbA6v3ZZ5Q0cGDTu4GHMEKWHJWVIgrUlZRQ7YYNVLt5M9WuWSM1GFj4rN+1i+pZ5CItZtkfvPmAMXp91H8AWUIVjxn8W7DwqU8bsYoPWXWPibFqmaSkSGpIVE6OzLd8cPoI/x+ZnS2PYTGdjzBza4QqrnviLfha1NhoE7Psha2KCqrbuZPqi4upbts2qtu+ner4b3UrouzevdatepwZ8Zq2XznH4pYWOUKpHdvG3s8/p6RTT216d8Cz6brraNu0aR51As13mKUXXoOF8m+/pZUnntj0NAgE7IQrbvU87iedcAKlX3ghpQweTNHdux/0cOkbWriEz+VbIGA5BwQs4HOMEZCnnPf0888/KAoDALfDjgo7KcpZKVIT+l5lwEfyhO/DqCQjYnW65Rbq8tRT7ukDfD3quqpXrKDlRx4pYoXgRw6a6fuFn3xCyaef3r7rtr8uN626eyRE3hevqaNwZDXVCSOVo15E1FJH9apVVPXzz1T1008ibrEwYHoMv2K4/t0QoeUF7H5PHrd4117zbfOvwIJTVKdOFFNYSLEFBVY9ky5dLIFKi1YcSeUy9mJP09/ZWeG9ab91oZ02hT9bvRG1+JaPLVuodu1aql69mmrUwcJsI0cukpVCx+/Gn1x2Z9XXEMxt2Yy9+e++S6nDh7dv7PUjzHVsvOoqKnnlFY86geY7zBw3jrq//nrAf4fm85fOm0drRoxoejfwZ5oIV5ExMZQ2dixlXnwxJZ12mu1hpi+IYOXsWA08CgQs54CABXwKd1ZOHcwYNYry3n/f6sAYWIEHMZPE3lmzqGj0aL/Zkc8Yw7lPPkk5kya12xg2z193/vm04623/C76irEJWPPnt1/AAm3T1BHX/zcn1LUkInBEDEdmVXz3HZUvXEiVS5dS1eLFVLt7t+0xIgZERlrtrZnXBi6iI60aOT1Vn+KZMq53b4o77DCK69uX4o88kuL++EeKys6WqKkW4fS9Vn6bg1KhmpuPmzvnLpr7XHbnWvvcTKtjCAt+NTVUt3mzpJhVq6Nq+XKqKSqi6pUrqW7PHttD+QpNCmKwtWUz9haoeTB15MigGXvNdWy44goqeflljzqBNgGLo6fVHBvo36H5/KUff0yrhw1rejfwV3T0bYM6WLhKnzCBcm6+WeYEYb+14NDSnA78AwhYzgEBC/gOXj1WN5FpadTn+++tndh01AgAHsE47LW1tPyYY6ji55+tFXc/ELDEIdRiWs/XX7eiEZWjKmlaTmImQkmR5PQQvj5/uMYmQMDyc3T0iYlEkd+mGeGidv16EbL2fvABVSxcKFF/XJGLf0kRASBmtQsRULTgxOZsdHw8xR9xBKWcdZb0m+gePWQebRZ+nun7JrrJHMGKbq/Wn/pvHaHQ0nVzWi2nIHL9HxZny776iqp++41qN206KEJLfgt+PT8cT50BAlb7gYAFfIoe07gNMhnnnksd77xTFjAEI1wFcJsMJSBgOQeUAuAbtLPOqQ+d779fxCvpqBCvgAcRR061vV2vvkrlP/8sE4TfOCJ2TtG6P/2J9i1YYDn+TYtzt4V21vh265QpEq0RyIVlgQ/R4zQbVSKk6nYlhnGDVZ+I4boa7AR3/+c/qe/SpdTr00+p8+23U2x+vixScHqsFAjm/taKiADs4O9IC4YcpcxzJUda5T7wABV+9RUVfv01dVDfMQtZLF6Z38MmFGoBR34/rl3FR6h8/7rd2rddm/hqvhu7NiwLBTEx0o65HlSHO+6ggrlzqe/ixVTw4YfSlvm759eT38I4haHwXQIA/A8ee9QYxuNRAu9kPXs29XznHUu84jlA27oQr0CwArUA+ARJg1CDbMoJJ1DmVVdZqwQQr4AnYQea211ZGW174gkRddpKRfE6/Bn5c1VV0drx46nyxx8PRK84iOlLe959l0q//FIizPwhRRIECeywa8PYFHGXKB8WA3gFMTpaam50efRROuTXX6nXvHmUffHFFJWebnP+5fkY71vEfDc8R/IYxbuU5s2YQX3VeNBxyhRJEzTfuTgqWhw8SKiBsNI85ruxa8PNtWM+uKA9R7l1Vm2ZhVkWDTveeCPF5edL1IO0ZSPMAgCAF+Dxisee/VFR1PmOO6i3GpdShg8/EGlvxHUAghi0cOB9tHAQoQbfLs88Y229rc8D4ClM9NWOl1+mytWrKYLbmz8KO3p1n4sMrxkzhmrWrrUcJEdELCPSVVVR8X332XbaskVjAOBuuB+ZSBdupyayhcWsmBhKHjyYuv/rX9RnyRLqrsb7hD/8QYzvBiNkwfk/gP4++LsR4Up9dxzN1mvBAkofN052BLSJVvo7RxSQm2jSjm1tmaMMeUyOjqbE/v2p67PPUu+FCyl/xgxKOeUUeR4Ls/ISaMsAAE+hxyiOaI7v04cK582jzg8/TOEJCdY4xXMBhCsQIqClA68jOdvKIMy+/npKOPpopA4Cz8MOCE/8u3dTiXJAJMqp6WP8CdUneFe36nXraO3YsVS/c6e1qtaG4GZLkXzxRSr/7TeJvmrrOQC4FRPZYgQAFmNUe47u1o2yb7qJ+vzwg+x8lnLaaSLSiPMPw1u+L/N9JKp5sWD2bCpQDkqy3kHKRGHaRCvgebgtc3QWf98mQks5ipGZmZQ2bhz1+uIL6vXZZ1J7Zr8RstCWAQDuRo8p7DtlKpuw8MsvKWngQEu44oVLF2qlAhDIYJYFXsUUHIzv2ZM63n23TVgAwJNIqiALO6+8QtUbNsjOg/4u7LDDGqGMkjLl8K+74ALaX11trcC1FE3FfUndX1dSQsVPPCHild+lSILQggWAcB0ppIUs/jvt7LMlqqjgo48oVRnhHJEl6Vj8uFCLJuLrjbB2441IT6duTz5Jvb/5xpYSIsIV0tR8j4nQ0umG5nfhmll577xDhZ9/TmmDB9vaMn4vAIBbMPaqGoNyH3uMer79tqQ3y3xqalMCEGJAOQBehVcpmc7KwY7gwrNaWADAY7Dzx8Lprl1U8vzz0t4CRdiR1X5loOz55BPacOWVVl9hQ6aZzy/XpK5z+9NPU/XmzRTemtgFgLcxQpZx/lX7TBk2TFLkCt57jxKPOEIWN2zF3kMBs6qurpvFjz5ff005kyZJupqJTJbvAnOkf8HCrP5dbELWKadIxFz+9OkU16uXFY2lRS8AAHAFicxVNl94fDz1VGNLh9tusyLtIZKDEAczK/AaPNiyoZ4xapSswJvVeAA8iUmr2/n661QVINFX9rCIxZFYJerzb7n1VitKhZ0j+8dwX1LXVV1URDunTZP6XijcDvwS4/yT1W6Z1NGjqfC//6VuzzxDUdnZIZGKZRwTpuv991P+nDkU27fvgZQQzI0BgU1g1AsLaeedR71VW+4wcaKIsdigBgDgCiZjJapDB8qfO5fSxo4V20/GE4wpIMRBDwDeQRl4vA14VHIydXr0Uds5ADyKib4qL6eS556TqKRAib46CGW0RChHacuTT9L2p54iarozIfcldRQ/+CDVqWsVAycQrxOEFPZCVnhMDOXcdBP1/u47yjrvvKBOxeK0Dxbpojp3ljTKjvfcY/VZvl6khAQm2qHkthyZkUG506ZR/gcfUFTXrlRvflcAAHAAUys4ulMnKvjwQ0oaMMBa3AjC+RAAV4CABbyC7IymBuMOt9xCsYWFtogRADyJib7a8+abUhBd0uoCMTKJxSj1uVnE2nTrrbRbXY9EcLCIpftS+X//S7vfessS6ZpEaAHgt5iILJ1aGNOjB/WYPp3y3niDYjp0sKKxTJRLEMDXyrtIJfbrR4WffkrJQ4daEZVINwt87Noyj9epI0ZIWijXeePfHM4nAKAtjL8UreY/3swj/qijSA0gEMEBsAPWEvA8Ogw2oXdvypk82RYVA4BHYSeCI/8qKmjHCy/I36YGW0DC/UZHVa278koq++wzS8TSjn/xffdJP0PfAgFJE+c//fzzqffChZQ+fLi062AQeEzkVeqpp1KvTz6hWDUnitgMYSO40G2VIyZ498185YRmX3SR1Y6DSIwFALgZLV5FpKZS/syZFH/kkVbkFcQrAA4isK1B4P+woaaNuc6PPELhCQm2qBgAPImpPVI6dy6V//ST1IVqWjsq0JBrYiGuspLWTJhAlUuWiFO8d9Ys2rtgAUWy0xTg1whCHOP8q3Yc3b27OP9cI4qRuSNQRSwdeZV25plyTZFZWVb0JMSroEUiJlSbZbun+6uvUsebbqJGI8bCBgIA2KPHhLCoKOr5+uuUcMIJIl4h8gqA3xOgliAIFCQUVhls6SNHUqo6YLADbyFCj2pvXPtKnzj4AYEKO0SqX9WVlNDac8+lyp9+om2PPCJ3oeoVCBZknlBtnUUrrhHFOzBFJicHZF0s/ryy0+AZZ1Dee+9ReGKiJcYF2HUAF2DBldux+v27PvMMdZw8OSDbMADAw6gxgceG3GefpZSzzoJ4BUArQMACnoNX0ffvF6ej85//jFVH4DUkCkm1tfKvv6by774TwSeYduWTbZXV9VWvXUurTjmFqpYutQbzILpGAHgO4UUQNuR5B6Zen39Osfn5VqpsgBj2/Pk5bTD5mGOo54wZFB4XZxVrD9RIMuA8ph2r373LE09QztVXoyYWAMCGLHKoMYF3L83iHUxZvML4AECLwIICHoMjYHgXjexrr7W2B2dRAUY78ALiHKr2t/Mf/6CGujppi0G3Kx/XxFLXVV9aatVIACBIEbFKzR9cD6TX3LmUcPjhIgD4u4hldpKK696dev773xSRlmaJzJgHQw81VvPyHYtYuVOn2mq7wUkFILQxEbpJRx9NnR977MAmV1jwB6BFYEUBz6BTB9lwz7ntNhRuB95DF2+vKSqS2lDsHgRT9NVBaBELgKCHHX01p8Tk50sB9KRjj7VELH8VADiFWd1ExMVRjzfeoOjcXCzihDocicW3qs32ePVVSujb1yrsjjYBQGjC8wRnqiQlUfeXXpL0crHpMCYA0CroIcD96FRBNt473X8/RaamonA78BqmiPnOV16huqqqAzubBSvBfG0A2KP6MvfvSL29eGK/fpKe55ciFq+qq3mv65NPUqIpxuuPnxN4F04lVG2Wo/HYYY2Ij7fZTACAEIKjMnWUbpfHHqO4ww/HIgcADoJeAtyOKdyePGCAbIVudoMDwONwRFJkJDXs2UO7p0/HAAdAkCEiEItY2dmUP2sWxffqZaVi+dEcY+qZZJ57rlXPxF9FNuATuC2woJlw/PHU6e67/a79AgA8j4hXqu+nDRpEWVdffSB1EADQJugpwL3ocNjwyEjq8sgjYqjJuiJWF4EXMKmCe+fMoer1663i7ToiCwAQJGgRi9Py8mbOpOicHNm9yS9WrtVcx58ltlMn6vrsswfSfDEHAjtExFLtJGfyZEo+7jikEgIQSpjUwcREa57gaCzMEwA4DGZL4FZMOGzG+edTQv/+CIcFXsXUg9r50kuWgQBjAIDgREexxB12mNQTCouOts77ss9rB4Qdk84PP0xRnTpZojrmQNAUdlhZ3IyKos6PPkrhMTG28wCA4Mb4Sjm33EKxhxwCXwkAJ0FvAe5DrzxHJydTxylT9CkYY8BLaAOgcvFiqli0yBrcgrV4OwBA0oVZxEoePJi6Pv64OAS+TMGQ9Hn1GZJPPZUyLroI6fOgdXRNt6STT6b00aN93n4BAF5Apw7G9+hBOTffjE2uAHAB9BjgNmRFQQ3E2TfeSDF5eVhRAN5Fi6W7Z8yg+urq4C/eDgCwRCw11/C8kzV+vE+Lukv6fFQUdXnoISvChk9iEQe0glnk63DnnRQVE4MNbwAIcmx9/u67KQKbXAHgElAXgHvQK8/x3bpRNlYUgLdhoYoF1LIyW/F21L4CIDSQuUaNAblTp1Jcz56yiYi3F0+kcLuaA9NGjZLi3FjAAQ4RbtVp5FTY1LPPlkVAXwmwAAAPo+eJxMMPp/Tx4yVLAL4SAM6DXgPcAq8d8Oozpw5GpqVhRQF4FSNWlX74IdVs3WqtcCH6CoDQgOtOqTknIj2duk2bRhQZac0/XpyDeAyKUM5Jzq23Nr0LAIfgHSvDuS3X1ze9CwAQBHDdO7ZNcyZNovC4OPGbvDlPARAsQMAC7casPCcdfTRlXHABVhSA15H2ptrdnnfekcLtWMEGILSQXd24HtaZZ1L2ZZdJjRFvzUMyB6rb1CFDKEHNgxKBjDEIOIhpK4knnEBJxx1HUrnRS20XAOAldJmV+EMPpdQxY+ArAdAO0HNA+2FjXd10vPdeCuOddLCiALwJR/spI6B67Voq/fRTYlcA6YMAhB6m7l2nBx+k2E6dJK3d40IAR8zoOTDj8svlFMYf4CzSZlRbSpswgTh2GBvgABBcSI9Wc0XmZZdReEICoq8AaAcetuxAsMMOQ71yElIHD6aUYcOs1EGsPAMvIkaAonT2bGqoqLDVwwEAhBg6lTAyO5s63nMPNbKw5GkHQb9nfEEBJQ8ahOgr4Bq6naacfjpFp6RYddw83XYBAN4hTO/SnplJ6Zypwqc8vbgCQBCD3gNcR688R0RGUod777XOQTgAXoYdVF695vRBGPwAhDYmnZhXuZP69ZNUQk9GYcn4o25TR4+m8MRE1H8ELmHabUyvXhT3hz9YUVgebLcAAO/BixqcGsyF26OysqzMAcwTALgMZkfgMmxcce2r9HHjKJF3XeJ8bqw8Ay9idvqq/OEHqvzpJwrfv99yIAEAoYlJ6YuKkk1FPI3Me2QJWBJ9BacEuIhJKUoePLjpXQCAQEUvskZER1Pa2LHWOSz2A9AuIGAB1+BwWDUARyUlUce778ZgDHzKvjlzqK6mxlYDBwAQuvDiCgtLKUOHWkWxeUzwxOKKeh9+7fhDDqG4Qw/FijpwC0knn2z9gbkMgMBH+0s8TyQce6zVrz0xHwEQQkDAAi7BDgLnc3OaRmzv3tYqNMLdgTfRtWZ457E9778vg5mphwUACGFYSOLxISaGsm+4wXIYPDA2yDyobtkpkfRBD6crguDGRO/F9OxJMR07emcTAgCARzH9Ou3ccyUyGFkCALQfzIzAeXg1gYsRpqVRzuTJ1ikYWcDLGLGK0werfv3VGsxgGAAAFCadPW30aIrv3dsjYgA7IvyKCccdp0+4XyQDIYR2dCOzsii2sFDEUaSkAhDYyDwRFUUpZ50l/6NPA9B+3GvNgZBAVp2VoZ59/fUU3aULEXbLAb5Ai1V73nvP2m0MIdkAAHvU3BQWG0sZl15qFcV29zylxqAINe4kHHOM/IuFHNAuuFZOfT2FRUZSTF6etFnYVgAEMFy8XdmnCf36UUx+vrXIgT4NQLuBtQWcQ6cOxnbqRFnXXIOdNIBvYMFKGfmNlZVU9tlnTe8FAADb3JR2zjkSMdzozsUWFhvUTWRmpuWY6HMAuIOYggKkxQMQ4JhdahNPOYXC4+KsNHPMEwC0GwhYwClkMFYGVc6NN1JUhw6WcYVVZ+BlTA2B6hUrqHLpUgrndsmGAQAAGHQxd64plDRgAO1X44TboqS0YxLTqxeFx8fbzgHQLnQbisnNld0tJcIdABCQcEQl5wYkDxwo/7tt/gEgxEFPAo6jBt4G5QzE5eVR5pVXWlEwMNiBDymdM4caOeUCRgEAoDl0Aff0Cy5wazSLWVlncUxEBze+NghdjE0V1aUL7CsAAhk9R0SkpdnSzLHIAYB7gNcHHIaHXYm+uvlmikhNtaJgIBwAHyDOo2p/pR991PSu1oHxAEBIISKAOpJOOoliO3RwXxqhERo6dZJb7CwF3AkXcucdywR3tFcAgFfhhVVJHzzuOBGxrJPoywC4A6gPwDE4+ooLEfbqRRmXXGJFX0G8Aj7ACKfVy5ZRlTqkToijziNSXgEILXQaYWRODiUOGGDt7OaODR/06jrXwBIQgQXcgXZw2eHldopWBUCAwjWD1U1C//7yL8pcAOA+4MkBh7BFX02eTOEJCZZggJUE4Au0WFX+7bdUW15uOaOOOI+qvYYnJsomBCJiof0CEBroMSPx5JOtucxRwdsBIlJSmp4CoN1wwWcstgAQwDQ0iJMd17ev9b8jdioAwCEwO7pKKBkWuvZVYp8+lH7++Yi+Aj6Fdx9k9s2f79gApsO4Y3r0oF6ffUbpY8ZIe2ZB1i2RGAAAv8bMVymDBlEEp2W5YwGGxw91ExYd3fQeANqNtFnYWQAEJmp+4cXSqORkiikstE6hPwPgNtCbXESiONQAJQ5wew1hP8dcXc7tt8tuS4i+Aj5Dr2A17NlD5V9+6VA0BRsN/IikgQOlkGbev/9N3Z58ksJjY6mhoSEk+jAAIY3u3zF5eQGQFPAAACAASURBVBSrnAkZMdDngT+j5q3wmJimZwEAgYBOMY/q2JFiCwqscxCwAHAb6E0uwA5xwh/+IBEc9coBlkgOjgoJxsFJOfdS+0pdb+qYMSIWYBUB+AwtYJV/8w3V7d5NUqC5jbBsrjvALTZNtV+OvOD/cyZNkmgsbtfchwU4tAAEJ9y3WehW8xnXI5E6WJjHgL+DOQmAgMTsIBrNu4lGR6P+FQBuBhacM+hIjthDDqHeX38tR9b551NUVhbV19fbIkFEzAoWw4PFAa59dcstFJGYaP0fLNcGAg7Tx/Z99pljxZh5FUy1WU4fTDzlFOnD8hxlTCQqR7b3N99Qh+uuk8cgpRCA4MWMHQlHHtnkHgAAAMD9xPbu3fQUAMANQMByApOKlDZ2LIUnJVHiiSdSjzfeoN7ffUfdnniC4g89VEJGWcyS+hjsDAfyKi9frzL6E9R1pY8bd+CaAPAFOtKxsaqKKlSfk/TBNqKvuL1Knx0zRlIGbemvWsTiou65zz9Pee+8Q1GdOlnRWMEkQAMALHSfZociUvXx/TxPo58fDAv5HFUegIcp1A8AAP5CTKgIWDq7AUf7j7aySoBFAKsrXoYjOZTBG6Wc4JRhwyxDr65OGltMz56yO1+fJUso/4MPKPOcc2QHGXaGzY5ngSj8iECgjuxJkygsJqbNWkMAeBQ9qNdu2ECVS5daIdo82LcE91l1Pxdtlj7L2E8M3Ce5TavHpJ17LvX+z38ofcgQatACdECLzwCAg7CldOTnS9S0jAQQsA4mzKrrGYgHxmsAgL/BdRdDAu3n4nD9CI+Otv7GxjAOEbbY0ihAG3Cj4p3Lkk88kQq//NI6aQwmVp6bRCdVr1xJu998k3bPmEFVRUXyJfO9/BiJGvF3MUhHX8X37k19fvjB2tKZgcEPfASLUdx/dr32Gq29+GKK4L7UmoBlF0HI4rLZvbC5Nmxem8WsbY8/TlsfeIAaqqvbfg/QLmRcVd9v4fz5lHz66Qd+BwA8gRawl/3xj1Tx888Urvu8K/B4wtHWeWo8yrjwQlngso0xAUpDRQVV/fRTYK0A83jO9ldsLMWr3zXQfwP57tU1NVZW0i/du1Pdjh2W+Orm38SMvQWzZlHqyJFBM/aa69hwxRVU8vLLHp3DzXeYOX489XjrrYD/Ds3nL/34Y1ptFv2Aa2j78xDlP8UfcUTAt41m0WNVQ1kZlUydSg27d1sLw24eq0IGnsfU/MU7rFeoduOJcT+YgIDlIGai6j5tGmVNnNj8YMRRWWrAkkanxa1GZRDunTNHnO4y1Sjr6+ok7I0NZxGyzOFncLokC3Y9XnyRMpUh0Oz1AuBFTBtcd8EFtPPNN9s0TE2f7XT33dT5wQfbbsN6MmYqFi6kDaqflytnLsJOqAbuJZgFrNbapj8hxcybEXWDEdO+1oweTbuV497WGNIaQSVg6Ujxyh9/pGXsbDW938/hXzAuO5sOXbGCItLSDhrLAw4IWO0CApbrQMByE2FW7dWI+Hjqu3QpxeTn28bYoEJfU11xMS077DCq3rULaV1ugGeuAJ29vAramiOwMaEG9sjkZEoZOlSfaqZ5hVnh9zJI6Xzg8IQESh87lgo++oj6fP89dbr5ZopRRglPepJeqBVXvzK2eFJWnyu+b19KM7Wvgm3gBYGFboON1dVUuXixPtW6Qc9icnhUFKUpZ9UhtJPA/Tbh+OOp8IsvKOeqq6SfijAdwIYp8D7cXgLh8Ku5x0uIQwF+jxpjI2JixOmPUHaJ3Pr7ocb4SHXLdUlDsS0DAPwMPQ5FZmZKndWgR10vj788DvN4/LsxGodTR7P6AvgdiMByAFlp5VUW5Qj3nDnTWglzVNDRDrH9ymz99u1UOm8e7Xz5ZSr/739FzJKoLL0S7qnVIkdhoaCeo6+ef56yeIe2AF9VAoGPaYOV339PK08+mRqqqlpdlebHcr9K7t+fen3++YGcckcnBu6Dus3vfuMN2nTTTVSzaxdFqr5hi5wE7cb8TkETgaWjJ+pVW9k8aRLtr6lxvM35AP6uOz30EEXn5to+ezBj2teOadNovZrb2Fh0db4NygispUtpxVFHHShwHwjjHC9sqM8f26MH9V2yhCJSUwO7LevPjggs10AElusgAstN6DGJy1cUfvstRSQnB/aY1BImAmvbNlpx7LFUs3GjFeyAbAXgBSBgOQIbE2rwyVOObPr557s+SZlIDjsjt/yrr2j3O+/QnhkzxEHm4Y2FLDZYpGi6m42WNtEOeqxyaPr8/DNF8KomE2wDLwgojHO488UXae2VVx7YRawltGGZ++c/U4e77nLNuTRCleoTNUVFtPGGG2jPvHlWLTvuJ5ik202wCli1ypD7pVs34hbq4FKHT+BRnZ3++H79gjPFoQk2B232bFqlnPb2OLcQsPwECFguAQGr/UDAAs1h2kXScccR10zmTbACekxqCQhYwIcEt7XqDlhIUgNPdHa2bSczl9PpWJhiA5eFLJ5Q1W3igAGUO3UqHfLbb9Tt2WcpqX9/McZ48JPC8Px4V9/PBdhQYrEu69prrVUDHoiCbdAFAYcxCisWLWpyTwuo/hMZFUWpY8bIvy71WW73LFSp14opKKACZdR1/fOfxRjhPhqwzirwPKrtRCQkWCH1/piKZT4TG9au9I0AJzInp+kpAAAAwC2w3MwlZLCjHACeIfQsVyeRujvqNnXUKGtlzx2CDgtZEVatLCNksUGdc+ONUnen9+efU+aECZI/zSu8EukRputrtfe9W0OvZMZ17kzpF10UnCsGIPDQ7XB/XR2Vf/ONDFqtRj/pPpt4wgkU27u37ZyrSL/T79fxrruoYN48ilOvy31TXrcdrw2CFx7bA+EIJUxtCY4s5khnuX7McQAAANyFmWcSEqy/3Rw9CQCAgNU6OvqKDd20UaPkVKuOswsYIYsHOElBiI6mpFNPpR5vvkl9Fi6k3Mceo/hDDpHPwXW4+HG257gZSVtUr59x+eUUlZNjXasH3gcAp9CTf+26dVSzdq21O0crBoG0Y3Wbds458r9bnHTuB/y66rWSTjmFCr/+mrIvvlgEX0kLRj8BIGAIi40V56LlUQQAAABoB8YuRDAAAG4HXldrqAFHIpLy8ynxpJMOiEeegCOsOCWJhSydYsg7JXW47Tbqs2QJ5b//PmWefTaFK8ObhSzZwdBEcrkDHX0VnZlJmVdeaV0rBlzgB5jdBsu/+44a6+paX9HiPqv6R3RqKiUPHmw75y64v3Hf5OjI7v/6F/V87TWKzM6WTQ/IXX0RAOBROA04JHaHAgAA4BNQZgIAzwEBqxWMgJMyapQYuyaVz6OwkGWEKS1kcVQWpzD2fPdd6vPjj9T57rspLi9PBCeJymLaGQFial+lX3ghRXfujOgr4D9osYp3IOTW3ppoK8XVVVtOOO44EYA9ER1lSylUBxdv7v3VV5R62mlSt07GBze/HwDAvYRHRVmFdRlPz+kAAABCD22rmkVYAID7gKfVCuz8hqsBKP3cc+V/r0ck2UVYSRqU+jxc06fzgw9S3x9/pPzp0yltyBAiZYxLRJar6NSoqLg4yrrmGn3Ky9cKQHPoqEdOr6369VdrwGrLGGAh9rzzbH97BBapWCxTnyu2sFAKvHeZMkXukgLvrYhsAAAfo/pnmJo3AQAAAABAYAEBqyWUgcsRSQnHHEOxhx3m8xxmW90rHZUVnpREacpJZ8e5z6JFlHH22VK42pXoD35tjmxJGzeOYgsKQmI7dRAg6H5XX1JC1cuWSf2rFlezTPpgRgYlDRqkT3m2z5pdRdkZ7vTAA1aB9169rMhID783AMBJdJ/kfhseHY0aWAAAADwDb/QDAPAIUClawLieqcOHU3hMjP/sVmSisrhWlo7Kiu/Xj2K50Lu62+l0KR19FaGM+ayJE63XbUkgAMDLmLZYs3491ZSUWO27hWhD7hd8T9Jpp1F0p05W/3C2P7iCeQ/1uZLPOEM2XzCCstP9EQDgeXgu94f5HAAAQFDCO2cznl5IBSAUgXfVAhzJERkTQ2kmfdDfUoLCrFpZ7Dw3lJXRzpdekh/T2R3X+DU40ixFOd4JRx8tgoHfXSsIeSq+/15uWzMEpF6cuuV6cV53Tvn9uC/V1FBEejqlsYDF4hsELAD8D16oaUEIBwAAAFxGL7zKpkMM24cIDADArcC7ag6uuaNuEgcOlELQfjvwaAO87LPPqLa42HLunf2sLFip5+XcdJPtfwD8DS7g3iocSajabkx2NqVwXTg+5QPxyKQUVq9c2fQuAICv0fMb167j1XEvy9wAAABChP01Ndac4+0FVQBCAO97eAEADzVs5qafc4787zfpg00wUtPe996jRo7IcjJySmpfKWc7qX9/Sjz5ZEvM8oHTD0BLSHtU7bLqt9/k/5bkVYkkVLcpI0ZQRGqqz4wGExVZu3mz5RxDEAbA/+DFHyejlQEAAABHYPuPs2Maq6ub3hWcaNs3KA6UGAgIwpueCHlU4+X0wdisLEoePFhO+aWoo3c6q9u2jUoXLKBwF1IizOOzrrpKIkf8VagDIQq3T9UeazdupPqtWy1BqLk2rqOvOJIwdcQIOeVsKq3b0FGQ/JlFCIeABYDf0VhbS41VVdY/6KMAAADchNij6rZx377QmGfY/6ypEZ9Sopv5NpAP/q10QAf72ebg7CybwAV8jh8qM76FneD96kgaOJCiOnf2XiFoJzGOcdkXX1Dttm0Uzh2rsRnnviXUNfFrxOXnU6qONHM2ggsAT2LaOKfj1e3caaXINgf3WdX247p3p8STTrImHl+0Zf15OTWpdtMmpCcB4K+oPmpzLAAAAAA3wxFY+0MgAosDIKKV/R3TpQvF8G1ubmAe3bpRtPL7I1NSxK/gDKWGhgbbwcEt7GuIj8HlQiBm+ZSwxdRiVk5IwoorN9peH35IKWedZRWG9oUz3Abcifizrh4+nPbMmUMRLEg5EXXC11SvHt/tyScpZ9Ikv71OELrwSg5PEjv++ldae+21FMVRgs1sSyypsKr95kycSLnTpvmuLbOAxZPe3r30s5oM2XhxqS5dCGF+u8L58yn59NN999u5C90GWMD8rVcvalDGq1+2Af2ZuH/1XryY4v/wB5IFED9crHEr+hqrV6ygZYcdZo0nLv4+/N3Vq+fnvfYaZVx4oW28Ckj091K5dCmtOOqodn0vXoej5tXnj+3Rg/ouWeLTFHK3oD97Y2Ul/aKcwbodOzwyhpixt2DWLEodOTLwx16NuY4NV1xBJS+/TBHqb2dsY2cw32Hm+PHU4623Av47NJ+/9OOPafWwYU3vBo6i+2t4fDz1VWOq1FIO5vlVXVv9rl3WvMHX6Oaxymvw76b6AG/GxAtcDaWlVLtuHdWsXUs1K1dSlbIb6rZupVp18IjCvybPMjw+c7+RcSZQrz0ACdLe5CLaEIrr2ZMSTzhBTvlt+qD6XDWqY5V/+y2F7XcyfZCvU3U0LnidPmGC5cgEqrEHghbT96qXLWs1msmEa6eNHevbtqwnLhYv9qvJz0efAgDQAiaqk+uSNLDgFMjGNgAAAP+D7VAOhqispIZ9+/SpIJ5n1LVGZmVRVMeOFJWTQ1EdOgTmwZ+9UyeK6dGD4vr2pcTjjxcfuePdd1P311+nPt9/T70XLaJe8+ZR98ceo9Qzz5RoLf5teTFLfBEWsNmu8JUfEkL4oTrjO9jxZRkoeehQikhL89uaUEasKvvkE6rds8dKH3RicJQ0SXWbPn68DDjyev4o1IHQRjuXVb/+2nJBdC06xx96KCUcdZRf9FcRsEykWHOfGQDgU3i1WPCD8QIAAECQof2suuLipvcEJ2zrsi8ZRAdrAPYHn4vu0kXqY+fcdhsVzJ1Lh65aRT1ee42yzjuPojIyJLOJfRImkKMxAwGoFnZwA+Xmln7uufK/zyI52sB0ij0zZzpfKJoHVdW5ImJiKOvKK/Up/7xOEMKYSInKSqrSEVjNRRkaMTb5zDMpPCHBmmR8JMaafsgClnxSH30OAEDr1IeKUwEAAMBnsD0YErAfyTZvEB3sa9sfct5O2GIis7OlhECP6dOpzw8/UI+//Y2SOA2fo7L0YyBkeYbwpidCFtUw2emMO+wwSuzf33bO72AnXg0UnI9b9vXX1g/ohIAlOfvq8SnDhlFsnz4+dfgBaBEjBm3cKDWlWpJYjeicNnq0Fbbd9AHexO4z819+mX4MAKBaCFgAAAA8DNuDIIiwE7YEZfcbQSu6WzfKuvpq6v3999Tr448pnetoK39dhCwjjAG3gW9Tw84mO51pHH3FhVi1cupvmCgUjr6qr621tvV0QsDiTsY/eiZHXyHyCvgp9jsQ8q5++qTdI8gmOnOeeoIRnf2Aus2bsTMGAH5MXaisigMAAPAZNatXNz0Fgokwq4C7CFo6OotJHjKE8j/8kAo//ZRSBw6UtEI+AnajFz8EAhbDta9Uo4uMj6fU4cPllF86oBxhwjsd1NRQ6Zw51u4HTR/TGuzwq9dIPOooSh40SE4hSgT4JXYClki2LYTgcvvngszlX31lCbL6cWYS8RrcN/XEVLd9e8s1uwAAPqd2w4ampwAAAAC3YKw/3sFO7EMEDAQ/OjqLER9E/e5JAwdSrwULKH/6dIrLz5di77Z0S9Au8A2Sjr5SDS3hiCMo7vDDJcrJH3NWJfpKNfyq336j8sWLKZzr/zjjqOt6QZlXXWUJYfxcDKrAj+HVKxawmp38uZ+qm4off6SVJ59Mq886i/apiYKR/qtDe70pJDWWl1O9FrCcqk0HAPA4ZhwxdUnQRwEAALgdFq3UTf22bVRfUmKrnwRCA/FB2N7g31z99mnnnUe9Fy6kjtddZ/kmfqozBBIQsOzgXflkkPFzo3bPu+9SY12dc9FTLNIpZz62a1dKNfWCnHk+AN5CRxrywM+REm1FM4lTqo7dc+bQqjPOoKKhQ2nf3LlyzkwiTgm9rqA/X31pKdUpg6UZuQ0A4Eu4j6o5r373bjkAAAAAj6BtwrqSEqpetUqfatmOBUGK1hTYB4nMzKSuzz9P+cpXienZU2pjQcRyHSgYnD6oHOWo1FRKVo6vdcoP3U8tOO2vraW9s2bpU44PhnxNrP2zSBeZkWGL5gLAL1Ftk8UgLoDJg1SrbZ3vU0ck56Grf/fMnUurVF9edeqptHf2bNpfX/+7sF5P0cgCljJY2hLdAABexjgUmzZR/a5d6KMAAAA8g5pbwiMjqb6ujqqXL7edAyGIWUzn31/5ICnKP+n9zTeUrm5tBd7hjztNyAtY3Ki4LhTnqcZ06+a3u/KZdD/eebBq1SpJH3Q4HJUjUFikS0igzEsu0afQWYCfoif5hp07RcBy1NE0UVYiZKn2Xfrll1Q0ciStUn1799tvy8RxUESWA6/pKEZgq9+xwyrUaCYrAIBfYDZAqdmwgRrKy605FH0UAACAByn/3//kFlkvIQ7bHLp8T1THjpT3/vvU4ZprxGeQ++CXO0XI9yZuSNxkJK3Onw1aPfCVfvghNdpFlDgCD5oN6rqSTz+dYvv0sYQvdBTgpxgxiFPx6quqrEnfiX5phKxw9Tw+Sr/+mtacdx6tOPFE2j19+oGILA8IWTXr1zc9BQDwI2pVH5URArsBAQAA8BBS50jd8iZDspu2k7YsCE5MiZSw6GjK/etfqcuDD0LEcoHQFrDYgVWDSUx2tm33QWeEIa+x30ofbKyspL3vvWelVDlR08cMohmXXWb9zwMoOgnwc2T3FsaVtsptnCcEdXBEFkdblH33Ha2ZMIFWHH007Xr1VWosK3O7kMXOMQDA/zCr39XLlllRnY5GMAMAAADOomxKnnVq16yhqp9/tp0DwL42Vse776bcJ5+0RCykEzpMSAtYIgqp29RRoygiJcVv60LJ51INvezTT6lm0yZJj3J4EORrVI9NOOwwShkyRE75pUgHQBNsAlY7MeKUicgq/+knWnPJJbRiwADa8cIL1MhRXm4SshCBBYAfwn2aDUM1l1YqR4Jn+Vbr6gEAAADtgYMPlG3ZoOad0o8/tk5h4QQYlM8hta2V35EzaRJ1feghauCsML3YBlonpL8lNmB5cJH0QevEwQ/wF3RY4Z733hPBzRkBisUuviqOvgqLjHQqcgsAX1LrJgHLho7IYhGLo7IqfvqJ1l9zDS074ggqmTaNGkpLDwhZ9fUujQeIwALAf2nYt49qVqxwuK4eAAAA4DLaB+MABE4jRH1UcBB2IlaHO++kjjfcYBV2d8LPD1VCV8DiyCTlzMbn5VHigAGWUu6Pqien/6nPVV9SQqULFljpg44q+HyNqiPEZGZS2tlnW9fohxFmADRHtbsFLIPqPzxZROiIrCrl0K6/7jpafuSRtP3ZZ6UQO4u9toistvqbGTvU43gHQusUDBQA/AbdH6t+/ZXq9+6FgAUAAMDj8GJohLIlyxculPR16yTmHmCHFrF4o6muTz8tuxNyJBZErNbxQ8XGOxghJ2XkSAqPj/ff9EEe6NSx7/PPqWbrVgrXxd8cwURfpQwbRtG5udY1+qNIB4BBR0Xur6mRXQitU56Z7KU/2EVkVa1ZQxtuvpmWH388bXv0UarftctaLdOrIy32O/58qq+xeNXIUVxN7wcA+BSz6FPxv/9JSr1fLlYBAAAIOmQjrbo62j1jhrUw6iGbFgQw3C5Yg1A+R/dXX6X4ggIJQIGt0jIh+82wQRseFUXp48Y1vcu/4Aatjj3TpzsdPSUpkqrxZ1x+ORR/EBjodlpbXEz13hKDdESWEbKq16yhjXfcQcsOP5yKH3yQardsOVjIaqEv1W3fTvX79ln/tPAYEEKw4REIRyig587KJUskDT9krhsAAIBPMYLVnrffpgazeRBsRNAEk0oYmZlJ3f7xD9Eo0EpaJiStOB48eBU28aijKO7QQ62oD380aHX6IBeGLv/mGwpTn9NR5V6uUT0/6ZhjKPHYY61z/niNANhh2nd9cTE17Nnj3VSfJkJW7dattOmee2i56kNbpkyhWt5AQdfIMvW0GNtn3r6dGsvLvSO6Af9GtQneNZbHYF5Fk1t/Osxnqq1tObIwWOD5nefDigpJ4eBZ0OE0fAAAAKA9qPkmgqP8162j0vffl1OYg0BzSAZKfT0lnXIKdZw8WTYAcKbudSgRtphCT+DjxsBF0ro+/DB1vOMOaSxS88bPMJ9r59//TmuvvlqcakeLsEvIqmr43Z9/nrKuu06eh04A/B3T5vd+8AEVjRpF4SwWeUvAagrnpbPjqz4Tmxox2dmUcfHFlDVxIsV07y4Pkf7IfSs6mna99hqtUfdH8mYJXAQetAl/v5zrXzh/PiWffnrgj1PcVjmddPt2WjduHDXW1Niif/wOFnZUW+32yisUm59v++zBhmlTVcuX0/J+/Wg/i3ZuGFP4u6tX/TxP9fuMCy/0WzvCIdiZUjZD5dKltOKoo6zxy5djrzOEW/VMY3v0oL5LllBEampgt2X92VkA/0XNM3Vck9EDv4UZewtmzaLUkSMDf+zVmOvYcMUVVPLyyyIcOGo3O4v5DjPHj6ceb70V8N+h+fy8Y97qYcOa3g3agx6nko4+mnovXGhFAQfqGAU8C4/1vMBYVUUr+venil9+kZq9ED0PJvQErDAr/zgiLo76/vYbRXftap3mScffBhNtyKw64wwq/fRTqwE7MhHra4zKyKC+ymiPysoKbIMOhAw20fall2jNn/5EUf4gBql+xw6ERK2of6OTkynz0ksp48orKa5vX3kI98ttjz1GG++6yz8+c4AQdAKWPYFibAR5ZK60KXWNO//5T1qnnFp3ObQQsPwECFguAQGr/UDAAs7A/bhB9eOCmTMpdcwYWfxEoW7QHKYv7ps3j1addZZkYAWMTfn/7N0JmF1FnTf+Snf2jWyggkKAAdFxWARRBEVZRHRY1AFZRMDREdB3XP/jMiNu4zbuo4KCKKIiOio4IK/iLq87OgIDIZCQhCV7Qvak0+nmf6ruOZ3OpTvphHSn7r2fz/Ocpzvndied22ep+p5fVQ2R5m659qVs1MRJzYfvvntqcFYrjsWDIzXcdnJDYYeUjZiO++4La37969BW/Hmg6WtsrMevnHzGGbXwKn5fozbmaC3lcdq5cGHdC7tQvC7Em0nxs8UqyDjP1fzPfjbcc8wx4YGLLw7r77or3Wg2FT9z+ulzuH6w68VgqBG2VlCcu6t+/OP6vQAwNMr77YKPfCRVAqdJu7UX6UMKwot+x8QXvzhMPuUUQwn70CKt117iQVB86Jg9O8x8/vPDg29+c1h1yy1pfox4canCrNhhTU9tYvizCy4w1ROj5d/9btjU0VE7cAfyc8Sfvfi69jhB/VlnpV0DDb5gV6vmaeucPz+/MCiGyFWQVVwn4hxdC7/4xTRH1gOXXBLW/OEP6Wce6Dx1tIB4LOS+NbNHa/Nfda1aFdbddpvzE4BdIrYf40iaNX/+c1j29a/XJu3WP6M/5QP9J733vWH4yJGOlTqtF2CVYqXV2v/5n7Dgs58N9550UrjroIPCvIsuCo/813+FzgULUqM3hUaxQx1DoViZNVRhVtnojgn9qh/+cPsmhY6l58XPOe7gg8O4o4/u+bugkWRVgVWvOKfScKGyIuvRdevCwssvD2v/+MfaBdVNhkpsgOS+NbHqQVA8NzfERRji/Xwo7uEAUCfefWLbccF73xs2LV1auydpM9KXMuAce+ihaURVHH6qP79ZywZYUUzCYyVFbMJ3PPRQWPSlL4VZZ54ZZjzrWWH2qaeGZVdfnYbwRakyqwqzquqsQWoIpyfExb8ThybFqo44kfVAx/CnuRIKU1796vQzp8S2yTspNInyuI838xQip12Dc47tFDHIiuflsFqQVZ17QB6qis7VP/lJWoxBgAXALlO0b+NK1+sffjjMf897am1e9yT6E4+NYtvjjW8M7VUVlr5G0tIBVjwQqsmWq2qKGGptLC4sy2+8Mcy+8MJwTIEzTwAAIABJREFU96GHhvte/OKw8CMfCev/939rlRdVdVbvMGtnJujlxWzF9763udE9EMNq1Vdx8vZJL3tZucuBTmPp3rgxzyGE/amCrEb4WaFVxPMxPsEs7qEr/vu/U2NnoA+CAGAwpKGERR9y8RVX1OZmjJX87k30IY3GKtoy457znDDh+c9P81sPOBNoct6FStkJjaFWPDjixSUGWnElmEeKC8yD7353uPuZzwz3PPvZYf773hdW/+xnaYn03kMNd0plVvG9aRL2DRvCih/8oP7VrYo/R3fx/budfHJtdUVJLQ0onnObli2r3w0wcOWQ/7W//33YMHPm9g3FB4BBUq0qN+8Nb6gNJYz9yJ1ZCEHzKDOF3V//+p6KLARYfYuVWVUYVVVmxYtLZ2dY85e/hAff//5w7wknhBmHHBLmFQdUXOYyztnTuzIr6pk3aztU5YFrf/e7sH7GjNrwwQH+HfHnjb/QKeecU/tzPMgFWDSK8qK8afHi8GhxrjlygR2VribF/e+Rb39789wRGn4A7GKxX9dW3JPWz56d+pGpiEI4QR+qkVQTjz8+jNlvvzTSqmVWkN4K78C2VJVZZZgVxy6PiPNhFdbNnJlKQGeefHK458gjw5xzz03zZsX5e6KeebOqQKx8Irw11YG64sYbw6biewbc6I5VW8XXjTnooHSQR8oMaURdy5f3DO0d0LEP0FuspC7unfFasvKmm2rDB11LAMhE7BfGAoll3/9+WPihD9WGixlKSL1yhFf75Mlht5e8xDDCkndge8QGcAyjYue6DLNiZVacN6vjwQfDkmuvDXMuvDCtaDjrlFPCkssuC+vvvDMdfKk6Kx5wsaKqvxUN459jELVuXVhRXNBSo3uA1VdpOdbi45Szzw7DRo4MoQzcoFFUHczOpUu3u3IRoFJdS1b97Gdh/dy5VnoCIDuxjxf7kQ9demlY/p3v1Aofqge40FvRrpl02mnm8ywJsHZUFWb1mjcrrWg4bFjYtGpVeOSmm8KcN7whzDzmmHDPc58bFvz7v4d1f/5zCqd6r2jYE4jFSq+ygR0b3R3z5qXhgwNqdBdf1x2T/HHjwuSXv7xnHzSirmXLeob/AGyvVMlc3FOXfvnLm/8MADmJfclym3vBBWHNL34RQuwjCijopSqAGXf00WHU3nvXHtK1eLtGgLWz9AqiYmM5TQJfXIRimLX6d78LD77nPeHuI44IM489Njz4lreEVT/9aQqzUnVWvFjFA7GcAD6tPlj8lWn44ABU1VcTnvOcMPoZz6gFYcoLaTRl1USc0DJ+pkQW2F7VcP+1f/pTWPWrX23XPJIAMKTKIoju9evDrDPPDGv/+MfayoQqsaiUD+XaxowJE086absygmalhzgYYjVVrMwqLj4xzIpDDeM45/j5mttuCws+85lw74knhrue9rQw7+KLwyPf/W6aNysO/etatSqsuuWW7Ro+mBT/5tTzz9+c5kODiisQOoKBHRIbesW29KqrQldcKTgG4e6JAOSqDLHiA9xZp52WHsDE4gYhFpVq2OCEY48td7R2u0aANdjiAVYONYyfV5VZsfCv44EHwqIvfjHMOuOMMONZzwr3Fx8ffve7w8YYZsVG+EACrJjaF3/3yD33TKlsbLgbLkFDqiqw4iTu8RPHMbA9YgV0cU/cWNxbl1933fY/CGp1sf0Q2ycNugE0rO7ayoRxVftZJ58cVv/yl7XrmuGEhM2jUsYcemgYOXFi6vu3cj9JgDXEqsqsKAZNsTIrTgK/8eGHw7LvfjcsuuyyWgA1wGQ1lZ0WH3c76aQwfI89DB+kYVUX566VK1PAC7A9qrBq8Wc+EzpXrUqdgYHeSwmpbdK5YUPojB87O2sfc982bkwfY+WC3zXQyGIfMbaFO5ctC7NOPz2suP76NJwwFTR4GNPaymry0U99ahgZ58EKrT3VyrDbgtE6WSgOwhhcpYnZtuciVX7PgT/6UZj4ohfVJpRv8XGxNKCq41Ecz7Ne+tKw/OabU6Wi8unmFq9VXUWD7am33BImnnhirfHm+sWOiPfN4vqxcc6ccPeznhU2PfLIwCuZd0B8Mr6puD7tf801Yep559WmDGjUKqB4/S3eq7ia8oJLLx2092xQxDZQ8fPGB3h7feADoW3s2J7/T0Mqf/Y4R+qd06eHziVLtuuh5kBV194DbrghrWzVLNfe6v8x77WvDYuvuiqNehisFbuq93Da2WeHfa+9tuHfw+rnX1m0v2I7jF0nFSeU1+GnfPzj4Qlvf3vthXgsN/AxxuNTnaNzimvO0uuuG9TrW+4EWI2sDK9GH3hg+Ns77gjDRo1q7IYbras6bosb9r3HHRdW/upXLX1hbhUCLHaW6th58I1vDAu+8IVU3TyY14+mCrDIhwDrcRFg7TgBVmba2lIfL267X3BB2Ptznwtt48cLsVpYdY4u+uQnwwNvf/ugXt9y17q1Z00gJvTxsJ1y1lkpvEoHsfCKBtbd0RG64uqcAAOUKo+L++G6228PS77ylTQs39xXOyB2ljZtasytRRvxQJOK97XimhwXAlt89dXhnuc9L6z53e9qKxRu72gdmsrYQw6p39VyBFiNKlZfFQ22EaNHh0mnnFL/KjSkRzs6QvfatbXPd/ITZ6A5pcc2xT1x/r/9W9i0fv2gVKy0hGENPIm7igSgGcUh0sX1be1f/xruPf74sPBjHwvDYngVH9Rs2uRe10KqRdpGPuUpoX3EiJZ+cCPAalRxfHRxII877LAw5pnPrCX1GnA0qvIGXAVY6giBgUgNuOJ++Mj3vhceuemmWvVVCzfqAGgu8Z4WFyXpXr8+PPjOd4Z7TzoprPvTn1J4XxU0CLJaR/vkyWHEXnvV5oBq0YncW/N/3QRSB7+4WE1+5SvT0AnVKjSDOIQwzv2ROKaBrYkPborG+6YlS8JDb3tbz9NJAGgqcf6j4h4Xg6wVP/tZuOfYY8P8d787dC1bVitgEGQ1v7KNEwOskWWA1artHgFWI4oXqVhSOm5c2O3v/77c1ZoHMM3l0Y0bVWABA5Ie3LS1paGD6+fNS3OFmBcEgKYU73ldXbVFStavDw995CPh7iOPDEuvvDI82tkpyGoF8cHdiBFp5d30G27R/r8AqwGllU+KC9OEF74wjNp3357lw6HRpQqs4qacuPkC/ahW41nx/e+HRUXjvZVX4wGgdVSLdsUgq+P++8P9//RP4Z7nPCcsv+669CB4iyDLQ53mUf1OC8OnTq0FWC1KgNWA0opLxce49HG1zKoAi0ZWDYGNT5C6y6oKgD6Vcz5ufOCBMO/ii9NKTQJvAFpGcc9LD3KK/l98gLPmL38Js88+O8x84QvDsmuuSXPKpiCrnBcyrczrPtk02saMqd/VUvQSG00MqoqL0MjJk8OkU0+t7dLZp1l0dqYPhsQCfYqN9lCr1px7/vlh4+LFaU4QT5kBaDnlsMI4hD4GWat/+9twf3FvnHH44WHRpz8dNj74YAqyUl8xVvDElQvdLxvesFGjWnq6FclHg4kXoFg8OPElL0njX9OFS2efJtG9YUP9LoAe6YlzcR986K1vDSt++UtDBwGguzvdC+M9sa3oF669664wr7hPzjjyyDDvda8La269tTa8MK5cWBY+pMos98/GUvb520aOrP25RavqBFiNJCbnxYEaD93dTjkl7XLhoZkIsIB+bdqUGt+LP/vZsOiyy4RXANBLNYF7rMgaXtwvOxcuDIu+/OVwz/Ofn4YXLvjgB8OGGTPS16TKrFjBXH5fz5xZLRqKNJI4kXsrE2A1khhgFReW0XvtFSYef3xtV3nhgWbQM4E7QCU2puOwh6Ixvvxb3woPvOUtVhwEgP7Eiqz40CcGWeUQwji88MFLLw13H3pomHnssWHRJz4R1v7hD1uGWb2GGlZhmEArQ7GSroUJsBpInBcoXkLi6oPDp03rWYUCmkVcFhhgCzGoKhprK3/wgzD3ggtq+zSqAWDryqGF8WOsWo5hVhxKuOrWW8Pc/+//CzNf8IIUaD34f/5PWHnjjWlVwxRoFffcajXDtMX5J2OVVjWHlvvvrtXi81+39v++wVQrtU0+6ywXDpqSIYRAj9hgjgs7FI3oFf/932HWOeeE7jiHR/kaADAwPcMEhw1LVcwjhg8Pjxbt7rV33BEWfv7zYeapp4YZz3xmmHnCCeGht789LP/2t1OgFQOv+D2pSquaQysWVZR/X9piqFUFW+7Pgy79LoqPrfpOC7AaRVwGNQ4f3G+/MO65z61dSFRf0WQMIQSSshEc53l45DvfCbNf+crw6Lp1tZWUNI4BYMfEe2g5xLAKs6rqrE0rV4aVP/95mP/JT4b7zzor3PX0p4e7Dj44zDn33LDwYx8Lj3z/+2H9X/8aulav7hl22LPKYRlspX8iDkGstt7za9UHXX1tsA0CrAYRLwxxto+JJ5wQhk+eXLsQtHj5IM0nVVsAra2a26q4xy3+3OfC7HPOSU+JzXsFADtRFWaVIVMsjohBVpwAPk1d09ERNsycGZZce22Y9853hlmveEWaEH5GnEer+PjgP/9zWF68tv6OO0Ln/Pmhe926WpFF/P5q6z2/Vu+gq7+t98/W++erC8Vaeihjq/6/SxKQBhFP1PjLmnTqqenPaq9oSqoKoaVVD2dixfGDb31rmFc0jkPZqE5DFACAwfFor7muYkgSw6i22kTwcchhfJAUq6/W339/mkdrYXzIdO654a5DDgkznvWsFGrN+vu/D3P/8R/Dw+98Z1j48Y+HpV/5Slhxww1h9c9/Htb+8Y9pFcSNDz0UNi1bFrrXrEmjL2JQFh9ipzZApQq0in+zGr7YOxTrCcJ6BXCtEmyl/2to3Txg2G2hZYdPNo7YcC9OxJF77hmecd99oW3s2J6LCjSD9NSnuBkt+uQnwwNvf3sqZd7iJkZTir/zruL3/NRbbgkTTzyx5zigBcVGc9HojL//OOfGvEsuCSt+/OPahLMZNkZjA3pT0cDf/5prwtTzzqut9tTiqwKxE5Rtu1jFcOf06aFzyZIU3u7s47+69h5QdConnXZa01x7q//HvNe+Niy+6qpBbUtU7+G0s88O+157bcO/h9XPv/Lmm8Osl760/mXYrAyWek9lE+/Tsa8ar1TVFl+ttih9Hs+RGEaVlVjxvhn7tWkbNy60jRlT+xi38eND+4QJtW3SpDB8ypTQNnFiGB4/3333tKBZ/Ni+227lv7ClahXGZhqxVLU1Fnzwg2lFydRGGqRrXM6a5zfaxKrhg5NOOaUWXsXGvPCKZhSf+AAtJTW+YmO4aIjF+a5mHn305vAqvraTO+8AwA6qG3ZY3adjf7WaSytWa8WPsWIrBl1VrzV9/caNoWvDhtC1bl3YtGpV2LhwYdhw//1h7Z13htV//GNY+YtfhEduuiksve66sOjKK8P8T30qPHDppeH+N74xzH71q8N9p56aVk+856ijwozDDgszDj883H/GGSnUiQHshvvu2/xQqQyvmi3kabb/z/YSYOWurL6KJ/7El7wk7TKMgqbVRE9JgK0ohymkRm/RyI1zZ8y98MI0WXtszLbqU0UAaEi9Q63+5qnqVb1Vv8Wwq9qqIKyajysGYiNGjNhibq7OpUvD+jlzwpq//CUs++53w0OXXhrufelL0/xc9x53XHj4X/4lrP3973vaGVXw1hRa/IG/3mLu4klanGyj99knjH/e82q7GrhEGbYmLdULNLXeFVfx86Vf+lKY8exnh8VXX52e4MZNeAUATSaGSP1tMVwqt97VXT0Tt8c5sqrgJrYheoVdvbc4BHvlrbeGhz/+8XDPMceEe449NjzyX/9VC8/ig/ImCLG6q/5Si47IEmBlLqXMxccJL3zh5tUHW/RgpflZhRCaVNkgjaonoSt+8IMw83nPC/dfdFGa0DU+ae1pwAIA1KsLvLYIu8p+clW9FReBWX3rrWHWmWeGWaeeGjY+8EBjh1hlNVurP/AXYGUuDh+MJr/iFT0HLTQt4Sw0h7Jx2dOgjJVVseKqszM88t3vhpknnBDuO/30sPr3vw/t5RwZqq4AgMfl0XIlxbJNUVVpLb/xxjDz2GPD+rvuqoVYDdyvjgFW4/70j58AK2dxGEXRARj15CeHcc9+ds+YYQDISvlEtCr3r0r1Y2iVVhacPTss+uxnwz1HHBFmn3FGWPnzn/fMdfGYOTIAAHaG8mHa8BEjwvq5c8Pcc88NXStX1l5rtLZHmQN0rVlT90JrEWBlrFp9cMKxx6ZlQqun2NC0BLTQmOK5W85rlVb+KcTQavm3vx1mn356Wi1o3pvfHNbccUd6EGO4IAAwVGIFeAyxVt9+e1j+jW+kNktDLYz2aDkZfaFrxYqelR1bkTQkYzGwir+g3U4+uf4laErDRo2q3wXkrHx62d3RETY++GBYccMNYf6//mu496STwt2HHRZmnXVWWP6DH4TOJUvS6kGp4qqs1AIAGCqx7REfoj1y/fWbA6FGqsIqp1voCbAa6WffiQRYuYoHaHFQjpg0KUwsOgJpl+ormpwhstAgykbTki9+Mcx8/vPDjIMPDncdeGCY9bKXhYc+/OGw4pZbQvfq1anSKs49kVYWjEMLG+lpJwDQPGJoVWwb7r47dG/YUP9qQ3h07dqeIZDVXNmtRiKSqZ7hg8cfH4ZPm1brLOjcA5CL4r408cUvTo3ANffeGx7t6EhPBHtW/ymfFKZqK8EVAJCB7nXr0gqFDaUMq7qKn90QQrI2sRw+aLgFANkoH6iM2nffcOAtt4RJxx4bNsUnm8OHbw6tWvTJIACQr1gcMmzkyPrdDSGGb4YQkp+iY9BdNP5HTpoUJjz/+bV9hg/SChr0ZgItKYZYxb2qvbhX7f+974XdYoi1aVMYNmJE/VcCAOxacTqD4sPYQw+tBVgNOMIpBlibVq9uuJ97Z5KKZCjNFVJ8HHvIIWHUAQekFRLMf0UrqFYvAxpEe3tteeqpU8P+118fJh13XNjU2elcBgCyEufajX3s3U47Lf25kUY4VfNdda9Zkz5P2YAKLHKz26mn1j5p0YOT1tOo5bzQytIqPt3dYfjkyakSa/IJJ9QqsYRYAEAOijZJV9E2mXDIIWHyy15Wm9A9tl8aTOfixfW7Wo4AK0Ox4qqt6MhPPPHE+pegqbWNHl2/C2gE8UlgOZxwvxhivehFKcSKDUYAgF0lBlVxJeT28ePD3pdfHtqKj6miqQGH4W1auLB+V8sRYGUmnmDdxQk17rDDwugDDqilw4YP0iLaRo2q3wU0inI4YfvEiT0hVnzaqRILABhyRR869q27Yttk/Piw39e/HsYddVRqqzRq/3rj/Pn1u1pOY/7mmlwcMDj+ec8Lw0aPro3NbcB0GHbEMAEWNLRqOGFqKH7nO2HKSScZTgjQKGKfI3bsbVvftrdvtiPva/yeXbFVP2/9vkYQf9a2WmiVikKK9simoi89/sgjw1N/+csw6fTTU7V4Iw4drHQKsARYuYmBVfyl7PbiF9d2NNJFAx4nARY0gdjwjiHWbrulSqwpp5xiOCFAIyj6IXEqE1v/WwxFtnd+4jhcLX5f/d+11a34nu3Z0s+0PVt/+grPeoVCW2zFfb3PbcSI7dvqv38Htyi+d7HiKgZXcTTTPp/8ZDjo178OYw8/PB3fsVq8kQmwikPytpAKfshBcYGIF6BRT3lK+NuZM0PbmDG1C4wQiyaXSnmLG8rqX/wi3HPcccW9pTYUieZWlXU/9ZZb0px/1XFAkygbio9u2BBmn3lmWHbjjWFE0cCM81A0uthQjqHc/tdcE6aed176P1WNZ9hhZZsvLpN+5/TpoXPJkhBXzdpqZ3MHVNfeA264IUw67bSmufZW/495r31tWHzVVYPalqjew2lnnx32vfbahn8Pe9phP/95mHv++fUv01vxPm0qzs14ng5U++TJaXj9oxs39nk+p/tif/vrxXCrj+M6Bjfpvlvfbyz+jhRw1elrX3/iVw78q7fva7dXf73i+G/GM3DkXnuFMQcfHKacc04qCBk+bVrtC+L7E8O5RlX+/DOOOCKs+fOfB/X6ljsBVkaqBvETihvvPlde2dOQgWZXNZzW/OY3YcYxx7T0RbmVCLBaQNng6l67Ntz/yleG5T/8YRjeBCGWAItBIcB6XARYj193R0foWrGifjeV4p4WV8ye97rXheXXX7/NY6w6Tvb+9KfTvSLeC/vSV7CVKqvi/t7i9SAGUn3cQ+O+vn6WRzs7Hxts9fV3x90xHIv76/qf6e+Nf0/9/mJfem17/u7e/8/q/1P/9fE6GPf18f9M+3v/P+PfUfzdw6dODaOf9rQw9ogjwognPann5XR/judmI/epq3vD+vXh7oMPDutnzSqaVrVq91YkwMpIPLliuePfFDfCKcUNUYOYVlE1/Nb95S/hrsMP32aDgObQdAFWbEjEBlIjN5IGQxViFZ3yOa96VVgWG/3x3tZHw7RRCLAYFAKsx0WAxVCZc+65YWnxe9/WMVYdJ/tdfXWYqrJtyFS/k3T9bOSqq0rZjuqYOzfc85znhM5Fi2qT0LdogNUEv9EmERv3xck2aurUMP7oo9OuRl0dAbZXusHEj3EcfKg9pYGGU80bwZbKRlbb2LFhv29/O0z9h38wsTtArmJgautz6xnqF7ftUH1fqoaKbdzHucWAZtC2ssLrcW+xOqv3Vv/6trb6n6vXliqwem/xPSm/L77PMThMgXKT9KWr4Z6bFi8O3StX1oZRbucx2Eya47faBGIHPh6GYw45JIzce+9aB75JTjoYqLZRo0L7yJG1i/JAg4BmebpCQ4uNptW/+lVP4yk1MtmsDLFiSB2Xsd79Fa8QYgHkqKoktvW/ba/q++K9cCdsVUAzKFuvSdEf1/Z4J2qv/7l6bWki9t5bfE/K79uh30/uqgBryZLQtWFD7f8owCIXu5188g4l+9AU4g1u7NjtGtccn0rElV3SDS3e2GGolU/7Fn/mM+GBiy9ODYt0DLuObymen/FcHT06DbmZ9opXhM4Y+MUGJwAA/epcsCDEwZEpqGthenuZiBVXsQM08fjjdzzdhwYXn9C0FZ3bASlDgvFHHhnGH354mj8uLW0cn8IIshhqxfEYVxia/+Uvh4ff8Y7NcxMIsbZUhVgjR6YQa49zzgldKrEAAPpW5gIb582r/bnF25Z6eRmIwVV3cSCO/bu/C6MOPLC2T4BFC4pDCNvGjKn9YRvnQDxv4lOIOAHtQb/7Xdj3C18IY5/2tBRidanIYhcZXhxz8//jP8LD73xnraxdRe1j9Qqxpl99ddj9nHNSJZYQCwBgS9WD+TiJe+odtXi7Uu8uB0VHPc6WMv6oo0LbuHG1OVS20XmHplIe72mM/Jgx2zWEMA3fKr5v90suCU/785/D9MsuS2FwVZElyGLIxElEi6191Kjw8Mc+Fub/27+lYy9NvtnijY3HqEKs4tydfs01qRIrzomVQj8AAGrKOa9iBVbsMVWTurcqvboMxNUUYpN9wnHH1XYIr2hRsSKjqsDaZhViFXqNHZsu6t0dHel7d7/44nDQrbeGfS+/PIw96CBDCxl68Zre3h4e+tCHUohlOGE/qhCr+Dj9a18Lu597bjpfU+gMANDqyrZj94YNoWPWLBVYQYC168V5fIqDcPhuu4UJL3hBbZdONi0qDSGMVYj1L2xFmjOrOI9Sp7c4l1IgXJxPu190UXjabbeFfb/4RUMLGVqxYVEca8PLEGvB+95XqywSYj1WeS7G83L6V78annDBBaEzhliGEwIAra5sN8YJ3DctXVoLsFqcXtyuVk5EPe65zw3Dp03r2QctJ16gi05s+/jx9a9s1bBRo2qfxO+vC7JiGLb7619vaCFDLx6DcThhDLHe//6w4IMfTMd33CfEqlOWxqfhhDHEes1rDCcEACh13HtveLSzs/aHFm9H6r3tYrHaKs5/lVYfLKT5r6DVxCA3duwLbVWAta0gN3Z4Q23YYdL76+uDLEML2RXKSqy24lh88NJLU4gVj0shVh/iOVi+X9OvvDLsceGFoctwQgCghVX9ow333psyAw/fBVi7VtHJ7i4a6MNHjUoTuNd2baPTDs2qvEC3T5gwsCGEZYAVhx32y9BCdrUylGkvjq0YYi386Edrx1pxPAqx6sT7X7ntc+WVtUqs+D4ZTggAtLANd9+dAiwP3QVYu1Y5/9Wo6dPDmEMPrXVmPG2mxbVPnLjt8d3lubNFBdbW1FdkGVrIUIrX9mKLwwkffNe7wqL/+I9aKFPup5dqOGFxDu5z1VXhiRdfHLoMJxw68UFCI2/OJwCaRWwPxfZPcX/rmDNn2/2jFqGXtgulaqtiG3/kkaFt7NieEkFoSWX1YfukSbU/b6sjUr7e1tcQwv7UB1mGFjJUykqsOJxw3jveERZ9/OPpGIvHIXWq8654v/a+7LLwxNe/3nDCoRLf+0beBnIfAIBGENuOxX1t0/LloWP27BTcyAuKt+S2MLDROux8sTEeG+X7f+MbYcq556aOjAY6rSrO/xZXHlv82c+GeW9+c9EXaas9Ue9LWaURPx7405+GCccdt2PnTwyyusuqq0L32rVhWXE+xp9h3YwZaV+smonVXv3+LOyw6hr41FtuCRNPPHHHfoc5KI/FueedFxYXx09cfbDfYKp8cBFD0n0+/emwR3Gsh6rCSOd7S1WIXbwvD1x8cVj4xS+G9li5lsHwy3itihPN73/NNWFq8Xuvrl+NLC7RHefY2NXv7Q6J505xXAyfMiWM3GefnnOy4ZQ/d/e6deHO6dND55IlIT3s3Mm/k+rae8ANN4RJp53WuNfeOtX/Y95rXxsWX3VV7f7d37X4carew2lnnx32vfbapnkP2brq9zznnHPC0m99a5vHWHWc7Fscj9Ne8xrHCdulOl7W33lnuOuww8IwlcaJAGtXKRtWw0aPDk+//fYw+oADah3k2GmHFlRdpJd97WthzgUXbL3RXr4WVy078BferQ0RAAAfFElEQVS/COOPPvrxNQrqg6z168Oyq68Oiy+/PKwtbhrxbBVk7XwtGWBFvUOsz3wm7PGmN9VCGRUkjxXPt/L9euCNbwwLv/CFNJ9Yes/7uz4MgaYKsMq2x7o77ggzn/3s2mIyW7v+Zqj6fUw788yw7ze/2fDXEgHWjhFgMdgEWAyl6nhZft11YXZxrdnW8dYqpCW7SFp9sGiQjD3ssDBq7717Gi3Q6uIT9HQmbKPBHl+NnZaeIYSPxzBDCxlCZfgSqwxjteGS//zPVIGlUdKH8lyL783en/982PNNb9q86AI7V7z+bdyYAqy4VHf62Chb9XNvspIzAM1l3R/+UL+rpemF7UKxAz7uiCPCsFGjah0XARYtrFqBs33atM0B0TbOiRhgVZO475QVPOuCrK2tWqhakselV4g1901vCkuK4ysezzrgfYjnZfE+xSrJJ3/mM+FJxfsVq23SRPg747xns3j9i+9pVQ3YKFv1c8cNAJpA1bdZ88c/po9bf7TfOvTAdpHYEI9v/oRjj63t0OiCZPjUqbWO6UDEAGvUqPq9j9+wba9amKqx4PEoqwzbiuNt3sUXh6VliJWGE7KleE7G+2Txnj0lhlhvfnNtdUKhxc5VBqsNuwFAM4j3tLa20PnQQ6Fj1qwBjU5pFQKsXaFobMe5dIZPmBDGP+95tV2qOWh1ZSd0+O67p7mttnqJLr+2dwXWoKgPsnoNLdz9vPNCjLCcuzwuVRAaK7EuuSQsveIKwwn7U5738QHQUz796bDn296WgmTnIADQTKp24Lrbbx+0+RAblVbfLpCGQhQfxz3nOamzXtvpCTJEbaNHp6F7AzHoAValV5AVV+qKP9/ogw6qhWzOXR6v4rgaFrfi07kXXZQWEIjHm+GEfSgrsdJwwk98Iuz5jnekCXKt4ggANItq+ODaP/whdMU2YtkPQYC1axQHZHzmPv4FL0h/9KQdNovVVyOmTSv/sPUOaZrEvRpCuI2v3Sli5zkO8YoVWR0d9a/CjouNknh8FZ/Oec1rwrKvfrV2rAmxHqsMsWL12l4f/Wh40jveEbqreSSH4joAADCYysBq1U9+kgKb+OCOGgHWUItPjouGdlxmffyRR9a/Cq2r7HjGTnv71KlbH0JYSK+PGDE4c2Bti44yg6FqnBTH1pzXvjYs+9rX0jxvKrH6UJ6D8X765I9+NFViGU4IADS8stKqY86csO5//qcW2Ki+6qGlN9Ri9VVxAI7aa68w5vDDa7s0uKGmvDjHlQjjZ9taWbBtqIYQwlCphhMW29zXvS4s/9a3rE7Yn1iJVa5OGCux9vzXf60NJ6xW0AMAaDDV6KyVN98cujo6almBAKuH5GSIVR3y0X/3d2H45Mm1A1RDG2rKi/PIJzyh7oV+9B5CCM2iHE4Yhw/OOe+8sPzaaw0n7E8MseJ7VdxL9/r3fw97XXppbYVQIRYA0IhiG6Zoy6z60Y9qI04Uu2zBu7GLTHjhC+t3QcuLq3NGw5/4xK1PkF7uj/Nlpc+rDj80ixjCxCFyxcc5558fll93neGE/YnnfqzE6uoKe77//bUQq/g8PbF0XQAAGkU5HULH3Llh9a23hvbYFjRf9hYEWEMsdtBjc3r8McekP29riBS0lDLAGrHHHnUvbKk6a9KKHMHEhjSp2IgpPsTQas6FF4ZHvv99wwn7EyuxyuGEVYhlOCEA0Eiqh/krrr8+bFq1yvDBPgiwhlLZuB69775h1P77178KlIZPm1a7OG0jmNolE7jDUIoPPeK9Y8OGcP855/SEWIYT9qHXcMIYYj35Qx+yOiEA0BiqNt/GjWH5N79Z/yolAdYQigdk7I6POfTQMHzq1Frn3JhW2KzsZMZVCNvb22uVVVvpeLaPHVu/C5pPWU7+aEdHmHP22empnOGE/eg1nPBJ7353LcQyJxYAkLlqqOCqn/0srL3jjqLpUit+YUvSkyFUDR8cd+SRqSFtPCtsqRpSO3zKlNA2fnxtHqytGDZ6dP0uaE5liNW9cWO4/9WvDqtuvtlwwv5UwwnLEOspvSuxPDQCAHJUPmxbctllm9sthg8+hpbcUCoOxLbiQJxQzn8Vyvl7gC3FCsW2ceNqf9hK1UTbmDH1u6B5VSHWmjVh9hlnhFU33WQ4YX/KECu+N0+MIdaHP1yrxCpfAwDIRtnGW/Pb34YV//f/psnbY3bAYwmwhkqsuAq1yanHHHZYuUsjGrZQVWDFIYQDqMASYNFyigZOLCnvWrcuzIohVtHIMZywH/F6EociFw3AJ77rXWGfT36yFmLF/e6/AEAOYpVVWWm14AMf2LySMn3yzgyRav6rcUcdVassiQepBjRsKQa98aI9cmRonzKl3NX/eTJMgEULivMhpHvKhg1h9tlnh9U//anhhP0pK7HidWWPt7417P2JT2wOsTQOAYBdLM1z1d4eHrn++rDylltCe9luoW9ab0OlrMCqhg+akA22buSTn1y/6zFUYNGyyhCra+XKMOsf/iGs/slPhFj96TWc8Alve1vY5xOfqN2DPUgCAHalOEd20RaJ7bmH/+VfzHk1AAKsoVBWlQxvbw9jnvnM+leBPozce+/6XY9hEndaWhxOWNxXUoj1ileE1b/4hRCrP72GE+7xtreFvT/1qdBdBVhCLABgF0iVVm1tKbxaN2tWmiYitu/onwBrKBSN49hQHrnXXmHMIYfUdhm6AFs1kACrXYBFi0tDbmMl1urVaWL3NbfeKsTqT+/hhG95S5j++c9vroZ2TwYAhlBsq8U227Kvfz0suuKK0B4ftAmvtkmLbQhUc/iMPvDAMHzKlNqB6YkvbNVAAqy2sWPTxT911qshQdBqyuGEm5YtC7Ne9rKw5te/FmL1pwqxOjvD7m94Q9gnhljVdcN9GQAYArEdEttqa/7f/wsPvPGNtcor/ZgBEWANofHl/FcOTti2EXvtVftkK+fLsFGj0sW/rfiYKijKDmissOgJtaAVlMMJqxBr7W9+k86NOO8TdWKINWJEukakEOsLX0gTuz9qOCEAMNhi5VXRDln3l7+E2WeeGbpWrQqp9aHfMiACrCFQPd0dd/TRda8A9aqKxfbJk0P7qFF9ViymVdiKj4uLjue8170uLP7c58K6P/0pdK9Zk14fVnTkU+e9fJqRAq1yU6lFs4rHd3yC17l8eZj18peHtX/4QwixEstKNn2K14n43ux+ySVh+uWXb244Gk4IAOxs8WFZfLAYK69+85tw3ymnhI0LFqS2m6GDA6eVNthix7s4IEdMmZKGENZ2ecIL2zJ84sQw4olPTKt31gdYacWO4sOG++4LC7/85TDvn/85zDjqqPC/f/M3YdZLXxoWfOADaSnaDTNn1qotYqBVblXnNA09jB37GGYJtGgSsQEUG0IbFy8Os04/Paz9/e9rQY1KrMfqPZzwoovC9OJaUoXej7nmAADsoNQOK9oY8QH78m9+M9z3kpeEjfPnh3bh1XYTYA2y2DiOh+TYZzwjjHjSkzSMYVuqCqxJk9I5E6Ol/kLfeH6NiEMIY6ezqytsXLQoPHLzzeGB9743VaDMfO5zw92HHBLmnn9+WHrFFWHtn/8cNhUd+9RxLb4vBVrVsKHyqUhPqAWNqjiW40SgGxcurA0nvO22WkWiSqzHiteCOJyweG+m/eM/hulf+lIaSthncA4AMFDlKJAotsO6li8PD1xySbj/Va9KwwZVXu0YAdZgKxrA8bAcffDBPY1kjWLYith5jEMER43qvwKrUpXilsMMY9AVbwZVqBWHUq29446w5JprwpzXvz7MOOKIMOPZzw6zTjklPPyud4UV118fNj74YKrAqJ6KVKGWYYc0snjcxqd6KcQ67bQ0z0Ioh8zxWNVwwqkxxLriitrOeM4bTggADFRsO8T+SdnnT/2K4s9xpcE4WmTh5Zen/kp6OC+82iFaZoMsdSKKj+OOPLK2o7+OOLBZ2ckeseeetQBrIKqhgL1CrSrQitUocYt/7pg7Nyy/6abw8Ec/mqq07jrwwBRszXv968PSL30prLn11tD1yCOPHXYYQ63eKx5C5mIQnEKs+fPDfaefHtb99a+GE25FGk5YvDexEmvfr341hJEja3NYum8DAP2p5tuN7avYZogPxYv2VndHR1j+7W+HmS94Qbj/1a8O6++9NwyP/Yrye9gxAqzBFA/g4uBsGzEijD/qqNouT3Nh28oO48h99kkXqR0ur+31FKQaGhjPweHDh6cbSPxXujZsSFVai664Isy+6KJw7/HHh7sPPzzce8IJYf573hNW3Xxz6Jg1K3SvX19b8XD06Fqg5VymAaQQqzhuY6VhrMRa/7//azhhf+IT0XLS+6nnnx+mf+UrtcAvvuR8B4DWVfUpygflWzzQLiutUhui2L/+zjvDgve/P8x45jPD7LPOCqtuvTU9UE9DBsv+CDtu2G1h4AUObKfiII1Lc4858MDwt0UHOa44YA4s2LZ4cY83gke+851w/znn1JaWHSzxfKxKecsqq/q4bPi4cWHM3/5tGP30p4exBx8cJrzoRWH5178eHv7Yx1IQZljWjom/467ivXvqj34UJpxwQs/vveGU1/V5558fFn/zm1keE9V7PXrvvcPf/PCHYcwznpGO9XjcawT0IR6LI0eG5ddcE+6/4IJa+F0+lIpiI3VT8f7tf/XVYcqrXlV7L+M9vhHFBnjRXllftFPuOfLIzU+QG6iBXf0+pp15Ztj32msb/lry6Pr14c799gudS5ZscdztLNX14IDvfz/sduqpjft+1an+Hw/80z+FxV/5Sqq8HqxrcfUeTis6p9O/8Y2meQ/Zuur3PLe47i+97rptHmPVcbLvlVeGqRde6DhpUOk63N+DrOIeuilOWfKnP4W1v/51WP2b34Q1v/1t+r3H/kuap7f8OnYOAdYgqhpUT7z44rD3ZZfVvwxsQ6wWufvQQ4e2WqR3oFWKDY5420mVGMXWPmJEbYGGjo6er2H7VQ27p916axh/zDH1LzeceUXjdNHVV2cZYEU9IVbRMf6bG28MY57+9PovoQ8rf/CDcP9rXhO6V6yoBQkxzCrv7wd85zth8hln1H9LQ4qrut5dHBONHGDtfu65Yd9vfKP+5YZ0+xOeEDoXLx7UACs+PJh40kn1Lze8By66KCz60pe2GS48HtV7uPt554Xp11xT/zJNbu6rXx2WfP3r2zzGquNkv29+M0w955z6l2kgcb7cTUuXhs7589PUDJ3z5oX1d98d1t1+e9hQ9FfipOzVkRAjyvi7T9MQCK52OgHWIIoH7qbiovWkN70pTC1ucF1r1kjdYSDKDmKcgHruWWeFro0bB6URP2Ax0KrmwYo3IjejnaOsUt37U59KAVYaptnfE66cxeN1xIgw/33vCyt+/OOsl0ROq+AUHf0x++8fnvKf/5lW+3Q89y92TIZPmRKWXnllWPS5z22+DpXH7uSXvjSMPfTQWpjdiMduVF5vOxcsCMtiR7wBj4eqkzj55JPDXh/5SOhat64xryVRPLaKa+Hs008Pm+J8jINx76uuvR//eJhw4omhu5Hfr17idbdt7NiwoLgWL7/hhlrlw2Adz+V7OKl4//b88Idr76E2fp524vmTjrExY8L8d787rPjpT7d9jJXHyZ7vfGeY9PKXN247p5nEtnzRr0gLOMXPi/t3/HP3hg3pPO4u+uuxz961YkXYtGxZ6Cq2uMp5dwyoVq9O+7vWrk1hVXyovcVWXgNSG3AnHndsSYA1BOIb7E2GHZPlbX4wOhQtbCtNv4ZSNWCyFxtsxfHrCB6Y+D7F61Bfv9tmOXYrWV5vt1OzHNd9HW87W7O8V30Zivcv0sZvTdt7v2+2e0Wrqn7naRXBGFbFtlRZma1fMHQEWEOhqt4AtovS2xZRXB97D9lsVA31xM19acC2eh1qkmM32ur/s5E0ye9jSK4lzfJe9WUo3r/ItbQlbff9vonuFa0q3SNrn2z5kSEnwAIAAAAgax4ZAAAAAJA1ARYAAAAAWRNgAQAAAJA1ARYAAAAAWRNgAQAAAJA1ARYAAAAAWRNgAQAAAJA1ARYAAAAAWRNgAQAAAJA1ARYAAAAAWRNgAQAAAJA1ARYAAAAAWRNgAQAAAJA1ARYAAAAAWRNgAQAAAJA1ARYAAAAAWRNgAQAAAJA1ARYAAAAAWRNgAQAAAJA1ARYAAAAAWRNgAQAAAJA1ARYAAAAAWRNgAQAAAJA1ARYAAAAAWRNgAQAAAJA1ARYAAAAAWRNgAQAAAJA1ARYAAAAAWRNgAQAAAJA1ARYAAAAAWRNgAQAAAJA1ARYAAAAAWRNgAQAAAJA1ARYAAAAAWRNgAQAAAJA1ARYAAAAAWRNgAQAAAJA1ARYAAAAAWRNgAQAAAJA1ARYAAAAAWRNgAQAAAJA1ARYAAAAAWRNgAQAAAJA1ARYAAAAAWRNgAQAAAJA1ARYAAAAAWRNgAQAAAJA1ARYAAAAAWRNgAQAAAJA1ARYAAAAAWRNgAQAAAJA1ARYAAAAAWRNgAQAAAJA1ARYAAAAAWRNgAQAAAJA1ARYAAAAAWRNgAQAAAJA1ARYAAAAAWRNgAQAAAJA1ARYAAAAAWRNgAQAAAJA1ARYAAAAAWRNgAQAAAJA1ARYAAAAAWRNgAQAAAJA1ARYAAAAAWRNgAQAAAJA1ARYAAAAAWRNgAQAAAJA1ARYAAAAAWRNgAQAAAJA1ARYAAAAAWRNgAQAAAJA1ARYAAAAAWRNgAQAAAJA1ARYAAAAAWRNgAQAAAJA1ARYAAAAAWRNgAQAAAJA1ARYAAAAAWRNgAQAAAJA1ARYAAAAAWRNgAQAAAJA1ARYAAAAAWRNgAQAAAJA1ARYAAAAAWRNgAQAAAJA1ARYAAAAAWRNgAQAAAJA1ARYAAAAAWRNgAQAAAJA1ARYAAAAAWRNgAQAAAJA1ARYAAAAAWRNgAQAAAJA1ARYAAAAAWRNgAQAAAJA1ARYAAAAAWRNgAQAAAJA1ARYAAAAAWRNgAQAAAJA1ARYAAAAAWRNgAQAAAJA1ARYAAAAAWRNgAQAAAJA1ARYAAAAAWRNgAQAAAJA1ARYAAAAAWRNgAQAAAJA1ARYAAAAAWRNgAQAAAJA1ARYAAAAAWRNgAQAAAJA1ARYAAAAAWRNgAQAAAJA1ARYAAAAAWRNgAQAAAJA1ARYAAAAAWRNgAQAAAJA1ARYAAAAAWRNgAQAAAJA1ARYAAAAAWRNgAQAAAJA1ARYAAAAAWRNgAQAAAJA1ARYAAAAAWRNgAQAAAJA1ARYAAAAAWRNgAQAAAJA1ARYAAAAAWRNgAQAAAJA1ARYAAAAAWRNgAQAAAJA1ARYAAAAAWRNgAQAAAJA1ARYAAAAAWRNgAQAAAJA1ARYAAAAAWRNgAQAAAJA1ARYAAAAAWRNgAQAAAJA1ARYAAAAAWRNgAQAAAJA1ARYAAAAAWRNgAQAAAJA1ARYAAAAAWRNgAQAAAJA1ARYAAAAAWRNgAQAAAJA1ARYAAAAAWRNgAQAAAJA1ARYAAAAAWRNgAQAAAJA1ARYAAAAAWRNgAQAAAJA1ARYAAAAAWRNgAQAAAJA1ARYAAAAAWRNgAQAAAJA1ARYAAAAAWRNgAQAAAJA1ARYAAAAAWRNgAQAAAJA1ARYAAAAAWRNgAQAAAJA1ARYAAAAAWRNgAQAAAJA1ARYAAAAAWRNgAQAAAJA1ARYAAAAAWRNgAQAAAJA1ARYAAAAAWRNgAQAAAJA1ARYAAAAAWRNgAQAAAJA1ARYAAAAAWRNgAQAAAJA1ARYAAAAAWRNgAQAAAJA1ARYAAAAAWRNgAQAAAJA1ARYAAAAAWRNgAQAAAJA1ARYAAAAAWRNgAQAAAJA1ARYAAAAAWRNgAQAAAJA1ARYAAAAAWRNgAQAAAJA1ARYAAAAAWRNgAQAAAJA1ARYAAAAAWRNgAQAAAJA1ARYAAAAAWRNgAQAAAJA1ARYAAAAAWRNgAQAAAJA1ARYAAAAAWRNgAQAAAJA1ARYAAAAAWRNgAQAAAJA1ARYAAAAAWRNgAQAAAJA1ARYAAAAAWRNgAQAAAJA1ARYAAAAAWRNgAQAAAJA1ARYAAAAAWRNgAQAAAJA1ARYAAAAAWRNgAQAAAJA1ARYAAAAAWRNgAQAAAJA1ARYAAAAAWRNgAQAAAJA1ARYAAAAAWRNgAQAAAJA1ARYAAAAAWRNgAQAAAJA1ARYAAAAAWRNgAQAAAJA1ARYAAAAAWRNgAQAAAJA1ARYAAAAAWRNgAQAAAJA1ARYAAAAAWRNgAQAAAJA1ARYAAAAAWRNgAQAAAJA1ARYAAAAAWRNgAQAAAJA1ARYAAAAAWRNgAQAAAJA1ARYAAAAAWRNgAQAAAJA1ARYAAAAAWRNgAQAAAJA1ARYAAAAAWRNgAQAAAJA1ARYAAAAAWRNgAQAAAJA1ARYAAAAAWRNgAQAAAJA1ARYAAAAAWRNgAQAAAJA1ARYAAAAAWRNgAQAAAJA1ARYAAAAAWRNgAQAAAJA1ARYAAAAAWRNgAQAAAJA1ARYAAAAAWRNgAQAAAJA1ARYAAAAAWRNgAQAAAJA1ARYAAAAAWRNgAQAAAJA1ARYAAAAAWRNgAQAAAJA1ARYAAAAAWRNgAQAAAJA1ARYAAAAAWRNgAQAAAJA1ARYAAAAAWRNgAQAAAJA1ARYAAAAAWRNgAQAAAJA1ARYAAAAAWRNgAQAAAJA1ARYAAAAAWRNgAQAAAJA1ARYAAAAAWRNgAQAAAJA1ARYAAAAAWRNgAQAAAJA1ARYAAAAAWRNgAQAAAJA1ARYAAAAAWRNgAQAAAJA1ARYAAAAAWRNgAQAAAJA1ARYAAAAAWRNgAQAAAJA1ARYAAAAAWRNgAQAAAJA1ARYAAAAAWRNgAQAAAJA1ARYAAAAAWRNgAQAAAJA1ARYAAAAAWRNgAQAAAJA1ARYAAAAAWRNgAQAAAJA1ARYAAAAAWRNgAQAAAJA1ARYAAAAAWRNgAQAAAJA1ARYAAAAAWRNgAQAAAJA1ARYAAAAAWRNgAQAAAJA1ARYAAAAAWRNgAQAAAJA1ARYAAAAAWRNgAQAAAJA1ARYAAAAAWRNgAQAAAJA1ARYAAAAAWRNgAQAAAJA1ARYAAAAAWRNgAQAAAJA1ARYAAAAAWRNgAQAAAJA1ARYAAAAAWRNgAQAAAJA1ARYAAAAAWRNgAQAAAJA1ARYAAAAAWRNgAQAAAJA1ARYAAAAAWRNgAQAAAJA1ARYAAAAAWRNgAQAAAJA1ARYAAAAAWRNgAQAAAJA1ARYAAAAAWRNgAQAAAJA1ARYAAAAAWRNgAQAAAJA1ARYAAAAAWRNgAQAAAJA1ARYAAAAAWRNgAQAAAJA1ARYAAAAAWRNgAQAAAJA1ARYAAAAAWRNgAQAAAJA1ARYAAAAAWRNgAQAAAJA1ARYAAAAAWRNgAQAAAJA1ARYAAAAAWRNgAQAAAJA1ARYAAAAAWRNgAQAAAJA1ARYAAAAAWRNgAQAAAJA1ARYAAAAAWRNgAQAAAJA1ARYAAAAAWRNgAQAAAJA1ARYAAAAAWRNgAQAAAJA1ARYAAAAAWRNgAQAAAJA1ARYAAAAAWRNgAQAAAJA1ARYAAAAAWRNgAQAAAJA1ARYAAAAAWRNgAQAAAJA1ARYAAAAAWRNgAQAAAJA1ARYAAAAAWRNgAQAAAJA1ARYAAAAAWRNgAQAAAJA1ARYAAAAAWRNgAQAAAJA1ARYAAAAAWRNgAQAAAJA1ARYAAAAAWRNgAQAAAJA1ARYAAAAAWRNgAQAAAJA1ARYAAAAAWRNgAQAAAJA1ARYAAAAAWRNgAQAAAJA1ARYAAAAAWRNgAQAAAJA1ARYAAAAAWRNgAQAAAJA1ARYAAAAAWRNgAQAAAJA1ARYAAAAAWRNgAQAAAJA1ARYAAAAAWRNgAQAAAJA1ARYAAAAAWRNgAQAAAJA1ARYAAAAAWRNgAQAAAJA1ARYAAAAAWRNgAQAAAJA1ARYAAADw/7djxwIAAAAAg/ytp7GjMII1gQUAAADAmsACAAAAYE1gAQAAALAmsAAAAABYE1gAAAAArAksAAAAANYEFgAAAABrAgsAAACANYEFAAAAwJrAAgAAAGBNYAEAAACwJrAAAAAAWBNYAAAAAKwJLAAAAADWBBYAAAAAawILAAAAgDWBBQAAAMCawAIAAABgTWABAAAAsCawAAAAAFgTWAAAAACsCSwAAAAA1gQWAAAAAGsCCwAAAIA1gQUAAADAmsACAAAAYE1gAQAAALAmsAAAAABYE1gAAAAArAksAAAAANYEFgAAAABrAgsAAACANYEFAAAAwJrAAgAAAGBNYAEAAACwJrAAAAAAWBNYAAAAAKwJLAAAAADWBBYAAAAAawILAAAAgDWBBQAAAMCawAIAAABgTWABAAAAsCawAAAAAFgTWAAAAACsCSwAAAAA1gQWAAAAAGsCCwAAAIA1gQUAAADAmsACAAAAYE1gAQAAALAmsAAAAABYE1gAAAAArAksAAAAANYEFgAAAABrAgsAAACANYEFAAAAwJrAAgAAAGBNYAEAAACwJrAAAAAAWBNYAAAAAKwJLAAAAADWBBYAAAAAawILAAAAgDWBBQAAAMCawAIAAABgTWABAAAAsCawAAAAAFgTWAAAAACsCSwAAAAA1gQWAAAAAGsCCwAAAIA1gQUAAADAWtDX3OPUkm7AAAAAAElFTkSuQmCC;" vertex="1" parent="112">
                    <mxGeometry x="70" y="75" width="60" height="60" as="geometry"/>
                </mxCell>
                <mxCell id="110" value="" style="shape=partialRectangle;whiteSpace=wrap;html=1;bottom=1;right=1;left=1;top=0;fillColor=none;routingCenterX=-0.5;strokeColor=#000000;strokeWidth=3;" vertex="1" parent="112">
                    <mxGeometry x="55" y="83.25" width="160" height="60" as="geometry"/>
                </mxCell>
                <mxCell id="115" style="edgeStyle=orthogonalEdgeStyle;orthogonalLoop=1;jettySize=auto;html=1;strokeColor=#000000;rounded=1;strokeWidth=5;exitX=1;exitY=0.5;exitDx=0;exitDy=0;exitPerimeter=0;" edge="1" parent="1" source="98">
                    <mxGeometry relative="1" as="geometry">
                        <mxPoint x="40" y="475" as="targetPoint"/>
                    </mxGeometry>
                </mxCell>
                <mxCell id="28" style="edgeStyle=orthogonalEdgeStyle;rounded=1;orthogonalLoop=1;jettySize=auto;html=1;fontColor=#000000;strokeWidth=5;strokeColor=#000000;exitX=1;exitY=0.5;exitDx=0;exitDy=0;exitPerimeter=0;entryX=0;entryY=0.5;entryDx=0;entryDy=0;" parent="1" target="27" edge="1" source="22">
                    <mxGeometry relative="1" as="geometry">
                        <mxPoint x="260" y="480" as="sourcePoint"/>
                        <mxPoint x="130" y="480" as="targetPoint"/>
                    </mxGeometry>
                </mxCell>
                <mxCell id="116" value="" style="endArrow=classic;startArrow=classic;html=1;strokeColor=#000000;strokeWidth=5;entryX=0;entryY=0.5;entryDx=0;entryDy=0;exitX=1;exitY=0.5;exitDx=0;exitDy=0;entryPerimeter=0;" edge="1" parent="1" source="27" target="47">
                    <mxGeometry width="50" height="50" relative="1" as="geometry">
                        <mxPoint x="550" y="570" as="sourcePoint"/>
                        <mxPoint x="600" y="520" as="targetPoint"/>
                    </mxGeometry>
                </mxCell>
            </root>
        </mxGraphModel>
    </diagram>
</mxfile>